<svg xmlns="http://www.w3.org/2000/svg" data-name="Layer 1" viewBox="0 0 25 25"><path d="M12.5 20.5a2.61 2.61 0 0 1-2.6-2.6c0-1.23 1.8-4.5 2.16-5.15a.53.53 0 0 1 .88 0c.36.65 2.16 3.92 2.16 5.15A2.61 2.61 0 0 1 12.5 20.5zm0-6.45a14.67 14.67 0 0 0-1.6 3.85 1.6 1.6 0 0 0 3.2 0A14.67 14.67 0 0 0 12.5 14.05zM9.5 13.5a2 2 0 0 1-2-2c0-.91 1.3-3.28 1.56-3.75a.53.53 0 0 1 .88 0c.26.47 1.56 2.84 1.56 3.75A2 2 0 0 1 9.5 13.5zm0-4.44a9.23 9.23 0 0 0-1 2.44 1 1 0 0 0 2 0A9.23 9.23 0 0 0 9.5 9.06zM14.5 11.5a2 2 0 0 1-2-2c0-.91 1.3-3.28 1.56-3.75a.53.53 0 0 1 .88 0c.26.47 1.56 2.84 1.56 3.75A2 2 0 0 1 14.5 11.5zm0-4.44a9.23 9.23 0 0 0-1 2.44 1 1 0 0 0 2 0A9.23 9.23 0 0 0 14.5 7.06z"/></svg>