<svg id="visual" viewBox="0 0 960 540" width="960" height="540" xmlns="http://www.w3.org/2000/svg" xmlns:xlink="http://www.w3.org/1999/xlink" version="1.1"><rect x="0" y="0" width="960" height="540" fill="#5d58e3"></rect><path d="M0 494L17.8 487.7C35.7 481.3 71.3 468.7 106.8 468.5C142.3 468.3 177.7 480.7 213.2 476.7C248.7 472.7 284.3 452.3 320 451.7C355.7 451 391.3 470 426.8 468.5C462.3 467 497.7 445 533.2 441.5C568.7 438 604.3 453 640 456.2C675.7 459.3 711.3 450.7 746.8 452.7C782.3 454.7 817.7 467.3 853.2 466.5C888.7 465.7 924.3 451.3 942.2 444.2L960 437L960 541L942.2 541C924.3 541 888.7 541 853.2 541C817.7 541 782.3 541 746.8 541C711.3 541 675.7 541 640 541C604.3 541 568.7 541 533.2 541C497.7 541 462.3 541 426.8 541C391.3 541 355.7 541 320 541C284.3 541 248.7 541 213.2 541C177.7 541 142.3 541 106.8 541C71.3 541 35.7 541 17.8 541L0 541Z" fill="#2b3352" stroke-linecap="round" stroke-linejoin="miter"></path></svg>