<svg id="visual" viewBox="0 0 960 540" width="960" height="540" xmlns="http://www.w3.org/2000/svg" xmlns:xlink="http://www.w3.org/1999/xlink" version="1.1"><rect x="0" y="0" width="960" height="540" fill="#2b3352"></rect><path d="M0 168L22.8 159C45.7 150 91.3 132 137 115.8C182.7 99.7 228.3 85.3 274 99.2C319.7 113 365.3 155 411.2 175C457 195 503 193 548.8 171.8C594.7 150.7 640.3 110.3 686 89.7C731.7 69 777.3 68 823 70.7C868.7 73.3 914.3 79.7 937.2 82.8L960 86L960 0L937.2 0C914.3 0 868.7 0 823 0C777.3 0 731.7 0 686 0C640.3 0 594.7 0 548.8 0C503 0 457 0 411.2 0C365.3 0 319.7 0 274 0C228.3 0 182.7 0 137 0C91.3 0 45.7 0 22.8 0L0 0Z" fill="#222" stroke-linecap="round" stroke-linejoin="miter"></path></svg>