<svg width="20" height="20" viewBox="0 0 20 20" fill="none" xmlns="http://www.w3.org/2000/svg">
<path d="M2.68256 3.5675C2.62445 3.50939 2.57835 3.4404 2.5469 3.36448C2.51545 3.28855 2.49927 3.20718 2.49927 3.125C2.49927 3.04282 2.51545 2.96144 2.5469 2.88552C2.57835 2.80959 2.62445 2.74061 2.68256 2.6825C2.74067 2.62439 2.80965 2.57829 2.88558 2.54684C2.9615 2.51539 3.04288 2.49921 3.12506 2.49921C3.20724 2.49921 3.28861 2.51539 3.36454 2.54684C3.44046 2.57829 3.50945 2.62439 3.56756 2.6825L10.0001 9.11625L16.4326 2.6825C16.4907 2.62439 16.5597 2.57829 16.6356 2.54684C16.7115 2.51539 16.7929 2.49921 16.8751 2.49921C16.9572 2.49921 17.0386 2.51539 17.1145 2.54684C17.1905 2.57829 17.2594 2.62439 17.3176 2.6825C17.3757 2.74061 17.4218 2.80959 17.4532 2.88552C17.4847 2.96144 17.5008 3.04282 17.5008 3.125C17.5008 3.20718 17.4847 3.28855 17.4532 3.36448C17.4218 3.4404 17.3757 3.50939 17.3176 3.5675L10.8838 10L17.3176 16.4325C17.3757 16.4906 17.4218 16.5596 17.4532 16.6355C17.4847 16.7114 17.5008 16.7928 17.5008 16.875C17.5008 16.9572 17.4847 17.0386 17.4532 17.1145C17.4218 17.1904 17.3757 17.2594 17.3176 17.3175C17.2594 17.3756 17.1905 17.4217 17.1145 17.4532C17.0386 17.4846 16.9572 17.5008 16.8751 17.5008C16.7929 17.5008 16.7115 17.4846 16.6356 17.4532C16.5597 17.4217 16.4907 17.3756 16.4326 17.3175L10.0001 10.8837L3.56756 17.3175C3.50945 17.3756 3.44046 17.4217 3.36454 17.4532C3.28861 17.4846 3.20724 17.5008 3.12506 17.5008C3.04288 17.5008 2.9615 17.4846 2.88558 17.4532C2.80965 17.4217 2.74067 17.3756 2.68256 17.3175C2.62445 17.2594 2.57835 17.1904 2.5469 17.1145C2.51545 17.0386 2.49927 16.9572 2.49927 16.875C2.49927 16.7928 2.51545 16.7114 2.5469 16.6355C2.57835 16.5596 2.62445 16.4906 2.68256 16.4325L9.11631 10L2.68256 3.5675Z" fill="#F0F0F0"/>
</svg>
