<svg width="21" height="12" viewBox="0 0 21 12" fill="none" xmlns="http://www.w3.org/2000/svg">
<path d="M0 1C0 0.447715 0.447715 0 1 0H20C20.5523 0 21 0.447715 21 1V1C21 1.55228 20.5523 2 20 2H1C0.447715 2 0 1.55228 0 1V1Z" fill="#D9D9D9"/>
<path d="M0 6C0 5.44772 0.447715 5 1 5H20C20.5523 5 21 5.44772 21 6V6C21 6.55228 20.5523 7 20 7H1C0.447715 7 0 6.55228 0 6V6Z" fill="#D9D9D9"/>
<path d="M0 11C0 10.4477 0.447715 10 1 10H20C20.5523 10 21 10.4477 21 11V11C21 11.5523 20.5523 12 20 12H1C0.447715 12 0 11.5523 0 11V11Z" fill="#D9D9D9"/>
</svg>
