<svg width="123" height="123" viewBox="0 0 123 123" fill="none" xmlns="http://www.w3.org/2000/svg">
<g clip-path="url(#clip0_89_72)">
<path d="M49.06 1.26994C51.23 0.819942 53.4 0.499942 55.54 0.289942C57.74 0.0799423 59.92 -0.0200577 62.07 -5.76593e-05C63.28 0.00994234 64.25 0.999942 64.24 2.20994C64.23 3.13994 63.64 3.92994 62.82 4.23994C53.67 7.83994 46.35 14.5499 41.86 22.8599C37.44 31.0299 35.76 40.7399 37.77 50.5399L37.78 50.6099C40.07 61.6699 46.61 70.7599 55.36 76.5199C64.1 82.2799 75.03 84.6999 86.09 82.4399L86.16 82.4299C94.12 80.7799 101.05 76.9399 106.46 71.6499C112.06 66.1799 116.02 59.1699 117.79 51.4899C118.06 50.3099 119.24 49.5799 120.41 49.8499C121.3 50.0599 121.94 50.7799 122.08 51.6299C124.72 67.8299 120.73 83.6999 112.02 96.3399C103.35 108.92 89.99 118.31 73.84 121.63C57.22 125.05 40.79 121.41 27.66 112.77C14.52 104.1 4.69001 90.4499 1.27001 73.8299C-2.06999 57.5999 1.32001 41.5499 9.53001 28.5799C17.78 15.5699 30.88 5.63994 46.91 1.74994C47.22 1.66994 47.58 1.58994 47.97 1.49994H47.98L49.06 1.26994ZM51.86 5.19994C51.22 5.30994 50.58 5.42994 49.95 5.55994L48.94 5.77994C48.65 5.84994 48.31 5.91994 47.94 6.00994C33.06 9.61994 20.89 18.8399 13.24 30.9299C5.61001 42.9799 2.46001 57.8799 5.56001 72.9399C8.74001 88.3699 17.87 101.05 30.07 109.09C42.26 117.12 57.52 120.5 72.95 117.32C87.95 114.23 100.36 105.51 108.41 93.8299C114.68 84.7399 118.31 73.8499 118.5 62.4199C116.23 66.9999 113.2 71.1799 109.54 74.7599C103.54 80.6199 95.85 84.8899 87.03 86.7099H87.02C74.76 89.2299 62.64 86.5499 52.95 80.1699C43.27 73.7899 36.02 63.7199 33.5 51.4699V51.4599C31.25 40.5799 33.1 29.8199 38 20.7699C41.32 14.6299 46.05 9.26994 51.86 5.19994Z" fill="#F0F0F0"/>
</g>
<defs>
<clipPath id="clip0_89_72">
<rect width="122.88" height="122.89" fill="white"/>
</clipPath>
</defs>
</svg>
