<svg width="123" height="123" viewBox="0 0 123 123" fill="none" xmlns="http://www.w3.org/2000/svg">
<g clip-path="url(#clip0_122_39)">
<path d="M49.0601 1.27C51.2301 0.820003 53.4001 0.500003 55.5401 0.290003C57.7401 0.0800034 59.9201 -0.0199966 62.0701 3.37581e-06C63.2801 0.0100034 64.2501 1 64.2401 2.21C64.2301 3.14 63.6401 3.93 62.8201 4.24C53.6701 7.84 46.3501 14.55 41.8601 22.86C37.4401 31.03 35.7601 40.74 37.7701 50.54L37.7801 50.61C40.0701 61.67 46.6101 70.76 55.3601 76.52C64.1001 82.28 75.0301 84.7 86.0901 82.44L86.1601 82.43C94.1201 80.78 101.05 76.94 106.46 71.65C112.06 66.18 116.02 59.17 117.79 51.49C118.06 50.31 119.24 49.58 120.41 49.85C121.3 50.06 121.94 50.78 122.08 51.63C124.72 67.83 120.73 83.7 112.02 96.34C103.35 108.92 89.9901 118.31 73.8401 121.63C57.2201 125.05 40.7901 121.41 27.6601 112.77C14.5201 104.1 4.69013 90.45 1.27013 73.83C-2.06987 57.6 1.32013 41.55 9.53013 28.58C17.7801 15.57 30.8801 5.64 46.9101 1.75C47.2201 1.67 47.5801 1.59 47.9701 1.5H47.9801L49.0601 1.27ZM51.8601 5.2C51.2201 5.31 50.5801 5.43 49.9501 5.56L48.9401 5.78C48.6501 5.85 48.3101 5.92 47.9401 6.01C33.0601 9.62 20.8901 18.84 13.2401 30.93C5.61013 42.98 2.46013 57.88 5.56013 72.94C8.74013 88.37 17.8701 101.05 30.0701 109.09C42.2601 117.12 57.5201 120.5 72.9501 117.32C87.9501 114.23 100.36 105.51 108.41 93.83C114.68 84.74 118.31 73.85 118.5 62.42C116.23 67 113.2 71.18 109.54 74.76C103.54 80.62 95.8501 84.89 87.0301 86.71H87.0201C74.7601 89.23 62.6401 86.55 52.9501 80.17C43.2701 73.79 36.0201 63.72 33.5001 51.47V51.46C31.2501 40.58 33.1001 29.82 38.0001 20.77C41.3201 14.63 46.0501 9.27 51.8601 5.2Z" fill="#0B131B"/>
</g>
<defs>
<clipPath id="clip0_122_39">
<rect width="122.88" height="122.89" fill="white"/>
</clipPath>
</defs>
</svg>
