<svg width="82" height="20" viewBox="0 0 82 20" fill="none" xmlns="http://www.w3.org/2000/svg">
<path d="M11.28 18.128H5.832L14.88 0.8H1.584L0.288 6.416L3.624 2.792H9.216L0.288 20H13.728L14.976 12.944L11.28 18.128ZM11.304 3.416L9.408 8.12L8.472 8.648L8.424 7.592L11.304 3.416ZM7.944 9.632L8.064 10.736L7.104 11.192L6.96 10.136L7.944 9.632ZM5.616 12.704L6.576 12.176L6.648 13.232L3.72 17.432L5.616 12.704ZM23.1891 7.256L25.4211 10.976V5.528H15.0771L16.7811 7.016V18.512L15.0771 20H25.4211V13.472L23.3571 18.272H20.3571V13.472H21.7731L23.2371 15.32V9.92L21.7731 11.792H20.3571V7.256H23.1891ZM34.0483 18.512H31.8883V7.016L33.6163 5.528H26.6083L28.3123 7.016V18.512L26.6083 20H36.5923V12.032L34.0483 18.512ZM42.9246 5.528H37.7646L39.4686 7.016V18.512L37.7646 20H43.1886C47.0046 20 50.0286 17.12 50.0286 12.776C50.0286 8.48 47.0526 5.528 42.9246 5.528ZM43.0446 18.464V7.04C44.3166 7.04 46.6206 8.624 46.6206 12.776C46.6206 16.904 44.0526 18.464 43.0446 18.464ZM55.7858 20H62.2418L60.6098 18.512L57.3698 5.528H52.1858L53.8898 7.016L50.5058 18.512L48.7057 20H54.1538L52.5698 18.752L53.4338 15.536H56.2898L57.0098 18.8L55.7858 20ZM53.8898 13.808L54.9698 9.728L55.9058 13.808H53.8898ZM67.5274 13.712C71.9674 13.712 73.8874 12.32 73.8874 9.584C73.8874 6.944 71.6794 5.528 67.2874 5.528H61.6474L63.3514 7.016V18.512L61.6474 20H68.6554L66.9274 18.512V13.712H67.5274ZM67.5754 7.016C69.2794 7.016 70.3594 7.76 70.3594 9.488C70.3594 11.312 69.2554 12.08 67.2874 12.08H66.9274V7.016H67.5754ZM80.2232 7.016L81.9272 5.528H74.9672L76.6232 7.016V18.512L74.9672 20H81.9272L80.2232 18.512V7.016Z" fill="#F0F0F0"/>
</svg>
