<svg width="653" height="127" viewBox="0 0 653 127" fill="none" xmlns="http://www.w3.org/2000/svg">
<path d="M6 59C6.06667 47.8667 9.13333 39.2667 15.2 33.2C21.3333 27.0667 29.7667 24 40.5 24H47V32.8H39.3C31.9 32.8 26.2 35.2667 22.2 40.2C18.2667 45.0667 16.2333 51.3333 16.1 59C16.2333 66.6667 18.2667 72.9667 22.2 77.9C26.2 82.7667 31.9 85.2 39.3 85.2H47V94H40.5C29.7667 94 21.3333 90.9667 15.2 84.9C9.13333 78.7667 6.06667 70.1333 6 59ZM193.098 42.9C193.098 47.3667 192.298 51.0667 190.698 54C189.098 56.8667 186.432 59.8 182.698 62.8C179.032 65.8 176.432 67.9 174.898 69.1C173.432 70.3 171.598 71.8667 169.398 73.8C167.198 75.6667 165.232 77.6 163.498 79.6C161.765 81.6 160.665 83.2667 160.198 84.6H192.498V94H150.098V89.6C150.098 88.2 150.232 86.8 150.498 85.4C150.832 84 151.498 82.2333 152.498 80.1C153.565 77.9 155.232 75.3667 157.498 72.5C159.765 69.5667 165.632 64.5 175.098 57.3C180.365 53.2333 182.998 48.2667 182.998 42.4C182.998 39.5333 181.965 37.1333 179.898 35.2C177.832 33.2 174.865 32.2 170.998 32.2C164.798 32.2 159.965 35.8 156.498 43L149.098 36.8C154.098 27.6667 161.298 23.1 170.698 23.1C177.698 23.1 183.165 24.8333 187.098 28.3C191.098 31.7667 193.098 36.6333 193.098 42.9ZM251.961 45C263.294 45.4667 268.961 50.1667 268.961 59.1C268.961 70.2333 261.661 75.8 247.061 75.8H242.961V68.1H247.761C252.228 68.1 255.328 67.4333 257.061 66.1C258.794 64.7 259.661 62.4 259.661 59.2C259.661 57.1333 258.894 55.6 257.361 54.6C255.828 53.5333 253.861 53 251.461 53C246.728 53 242.994 54.6667 240.261 58C237.594 61.3333 236.261 65.3333 236.261 70C236.261 74.9333 237.694 78.9333 240.561 82C243.494 85.0667 247.294 86.6 251.961 86.6C256.161 86.6 259.594 85.5667 262.261 83.5L268.261 89.4C263.661 93.1333 258.228 95 251.961 95C244.361 95 238.294 92.7667 233.761 88.3C229.228 83.8333 226.961 78.0667 226.961 71C226.961 63.1333 229.194 56.7667 233.661 51.9C238.128 47.0333 244.228 44.7333 251.961 45ZM312.249 46V54.4H294.549C292.616 54.4 290.949 54.7667 289.549 55.5C288.149 56.2333 287.449 57.2667 287.449 58.6C287.449 59.4 287.616 60.1333 287.949 60.8C288.283 61.4 288.649 61.9 289.049 62.3C289.516 62.7 290.183 63.1333 291.049 63.6C291.983 64 292.683 64.3 293.149 64.5C293.683 64.6333 295.816 65.3 299.549 66.5C303.283 67.7 306.049 68.7 307.849 69.5C309.649 70.3 311.016 71.4 311.949 72.8C312.949 74.1333 313.583 75.4667 313.849 76.8C314.116 78.0667 314.249 79.3333 314.249 80.6C314.249 89.5333 308.116 94 295.849 94H278.549V85.6H295.849C302.116 85.6 305.249 83.9333 305.249 80.6C305.249 79 304.316 77.6667 302.449 76.6C300.649 75.5333 298.416 74.6333 295.749 73.9C293.149 73.1667 290.516 72.3333 287.849 71.4C285.249 70.4 283.016 68.8333 281.149 66.7C279.349 64.5 278.449 61.8 278.449 58.6C278.449 54.5333 280.016 51.4333 283.149 49.3C286.283 47.1 290.083 46 294.549 46H312.249ZM319.262 54.4L337.162 36.5V46H350.662V54.4H337.162V75C337.162 77.3333 337.528 79.2667 338.262 80.8C339.062 82.3333 340.195 83.4333 341.662 84.1C343.128 84.7 344.495 85.1 345.762 85.3C347.095 85.5 348.728 85.6 350.662 85.6V94C342.995 94 337.328 92.5333 333.662 89.6C329.995 86.6667 328.162 81.8 328.162 75V54.4H319.262ZM373.199 94H364.399V54.4H356.199L360.199 46H373.199V94ZM363.999 36C363.133 34.8667 362.699 33.6333 362.699 32.3C362.699 30.9667 363.133 29.7667 363.999 28.7C364.866 27.5667 366.199 27 367.999 27C369.799 27 371.133 27.5667 371.999 28.7C372.866 29.7667 373.299 30.9667 373.299 32.3C373.299 33.6333 372.866 34.8667 371.999 36C371.133 37.0667 369.799 37.6 367.999 37.6C366.199 37.6 364.866 37.0667 363.999 36ZM387.066 46H431.166C435.9 46 439.666 46.9 442.466 48.7C445.333 50.5 447.2 52.8333 448.066 55.7C449 58.5667 449.466 62 449.466 66V94H440.666V66C440.666 60.8 439.1 57.3667 435.966 55.7C434.366 54.8333 431.133 54.4 426.266 54.4H422.166V94H413.366V54.4H395.866V94H387.066V46ZM488.169 65.8V74.8C485.635 72.8667 482.535 71.9 478.869 71.9C475.735 71.9 473.302 72.5333 471.569 73.8C469.835 75 468.969 76.7333 468.969 79C468.969 83.4 472.235 85.6 478.769 85.6H491.969V66.5C491.969 58.4333 488.035 54.4 480.169 54.4H464.169V46H480.669C487.135 46 492.102 47.6 495.569 50.8C499.035 54 500.769 58.6 500.769 64.6V94H478.469C472.802 94 468.302 92.7333 464.969 90.2C461.635 87.6667 459.969 83.9667 459.969 79.1C459.969 74.2333 461.735 70.5333 465.269 68C468.802 65.4667 473.235 64.2 478.569 64.2C481.569 64.2 484.769 64.7333 488.169 65.8ZM506.762 54.4L524.662 36.5V46H538.162V54.4H524.662V75C524.662 77.3333 525.028 79.2667 525.762 80.8C526.562 82.3333 527.695 83.4333 529.162 84.1C530.628 84.7 531.995 85.1 533.262 85.3C534.595 85.5 536.228 85.6 538.162 85.6V94C530.495 94 524.828 92.5333 521.162 89.6C517.495 86.6667 515.662 81.8 515.662 75V54.4H506.762ZM553.199 52.3C557.866 47.4333 563.699 45 570.699 45C574.099 45 577.266 45.6667 580.199 47C583.199 48.2667 585.799 50.0333 587.999 52.3C590.266 54.5667 592.033 57.2333 593.299 60.3C594.566 63.3 595.199 66.5333 595.199 70C595.199 73.4667 594.566 76.7333 593.299 79.8C592.099 82.8 590.399 85.4333 588.199 87.7C585.999 89.9667 583.399 91.7667 580.399 93.1C577.399 94.3667 574.166 95 570.699 95C567.166 95 563.899 94.3667 560.899 93.1C557.966 91.7667 555.399 89.9667 553.199 87.7C550.999 85.4333 549.266 82.8 547.999 79.8C546.799 76.7333 546.199 73.4667 546.199 70C546.199 62.9333 548.533 57.0333 553.199 52.3ZM570.699 53.4C566.033 53.4 562.266 54.9333 559.399 58C556.599 61.0667 555.199 65.0667 555.199 70C555.199 74.9333 556.599 78.9333 559.399 82C562.266 85.0667 566.033 86.6 570.699 86.6C575.433 86.6 579.199 85.0667 581.999 82C584.799 78.8667 586.199 74.8667 586.199 70C586.199 65.1333 584.799 61.1667 581.999 58.1C579.199 54.9667 575.433 53.4 570.699 53.4ZM604.207 94V66.7C604.207 59.0333 605.64 53.7333 608.507 50.8C609.907 49.3333 611.607 48.2333 613.607 47.5C615.607 46.7667 617.34 46.3333 618.807 46.2C620.34 46.0667 622.407 46 625.007 46H633.807V54.4H623.207C621.874 54.4 620.84 54.4333 620.107 54.5C619.374 54.5667 618.507 54.8 617.507 55.2C616.507 55.6 615.64 56.2333 614.907 57.1C613.64 58.7 613.007 61.9 613.007 66.7V94H604.207Z" fill="black"/>
<path d="M55 57.9438C55.0092 63.9959 56.1984 69.9838 58.4963 75.5483C60.7942 81.1127 64.1534 86.1391 68.3724 90.326V25.5096C64.1473 29.7026 60.7845 34.7374 58.4865 40.3113C56.1884 45.8852 55.0025 51.8829 55 57.9438ZM71.8455 93.4278C73.3938 94.676 75.0221 95.8139 76.7191 96.8339V19.0714C75.0237 20.0734 73.3954 21.1928 71.8455 22.4219V93.4278ZM80.5932 98.8896C81.9912 99.5446 83.4218 100.122 84.8789 100.62V15.2931C83.422 15.7885 81.9914 16.3636 80.5932 17.0158V98.8896ZM89.5278 101.928C90.7537 102.185 91.9897 102.387 93.2324 102.534V13.375C91.9895 13.5277 90.7534 13.7361 89.5278 13.9996V101.928ZM98.2688 102.881C98.3091 102.884 98.3495 102.886 98.3898 102.888C99.4564 102.886 100.522 102.843 101.586 102.759V13.1657C100.523 13.0698 99.4568 13.0145 98.3898 13C98.3495 13.0013 98.3091 13.0027 98.2688 13.0042V102.881ZM107.01 101.944C107.994 101.752 108.971 101.525 109.939 101.263V14.6705C108.972 14.3771 107.995 14.1187 107.01 13.8959V101.944ZM115.751 99.0738C116.61 98.6998 117.458 98.2972 118.293 97.8666V18.0522C117.459 17.5995 116.611 17.1752 115.751 16.7797V99.0738ZM124.492 93.7937C125.228 93.2131 125.947 92.6082 126.646 91.9799V23.8628C125.946 23.2557 125.227 22.6718 124.492 22.1117V93.7937ZM133.232 84.6404C133.852 83.773 134.442 82.8827 135 81.9713V33.8393C134.441 32.9528 133.851 32.0871 133.232 31.2438V84.6404Z" fill="#0F0E0E"/>
</svg>
