<svg width="100" height="93" viewBox="0 0 100 93" fill="none" xmlns="http://www.w3.org/2000/svg">
<path d="M47.4014 0C45.7836 0 42.5495 0.411725 42.5495 1.89364C42.5495 2.47035 43.0059 3.00544 43.6689 3.00544C43.7931 3.00544 43.9593 2.96531 44.1254 2.92369C45.2448 2.51197 46.3223 2.30536 47.3176 2.30536C51.4226 2.30536 54.4068 5.39404 54.4068 8.56447C54.4068 10.7048 53.0389 12.8467 49.8048 14.1235C46.0739 15.6054 45.369 16.6756 45.369 19.9694C45.369 21.2878 45.4528 22.3179 46.6546 22.3179C47.2757 22.3179 47.9401 21.8645 47.9401 20.9177V20.8345C47.8982 20.4644 47.8982 20.0943 47.8982 19.8059C47.8982 17.6239 48.5208 17.2107 51.0081 16.1821C55.3601 14.3286 57.1844 11.4465 57.1844 8.60609C57.1844 4.24062 52.9566 0 47.4014 0Z" fill="#677483" fill-opacity="0.5"/>
<path fill-rule="evenodd" clip-rule="evenodd" d="M67.4884 31.67C67.7941 31.5302 68.1388 31.5005 68.464 31.5858L98.9147 39.5773C99.5107 39.7337 99.9435 40.2481 99.9949 40.8613C100.046 41.4745 99.7053 42.0536 99.1436 42.3068L82.9548 49.6048L97.6209 57.604C98.1441 57.8894 98.44 58.4645 98.3677 59.0553C98.2955 59.6462 97.8696 60.1332 97.293 60.2845L81.2531 64.4916V82.6542C81.2531 83.3076 80.8162 83.8807 80.1854 84.0547L49.4187 92.5401C49.1639 92.6104 48.8948 92.6101 48.6401 92.5391L18.1853 84.0537C17.5563 83.8784 17.1213 83.3062 17.1213 82.6542V65.1446L1.08532 60.9362C0.516233 60.7868 0.0932326 60.31 0.0134756 59.7279C-0.0662814 59.1458 0.212903 58.573 0.720902 58.2765L15.3614 49.7319L0.877035 43.47C0.30768 43.2238 -0.0427561 42.6443 0.00422353 42.0266C0.0512033 41.4089 0.485265 40.8888 1.08532 40.7313L31.536 32.7399C31.8548 32.6562 32.1927 32.6832 32.4943 32.8163L49.0208 40.1116L67.4884 31.67ZM44.6098 41.3417L18.6967 48.0072L5.89655 42.4734L31.7833 35.6797L44.6098 41.3417ZM18.7788 51.1034L5.22009 59.0166L18.8775 62.6009C18.9247 62.6108 18.971 62.623 19.0163 62.6373L31.7104 65.9687L45.2262 58.4723L18.7788 51.1034ZM47.5761 60.4932L32.6125 68.7925C32.2845 68.9745 31.8988 69.0229 31.536 68.9276L20.0316 65.9084V81.5511L47.5761 89.2257V60.4932ZM50.4864 89.2309L78.3427 81.5481V65.2554L66.8385 68.2758C66.4936 68.3664 66.1273 68.3273 65.8093 68.166L50.4864 60.392V89.2309ZM49.0332 56.516L74.1278 49.595L49.0331 43.2048L24.1917 49.5946L49.0332 56.516ZM79.6174 51.0957L53.0372 58.4266L66.634 65.3248L93.0136 58.4024L79.6174 51.0957ZM79.515 47.967L94.2033 41.3455L68.2271 34.5283L53.3834 41.3135L79.515 47.967Z" fill="#677483" fill-opacity="0.5"/>
<path d="M48.6696 27.8973C48.6696 28.7778 47.8952 29.4915 46.94 29.4915C45.9847 29.4915 45.2104 28.7778 45.2104 27.8973C45.2104 27.0169 45.9847 26.3032 46.94 26.3032C47.8952 26.3032 48.6696 27.0169 48.6696 27.8973Z" fill="#677483" fill-opacity="0.5"/>
</svg>
