<svg width="100" height="100" viewBox="0 0 100 100" fill="none" xmlns="http://www.w3.org/2000/svg">
<path fill-rule="evenodd" clip-rule="evenodd" d="M40.5665 24.967C33.985 20.6044 24.571 21.543 19.1938 28.4736L17.9048 30.1349C11.7084 38.1215 12.6031 49.5107 19.9706 56.4315L48.9398 83.6452C49.469 84.1423 49.7577 84.4102 49.9806 84.5819C49.9873 84.5873 49.9998 84.5965 49.9998 84.5965C49.9998 84.5965 50.0119 84.5873 50.0185 84.5819C50.2419 84.4102 50.5302 84.1423 51.0598 83.6452L80.029 56.4315C87.3965 49.5107 88.291 38.1215 82.0944 30.1349L80.8056 28.4736C75.1406 21.1722 64.9956 20.5194 58.3985 25.7153L55.8206 22.442C64.121 15.9046 76.9277 16.678 84.0977 25.9194L85.3865 27.5807C92.9006 37.2653 91.8156 51.0761 82.8815 59.4686L53.9123 86.6819L53.8544 86.7365C53.4056 87.1582 52.9665 87.5711 52.561 87.8832C52.1102 88.2302 51.5402 88.5848 50.8023 88.7294C50.2723 88.8336 49.7273 88.8336 49.1973 88.7294C48.459 88.5848 47.889 88.2302 47.4381 87.8832C47.0331 87.5711 46.5935 87.1582 46.1452 86.7365L46.0869 86.6819L17.1178 59.4686C8.18384 51.0761 7.09892 37.2653 14.6128 27.5808L15.9018 25.9194C23.275 16.4162 36.6085 15.8657 44.8773 23.0185L46.3831 24.3212L45.1498 25.8845L40.8345 31.3544C39.4292 33.1357 38.5156 34.3015 37.9658 35.2432C37.4459 36.1338 37.4456 36.5063 37.488 36.7377C37.5304 36.9691 37.6627 37.3173 38.4646 37.9657C39.3126 38.6514 40.5801 39.4175 42.5256 40.5849L47.7444 43.7161L47.8652 43.7886C49.5206 44.7819 50.9431 45.6348 51.9831 46.4702C53.096 47.3632 54.0323 48.4348 54.3735 49.9523C54.7148 51.4698 54.3273 52.8394 53.704 54.1227C53.1215 55.3227 52.2015 56.7027 51.1302 58.309L51.0519 58.4265L47.5665 63.6544L44.0998 61.3432L47.5852 56.1152C48.7565 54.3582 49.5127 53.2157 49.9556 52.3027C50.3727 51.4444 50.3585 51.0898 50.3081 50.8665C50.2581 50.6432 50.119 50.3169 49.3748 49.7194C48.5835 49.084 47.411 48.3752 45.6006 47.289L40.3819 44.1577L40.2553 44.0819C38.4717 43.0119 36.9475 42.0973 35.8448 41.2057C34.67 40.2558 33.6866 39.11 33.3895 37.4886C33.0925 35.8672 33.6058 34.4472 34.3675 33.1425C35.0825 31.9178 36.1834 30.5225 37.4718 28.8896L37.5633 28.7736L40.5665 24.967Z" fill="#677483" fill-opacity="0.5"/>
</svg>
