<?xml version="1.0" ?><svg viewBox="0 0 64 64" xmlns="http://www.w3.org/2000/svg"><title/><g id="Sun"><circle cx="32" cy="32" r="15" style="fill:#ffd36b"/><path d="M32,13a1,1,0,0,1-1-1V3a1,1,0,0,1,2,0v9A1,1,0,0,1,32,13Z" style="fill:#ffe78f"/><path d="M17.8574,18.8579a.9964.9964,0,0,1-.707-.293l-4.2422-4.2426a1,1,0,1,1,1.4141-1.4141l4.2422,4.2427a1,1,0,0,1-.7071,1.707Z" style="fill:#ffe78f"/><path d="M12,33H3a1,1,0,0,1,0-2h9a1,1,0,0,1,0,2Z" style="fill:#ffe78f"/><path d="M13.6152,51.3848a1,1,0,0,1-.707-1.7071L17.15,45.4351a1,1,0,1,1,1.4141,1.414l-4.2422,4.2427A.9969.9969,0,0,1,13.6152,51.3848Z" style="fill:#ffe78f"/><path d="M32,62a1,1,0,0,1-1-1V52a1,1,0,0,1,2,0v9A1,1,0,0,1,32,62Z" style="fill:#ffe78f"/><path d="M50.3848,51.3848a.9969.9969,0,0,1-.7071-.293l-4.2422-4.2427a1,1,0,1,1,1.4141-1.414l4.2422,4.2426a1,1,0,0,1-.707,1.7071Z" style="fill:#ffe78f"/><path d="M61,33H52a1,1,0,0,1,0-2h9a1,1,0,0,1,0,2Z" style="fill:#ffe78f"/><path d="M46.1426,18.8579a1,1,0,0,1-.7071-1.707l4.2422-4.2427a1,1,0,0,1,1.4141,1.4141L46.85,18.5649A.9964.9964,0,0,1,46.1426,18.8579Z" style="fill:#ffe78f"/></g></svg>