<svg width="299" height="328" viewBox="0 0 299 328" fill="none" xmlns="http://www.w3.org/2000/svg">
<g clip-path="url(#clip0_22_29)" filter="url(#filter0_d_22_29)">
<path d="M206.068 64.921C185.896 61.6967 162.924 59.9762 139 59.9762C117.106 59.9762 96.0122 61.415 77.1338 64.1279C77.1382 63.8376 77.1424 63.5472 77.1553 63.2569C77.6558 46.4028 84.7187 30.4134 96.8343 18.7061C108.95 6.99879 125.157 0.502385 141.992 0.605394C158.827 0.708402 174.953 7.40265 186.925 19.2573C198.897 31.112 205.764 47.1867 206.059 64.0456C206.064 64.3403 206.068 64.6307 206.068 64.921Z" fill="white"/>
<g opacity="0.1">
<path d="M150.056 0.581295C141.102 -0.630008 131.994 0.0565231 123.322 2.59639C114.65 5.13626 106.608 9.47278 99.7166 15.3249C92.8251 21.177 87.2382 28.4142 83.3181 36.5673C79.3979 44.7204 77.2319 53.6076 76.9605 62.6527C76.9474 62.9431 76.9432 63.2335 76.939 63.5238C82.5475 62.7178 88.3555 62.0272 94.3181 61.4504C95.0474 46.3815 101.021 32.0439 111.202 20.9254C121.383 9.80687 135.13 2.60918 150.056 0.581295Z" fill="white"/>
</g>
<path d="M234.271 70.0435C224.985 67.5223 215.567 65.5199 206.059 64.0456C190.476 61.627 174.766 60.1149 159.008 59.5169C152.444 59.2482 145.759 59.1095 139 59.1095C133.644 59.1095 128.33 59.1962 123.09 59.3695C107.719 59.8244 92.3847 61.1221 77.1554 63.2569C65.8819 64.8116 54.7178 67.0784 43.7298 70.0435C18.1101 77.1378 4 86.646 4 96.8129C4 106.98 18.1101 116.488 43.7298 123.582C61.7473 128.575 83.9617 131.977 108.167 133.537C118.158 134.187 128.486 134.516 139 134.516C149.549 134.516 159.912 134.183 169.934 133.533C191.962 132.107 212.342 129.156 229.399 124.865C229.49 124.839 229.576 124.818 229.667 124.796C230.818 124.51 231.952 124.211 233.072 123.912C233.475 123.799 233.873 123.691 234.271 123.582C234.293 123.573 234.316 123.566 234.34 123.561C234.721 123.457 235.097 123.348 235.474 123.244C236.227 123.028 236.971 122.815 237.702 122.594C237.737 122.586 237.767 122.577 237.797 122.568C238.433 122.378 239.057 122.187 239.675 121.996C240.181 121.836 240.683 121.68 241.181 121.52C241.544 121.403 241.904 121.286 242.258 121.169C242.518 121.082 242.773 120.999 243.024 120.913C243.366 120.8 243.708 120.683 244.045 120.566C244.188 120.518 244.331 120.471 244.469 120.419C244.794 120.31 245.11 120.198 245.426 120.085C245.767 119.964 246.109 119.838 246.447 119.717C246.728 119.617 247.009 119.513 247.286 119.409C247.52 119.318 247.749 119.231 247.983 119.145C248.619 118.906 249.242 118.659 249.857 118.417C250.164 118.291 250.471 118.17 250.774 118.044C251.072 117.923 251.375 117.797 251.669 117.671C252.154 117.467 252.63 117.264 253.097 117.06C253.322 116.956 253.552 116.856 253.772 116.761C253.941 116.683 254.105 116.609 254.274 116.531C254.395 116.479 254.517 116.423 254.633 116.367C255.07 116.167 255.503 115.964 255.927 115.76C257.554 114.98 259.073 114.183 260.483 113.368C269.332 108.293 274.001 102.664 274.001 96.813C274.001 86.646 259.891 77.1378 234.271 70.0435ZM234.037 122.75C215.998 127.747 193.723 131.149 169.453 132.696C159.584 133.325 149.381 133.65 139 133.65C128.655 133.65 118.486 133.329 108.647 132.701C84.3382 131.158 62.0285 127.756 43.9635 122.75C18.7505 115.764 4.86539 106.555 4.86539 96.8129C4.8668 95.9521 4.97437 95.0948 5.18568 94.2604C7.39225 85.4716 20.9659 77.2462 43.9635 70.8756C54.8685 67.9335 65.947 65.6799 77.1339 64.128C92.4548 61.9811 107.882 60.679 123.345 60.2276C128.503 60.0586 133.722 59.9748 139 59.9762C145.668 59.9762 152.262 60.1106 158.744 60.3706C174.594 60.9633 190.395 62.4827 206.068 64.921C215.493 66.3888 224.831 68.3766 234.037 70.8756C257.031 77.2462 270.6 85.4672 272.811 94.2517C273.026 95.0885 273.135 95.949 273.135 96.8129C273.135 106.555 259.25 115.764 234.037 122.75Z" fill="#3F3D56"/>
<path d="M273.754 97.2073C273.754 102.997 268.99 108.475 260.483 113.368C259.068 114.182 257.545 114.98 255.927 115.76C255.503 115.964 255.07 116.167 254.633 116.367C254.516 116.423 254.395 116.479 254.274 116.531C254.105 116.609 253.941 116.683 253.772 116.761C253.552 116.856 253.322 116.956 253.097 117.06C252.63 117.264 252.154 117.467 251.669 117.671C251.375 117.797 251.072 117.922 250.773 118.044C250.471 118.169 250.164 118.291 249.856 118.417C249.242 118.659 248.619 118.906 247.983 119.145C247.749 119.231 247.52 119.318 247.286 119.409C247.009 119.513 246.728 119.617 246.447 119.717C246.109 119.838 245.767 119.964 245.425 120.085C245.11 120.198 244.794 120.31 244.469 120.419C244.331 120.471 244.188 120.518 244.045 120.566C243.708 120.683 243.366 120.8 243.024 120.913C242.773 120.999 242.518 121.082 242.258 121.168C241.903 121.285 241.544 121.402 241.181 121.519C240.683 121.68 240.181 121.836 239.675 121.996C239.056 122.187 238.433 122.378 237.797 122.568C237.767 122.577 237.736 122.586 237.702 122.594C236.971 122.815 236.226 123.028 235.473 123.244C235.097 123.348 234.721 123.457 234.34 123.561C234.316 123.566 234.293 123.573 234.271 123.582C233.872 123.691 233.474 123.799 233.072 123.912C231.956 124.206 230.818 124.505 229.667 124.796C229.576 124.817 229.489 124.839 229.398 124.865C212.805 129.017 192.446 132.042 169.916 133.502C160.046 134.139 149.757 134.477 139.186 134.477C128.52 134.477 118.144 134.135 108.197 133.485C48.8138 129.606 4.61865 114.837 4.61865 97.2072C4.62333 96.1345 4.78658 95.0684 5.10311 94.0436C5.1291 94.1173 5.15508 94.1866 5.18551 94.2603C11.3598 110.503 55.1789 123.63 112.035 126.833C120.745 127.327 129.767 127.582 139 127.582C148.273 127.582 157.329 127.322 166.074 126.828C222.882 123.613 266.658 110.481 272.811 94.2516C272.915 93.9916 273.005 93.7316 273.083 93.4716C273.522 94.6683 273.749 95.9324 273.754 97.2073Z" fill="#3F3D56"/>
<path d="M43.6647 92.5424C36.4635 92.5424 28.8101 90.9907 28.8101 88.1148C28.8101 85.2388 36.4635 83.6871 43.6647 83.6871C50.8659 83.6871 58.5194 85.2388 58.5194 88.1148C58.5194 90.9907 50.8659 92.5424 43.6647 92.5424ZM43.6647 84.5538C35.4206 84.5538 29.6754 86.4306 29.6754 88.1148C29.6754 89.7989 35.4206 91.6757 43.6647 91.6757C51.9088 91.6757 57.654 89.7989 57.654 88.1148C57.654 86.4306 51.9088 84.5538 43.6647 84.5538Z" fill="#3F3D56"/>
<path d="M74.3859 112.911C67.1847 112.911 59.5312 111.359 59.5312 108.483C59.5312 105.607 67.1847 104.056 74.3859 104.056C81.5871 104.056 89.2406 105.607 89.2406 108.483C89.2406 111.359 81.5871 112.911 74.3859 112.911ZM74.3859 104.922C66.1418 104.922 60.3966 106.799 60.3966 108.483C60.3966 110.167 66.1418 112.044 74.3859 112.044C82.6299 112.044 88.3752 110.167 88.3752 108.483C88.3752 106.799 82.63 104.922 74.3859 104.922Z" fill="#3F3D56"/>
<path d="M234.05 92.5424C226.849 92.5424 219.195 90.9907 219.195 88.1148C219.195 85.2388 226.849 83.6871 234.05 83.6871C241.251 83.6871 248.905 85.2388 248.905 88.1148C248.905 90.9907 241.251 92.5424 234.05 92.5424ZM234.05 84.5538C225.806 84.5538 220.061 86.4306 220.061 88.1148C220.061 89.7989 225.806 91.6757 234.05 91.6757C242.294 91.6757 248.039 89.7989 248.039 88.1148C248.039 86.4306 242.294 84.5538 234.05 84.5538Z" fill="#3F3D56"/>
<path d="M203.329 112.911C196.128 112.911 188.474 111.359 188.474 108.483C188.474 105.607 196.128 104.056 203.329 104.056C210.53 104.056 218.183 105.607 218.183 108.483C218.183 111.359 210.53 112.911 203.329 112.911ZM203.329 104.922C195.085 104.922 189.34 106.799 189.34 108.483C189.34 110.167 195.085 112.044 203.329 112.044C211.573 112.044 217.318 110.167 217.318 108.483C217.318 106.799 211.573 104.922 203.329 104.922Z" fill="#3F3D56"/>
<path d="M138.857 122.445C131.656 122.445 124.002 120.893 124.002 118.018C124.002 115.142 131.656 113.59 138.857 113.59C146.058 113.59 153.712 115.142 153.712 118.018C153.712 120.893 146.058 122.445 138.857 122.445ZM138.857 114.457C130.613 114.457 124.868 116.333 124.868 118.018C124.868 119.702 130.613 121.578 138.857 121.578C147.101 121.578 152.846 119.702 152.846 118.018C152.846 116.333 147.101 114.457 138.857 114.457Z" fill="#3F3D56"/>
<path d="M149.808 213.53C159.848 213.53 167.987 205.378 167.987 195.323C167.987 185.268 159.848 177.116 149.808 177.116C139.769 177.116 131.63 185.268 131.63 195.323C131.63 205.378 139.769 213.53 149.808 213.53Z" fill="#2F2E41"/>
<path d="M142.896 207.285L134.048 211.723L136.521 216.668L145.368 212.231L142.896 207.285Z" fill="#2F2E41"/>
<path d="M137.688 216.166C138.212 215.369 136.917 213.587 134.795 212.186C132.673 210.785 130.528 210.295 130.003 211.092C129.479 211.889 130.773 213.671 132.895 215.072C135.017 216.474 137.163 216.963 137.688 216.166Z" fill="#2F2E41"/>
<path d="M156.721 207.285L154.248 212.231L163.095 216.668L165.568 211.723L156.721 207.285Z" fill="#2F2E41"/>
<path d="M166.721 215.072C168.843 213.671 170.138 211.889 169.613 211.092C169.089 210.295 166.943 210.785 164.821 212.186C162.699 213.587 161.404 215.369 161.929 216.166C162.454 216.963 164.599 216.474 166.721 215.072Z" fill="#2F2E41"/>
<path d="M148.536 197.092C151.967 197.092 154.749 194.306 154.749 190.869C154.749 187.433 151.967 184.647 148.536 184.647C145.104 184.647 142.323 187.433 142.323 190.869C142.323 194.306 145.104 197.092 148.536 197.092Z" fill="white"/>
<path d="M150.047 189.677C150.852 188.87 150.848 187.557 150.037 186.745C149.225 185.933 147.915 185.928 147.11 186.735C146.304 187.541 146.309 188.854 147.12 189.666C147.931 190.479 149.241 190.483 150.047 189.677Z" fill="#3F3D56"/>
<path d="M164.149 175.516C164.422 168.775 158.622 163.066 151.193 162.764C143.765 162.462 137.522 167.681 137.248 174.421C136.975 181.162 142.138 182.693 149.567 182.996C156.995 183.298 163.875 182.256 164.149 175.516Z" fill="white"/>
<path d="M174.627 204.857C175.823 203.829 174.141 199.903 170.872 196.088C167.602 192.273 163.982 190.014 162.786 191.042C161.59 192.07 163.272 195.996 166.542 199.811C169.811 203.626 173.431 205.885 174.627 204.857Z" fill="#2F2E41"/>
<path d="M133.126 199.811C136.395 195.996 138.077 192.07 136.881 191.042C135.685 190.014 132.065 192.273 128.795 196.088C125.526 199.903 123.844 203.829 125.04 204.857C126.236 205.885 129.856 203.626 133.126 199.811Z" fill="#2F2E41"/>
<path d="M154.801 202.498C154.997 203.581 154.757 204.697 154.132 205.602C153.507 206.507 152.548 207.125 151.468 207.323C150.387 207.52 149.272 207.279 148.369 206.653C147.466 206.026 146.848 205.067 146.651 203.984L146.649 203.976C146.242 201.722 147.982 200.924 150.233 200.516C152.484 200.108 154.393 200.244 154.801 202.498Z" fill="white"/>
<path d="M119.096 214.69C118.867 214.69 118.647 214.599 118.484 214.436C118.322 214.274 118.231 214.053 118.231 213.824V162.686C118.231 162.456 118.322 162.235 118.484 162.073C118.647 161.91 118.867 161.819 119.096 161.819C119.326 161.819 119.546 161.91 119.708 162.073C119.871 162.235 119.962 162.456 119.962 162.686V213.824C119.962 214.053 119.871 214.274 119.708 214.436C119.546 214.599 119.326 214.69 119.096 214.69Z" fill="#CCCCCC"/>
<path d="M106.116 260.628C105.886 260.628 105.666 260.537 105.504 260.374C105.342 260.211 105.25 259.991 105.25 259.761V222.491C105.25 222.261 105.342 222.041 105.504 221.878C105.666 221.716 105.886 221.624 106.116 221.624C106.345 221.624 106.566 221.716 106.728 221.878C106.89 222.041 106.981 222.261 106.981 222.491V259.761C106.981 259.991 106.89 260.211 106.728 260.374C106.565 260.537 106.345 260.628 106.116 260.628Z" fill="#CCCCCC"/>
<path d="M139.433 229.858C139.204 229.858 138.984 229.767 138.821 229.605C138.659 229.442 138.568 229.222 138.568 228.992V177.854C138.568 177.624 138.659 177.403 138.821 177.241C138.984 177.078 139.204 176.987 139.433 176.987C139.663 176.987 139.883 177.078 140.045 177.241C140.207 177.403 140.299 177.624 140.299 177.854V228.992C140.299 229.222 140.207 229.442 140.045 229.605C139.883 229.767 139.663 229.858 139.433 229.858Z" fill="#CCCCCC"/>
<path d="M126.885 266.695C126.655 266.695 126.435 266.604 126.273 266.441C126.111 266.279 126.02 266.058 126.02 265.828V245.026C126.02 244.797 126.111 244.576 126.273 244.414C126.435 244.251 126.655 244.16 126.885 244.16C127.114 244.16 127.335 244.251 127.497 244.414C127.659 244.576 127.75 244.797 127.75 245.026V265.828C127.75 266.058 127.659 266.279 127.497 266.441C127.335 266.604 127.114 266.695 126.885 266.695Z" fill="#CCCCCC"/>
<path d="M144.625 160.085C144.396 160.085 144.176 159.994 144.013 159.832C143.851 159.669 143.76 159.449 143.76 159.219V138.417C143.76 138.187 143.851 137.966 144.013 137.804C144.176 137.641 144.396 137.55 144.625 137.55C144.855 137.55 145.075 137.641 145.237 137.804C145.399 137.966 145.491 138.187 145.491 138.417V159.219C145.491 159.449 145.399 159.669 145.237 159.832C145.075 159.994 144.855 160.085 144.625 160.085Z" fill="#CCCCCC"/>
<path d="M101.356 169.186C101.127 169.186 100.906 169.095 100.744 168.932C100.582 168.77 100.491 168.549 100.491 168.319V147.518C100.491 147.288 100.582 147.067 100.744 146.905C100.906 146.742 101.127 146.651 101.356 146.651C101.586 146.651 101.806 146.742 101.968 146.905C102.13 147.067 102.221 147.288 102.221 147.518V168.319C102.221 168.549 102.13 168.77 101.968 168.932C101.806 169.095 101.586 169.186 101.356 169.186Z" fill="#CCCCCC"/>
<path d="M176.645 171.353C176.415 171.353 176.195 171.262 176.033 171.099C175.87 170.937 175.779 170.716 175.779 170.486V149.684C175.779 149.455 175.87 149.234 176.033 149.072C176.195 148.909 176.415 148.818 176.645 148.818C176.874 148.818 177.094 148.909 177.257 149.072C177.419 149.234 177.51 149.455 177.51 149.684V170.486C177.51 170.716 177.419 170.937 177.257 171.099C177.094 171.262 176.874 171.353 176.645 171.353Z" fill="#CCCCCC"/>
<path d="M174.914 236.359C174.684 236.359 174.464 236.268 174.302 236.105C174.14 235.943 174.048 235.722 174.048 235.492V210.357C174.048 210.127 174.14 209.906 174.302 209.744C174.464 209.581 174.684 209.49 174.914 209.49C175.143 209.49 175.363 209.581 175.526 209.744C175.688 209.906 175.779 210.127 175.779 210.357V235.492C175.779 235.722 175.688 235.943 175.526 236.105C175.363 236.268 175.143 236.359 174.914 236.359Z" fill="#CCCCCC"/>
<path d="M157.606 258.461C157.377 258.461 157.156 258.37 156.994 258.207C156.832 258.045 156.741 257.824 156.741 257.594V220.324C156.741 220.094 156.832 219.874 156.994 219.711C157.156 219.549 157.377 219.458 157.606 219.458C157.836 219.458 158.056 219.549 158.218 219.711C158.38 219.874 158.471 220.094 158.471 220.324V257.594C158.471 257.824 158.38 258.045 158.218 258.207C158.056 258.37 157.836 258.461 157.606 258.461Z" fill="#CCCCCC"/>
<path d="M161.068 194.755C160.838 194.755 160.618 194.664 160.456 194.501C160.293 194.339 160.202 194.118 160.202 193.888V142.75C160.202 142.521 160.293 142.3 160.456 142.138C160.618 141.975 160.838 141.884 161.068 141.884C161.297 141.884 161.517 141.975 161.679 142.138C161.842 142.3 161.933 142.521 161.933 142.75V193.888C161.933 194.118 161.842 194.339 161.679 194.501C161.517 194.664 161.297 194.755 161.068 194.755Z" fill="#CCCCCC"/>
<path d="M267.161 303.574C268.4 302.535 266.726 298.49 263.423 294.538C260.119 290.586 256.437 288.225 255.198 289.263C253.96 290.302 255.634 294.348 258.937 298.299C262.241 302.251 265.923 304.613 267.161 303.574Z" fill="#2F2E41"/>
<path d="M259.038 299.08C262.292 289.301 257.016 278.731 247.252 275.471C237.488 272.212 226.935 277.497 223.68 287.276C220.426 297.055 225.703 307.625 235.466 310.884C245.23 314.144 255.783 308.859 259.038 299.08Z" fill="#2F2E41"/>
<path d="M249.247 307.826H243.585V317.985H249.247V307.826Z" fill="#2F2E41"/>
<path d="M237.924 307.826H232.263V317.985H237.924V307.826Z" fill="#2F2E41"/>
<path d="M244.529 319.875C247.135 319.875 249.247 319.081 249.247 318.103C249.247 317.124 247.135 316.331 244.529 316.331C241.924 316.331 239.812 317.124 239.812 318.103C239.812 319.081 241.924 319.875 244.529 319.875Z" fill="#2F2E41"/>
<path d="M233.206 319.639C235.812 319.639 237.924 318.845 237.924 317.867C237.924 316.888 235.812 316.095 233.206 316.095C230.601 316.095 228.489 316.888 228.489 317.867C228.489 318.845 230.601 319.639 233.206 319.639Z" fill="#2F2E41"/>
<path d="M235.508 269.716C237.172 263.005 244.517 259.055 251.914 260.895C259.31 262.734 263.957 269.666 262.293 276.378C260.629 283.089 255.109 283.111 247.712 281.272C240.316 279.432 233.844 276.428 235.508 269.716Z" fill="#CCCCCC"/>
<path d="M228.789 288.517C229.481 287.055 226.273 284.079 221.624 281.871C216.974 279.662 212.644 279.057 211.952 280.518C211.259 281.98 214.467 284.956 219.117 287.164C223.766 289.373 228.097 289.978 228.789 288.517Z" fill="#2F2E41"/>
<path d="M238.573 295.462C242.005 295.462 244.786 292.676 244.786 289.239C244.786 285.803 242.005 283.017 238.573 283.017C235.142 283.017 232.36 285.803 232.36 289.239C232.36 292.676 235.142 295.462 238.573 295.462Z" fill="white"/>
<path d="M236.02 289.083C237.163 289.083 238.091 288.155 238.091 287.009C238.091 285.864 237.163 284.935 236.02 284.935C234.876 284.935 233.949 285.864 233.949 287.009C233.949 288.155 234.876 289.083 236.02 289.083Z" fill="#3F3D56"/>
<path d="M238.52 304.832C239.954 304.832 241.116 303.668 241.116 302.232C241.116 300.796 239.954 299.631 238.52 299.631C237.086 299.631 235.924 300.796 235.924 302.232C235.924 303.668 237.086 304.832 238.52 304.832Z" fill="white"/>
<path d="M294.567 320H192.452C192.337 320 192.227 319.954 192.146 319.873C192.065 319.792 192.019 319.682 192.019 319.567C192.019 319.452 192.065 319.341 192.146 319.26C192.227 319.179 192.337 319.133 192.452 319.133H294.567C294.682 319.133 294.792 319.179 294.873 319.26C294.954 319.341 295 319.452 295 319.567C295 319.682 294.954 319.792 294.873 319.873C294.792 319.954 294.682 320 294.567 320Z" fill="#3F3D56"/>
</g>
<defs>
<filter id="filter0_d_22_29" x="0" y="0" width="299" height="328" filterUnits="userSpaceOnUse" color-interpolation-filters="sRGB">
<feFlood flood-opacity="0" result="BackgroundImageFix"/>
<feColorMatrix in="SourceAlpha" type="matrix" values="0 0 0 0 0 0 0 0 0 0 0 0 0 0 0 0 0 0 127 0" result="hardAlpha"/>
<feOffset dy="4"/>
<feGaussianBlur stdDeviation="2"/>
<feComposite in2="hardAlpha" operator="out"/>
<feColorMatrix type="matrix" values="0 0 0 0 0 0 0 0 0 0 0 0 0 0 0 0 0 0 0.25 0"/>
<feBlend mode="normal" in2="BackgroundImageFix" result="effect1_dropShadow_22_29"/>
<feBlend mode="normal" in="SourceGraphic" in2="effect1_dropShadow_22_29" result="shape"/>
</filter>
<clipPath id="clip0_22_29">
<rect width="291" height="320" fill="white" transform="translate(4)"/>
</clipPath>
</defs>
</svg>
