<svg width="16" height="16" viewBox="0 0 16 16" fill="none" xmlns="http://www.w3.org/2000/svg">
<path d="M0.183289 1.06829C0.125179 1.01018 0.0790843 0.941193 0.0476354 0.865269C0.0161866 0.789344 6.12287e-10 0.707969 0 0.625789C-6.12288e-10 0.54361 0.0161866 0.462234 0.0476354 0.38631C0.0790843 0.310386 0.125179 0.241399 0.183289 0.183289C0.241399 0.125179 0.310386 0.0790843 0.38631 0.0476354C0.462234 0.0161866 0.54361 -6.12288e-10 0.625789 0C0.707969 6.12287e-10 0.789344 0.0161866 0.865269 0.0476354C0.941193 0.0790843 1.01018 0.125179 1.06829 0.183289L7.50079 6.61704L13.9333 0.183289C13.9914 0.125179 14.0604 0.0790843 14.1363 0.0476354C14.2122 0.0161866 14.2936 0 14.3758 0C14.458 0 14.5393 0.0161866 14.6153 0.0476354C14.6912 0.0790843 14.7602 0.125179 14.8183 0.183289C14.8764 0.241399 14.9225 0.310386 14.9539 0.38631C14.9854 0.462234 15.0016 0.54361 15.0016 0.625789C15.0016 0.707969 14.9854 0.789344 14.9539 0.865269C14.9225 0.941193 14.8764 1.01018 14.8183 1.06829L8.38454 7.50079L14.8183 13.9333C14.8764 13.9914 14.9225 14.0604 14.9539 14.1363C14.9854 14.2122 15.0016 14.2936 15.0016 14.3758C15.0016 14.458 14.9854 14.5393 14.9539 14.6153C14.9225 14.6912 14.8764 14.7602 14.8183 14.8183C14.7602 14.8764 14.6912 14.9225 14.6153 14.9539C14.5393 14.9854 14.458 15.0016 14.3758 15.0016C14.2936 15.0016 14.2122 14.9854 14.1363 14.9539C14.0604 14.9225 13.9914 14.8764 13.9333 14.8183L7.50079 8.38454L1.06829 14.8183C1.01018 14.8764 0.941193 14.9225 0.865269 14.9539C0.789344 14.9854 0.707969 15.0016 0.625789 15.0016C0.54361 15.0016 0.462234 14.9854 0.38631 14.9539C0.310386 14.9225 0.241399 14.8764 0.183289 14.8183C0.125179 14.7602 0.0790843 14.6912 0.0476354 14.6153C0.0161866 14.5393 0 14.458 0 14.3758C0 14.2936 0.0161866 14.2122 0.0476354 14.1363C0.0790843 14.0604 0.125179 13.9914 0.183289 13.9333L6.61704 7.50079L0.183289 1.06829Z" fill="#0B131B"/>
</svg>
