<svg width="253" height="253" viewBox="0 0 253 253" fill="none" xmlns="http://www.w3.org/2000/svg">
<path d="M126.45 191.08C90.8136 191.08 61.82 162.089 61.82 126.45C61.82 90.8136 90.8136 61.8201 126.45 61.8201C162.089 61.8201 191.08 90.8136 191.08 126.45C191.08 162.089 162.089 191.08 126.45 191.08ZM126.45 67.4401C93.9102 67.4401 67.44 93.9103 67.44 126.45C67.44 158.987 93.9102 185.46 126.45 185.46C158.987 185.46 185.46 158.987 185.46 126.45C185.46 93.9103 158.987 67.4401 126.45 67.4401Z" fill="#F0F0F0"/>
<path d="M108.612 49.4841C107.792 49.4841 107.002 49.1272 106.462 48.4837C105.791 47.6857 105.617 46.5814 106.01 45.6147L123.848 1.75063C124.278 0.69407 125.306 0 126.45 0C127.594 0 128.622 0.69407 129.052 1.75063L146.893 45.6147C147.286 46.5814 147.109 47.6857 146.438 48.4837C145.769 49.2818 144.707 49.6471 143.689 49.4195C132.323 46.9439 120.569 46.9439 109.208 49.4195C109.011 49.4644 108.812 49.4841 108.612 49.4841ZM126.45 41.9336C130.881 41.9336 135.335 42.2821 139.747 42.9705L126.45 10.2677L113.153 42.9677C117.562 42.2793 122.019 41.9336 126.45 41.9336Z" fill="#F0F0F0"/>
<path d="M126.45 252.9C125.306 252.9 124.278 252.209 123.848 251.149L106.01 207.285C105.617 206.319 105.791 205.214 106.462 204.416C107.134 203.618 108.191 203.258 109.211 203.48C120.571 205.959 132.326 205.959 143.692 203.48C144.712 203.256 145.772 203.621 146.44 204.416C147.112 205.211 147.289 206.319 146.896 207.285L129.055 251.149C128.622 252.209 127.594 252.9 126.45 252.9ZM113.153 209.932L126.45 242.632L139.747 209.929C130.924 211.306 121.974 211.303 113.153 209.932Z" fill="#F0F0F0"/>
<path d="M46.6741 147.101C46.3172 147.101 45.9575 147.033 45.6147 146.895L1.75063 129.055C0.69407 128.622 0 127.594 0 126.45C0 125.306 0.69407 124.278 1.75344 123.848L45.6175 106.01C46.5814 105.617 47.6885 105.791 48.4865 106.462C49.2846 107.134 49.6443 108.193 49.4223 109.211C48.1831 114.89 47.5536 120.692 47.5536 126.45C47.5536 132.208 48.1831 138.007 49.4223 143.692C49.6443 144.709 49.2846 145.769 48.4865 146.44C47.9695 146.876 47.326 147.101 46.6741 147.101ZM10.2677 126.45L42.9677 139.747C42.2793 135.335 41.9308 130.881 41.9308 126.45C41.9308 122.019 42.2793 117.562 42.9677 113.153L10.2677 126.45Z" fill="#F0F0F0"/>
<path d="M206.226 147.101C205.577 147.101 204.93 146.876 204.416 146.44C203.618 145.771 203.259 144.712 203.481 143.692C204.717 138.01 205.346 132.208 205.346 126.45C205.346 120.692 204.717 114.89 203.481 109.211C203.259 108.193 203.618 107.134 204.416 106.462C205.211 105.791 206.316 105.617 207.285 106.01L251.149 123.848C252.209 124.278 252.9 125.306 252.9 126.45C252.9 127.594 252.209 128.622 251.149 129.052L207.285 146.893C206.942 147.03 206.583 147.101 206.226 147.101ZM209.932 113.153C210.618 117.565 210.966 122.019 210.966 126.45C210.966 130.881 210.618 135.335 209.929 139.747L242.632 126.45L209.932 113.153Z" fill="#F0F0F0"/>
<path d="M57.428 85.4662C57.3493 85.4662 57.2678 85.4634 57.1891 85.4549C56.1494 85.365 55.2446 84.7075 54.8399 83.7493L36.4373 40.1184C35.9933 39.0647 36.2321 37.8479 37.0386 37.0386C37.8479 36.2294 39.0674 35.9961 40.1184 36.4373L83.7492 54.84C84.7102 55.2446 85.3678 56.1495 85.4549 57.1863C85.5448 58.226 85.0503 59.2292 84.1735 59.7912C79.2757 62.9356 74.7319 66.5914 70.6602 70.6603C66.5914 74.732 62.9327 79.2758 59.7912 84.1736C59.2713 84.9829 58.3777 85.4662 57.428 85.4662ZM44.2968 44.2969L58.0152 76.8226C60.651 73.2146 63.5538 69.8201 66.6841 66.687C69.8172 63.5538 73.2117 60.6511 76.8198 58.0181L44.2968 44.2969Z" fill="#F0F0F0"/>
<path d="M213.875 216.685C213.507 216.685 213.136 216.614 212.782 216.466L169.154 198.063C168.193 197.655 167.535 196.751 167.448 195.714C167.358 194.674 167.853 193.671 168.729 193.106C173.633 189.956 178.179 186.297 182.24 182.237C186.3 178.179 189.959 173.63 193.109 168.726C193.674 167.85 194.663 167.352 195.717 167.445C196.753 167.532 197.658 168.193 198.066 169.151L216.468 212.779C216.91 213.833 216.673 215.052 215.864 215.859C215.325 216.401 214.605 216.685 213.875 216.685ZM176.077 194.885L208.6 208.603L194.882 176.08C192.243 179.691 189.338 183.088 186.21 186.213C183.086 189.341 179.688 192.243 176.077 194.885Z" fill="#F0F0F0"/>
<path d="M195.472 85.4634C194.519 85.4634 193.629 84.9829 193.106 84.1736C189.956 79.2674 186.297 74.7236 182.237 70.6603C178.171 66.5943 173.624 62.9356 168.726 59.7912C167.847 59.2292 167.355 58.2261 167.445 57.1864C167.532 56.1467 168.193 55.2447 169.151 54.84L212.779 36.4373C213.827 35.9934 215.049 36.2294 215.859 37.0387C216.668 37.848 216.904 39.0647 216.463 40.1184L198.06 83.7493C197.653 84.7103 196.748 85.3679 195.711 85.455C195.632 85.4606 195.554 85.4634 195.472 85.4634ZM186.213 66.687C189.341 69.8145 192.243 73.2118 194.885 76.8227L208.603 44.2969L176.08 58.0153C179.685 60.6511 183.08 63.5566 186.213 66.687Z" fill="#F0F0F0"/>
<path d="M39.0224 216.685C38.2918 216.685 37.5725 216.398 37.0358 215.861C36.2265 215.052 35.9876 213.835 36.4344 212.782L54.8371 169.154C55.2418 168.193 56.1466 167.535 57.1835 167.448C58.2232 167.327 59.2263 167.852 59.7883 168.729C62.9327 173.624 66.5914 178.171 70.6574 182.24C74.7207 186.303 79.2645 189.959 84.1707 193.109C85.0474 193.674 85.542 194.677 85.4521 195.716C85.3622 196.753 84.7046 197.658 83.7464 198.066L40.1155 216.468C39.7615 216.614 39.3934 216.685 39.0224 216.685ZM58.0152 176.077L44.2968 208.6L76.8226 194.882C73.2089 192.246 69.8144 189.338 66.6869 186.21C63.5566 183.08 60.651 179.685 58.0152 176.077Z" fill="#F0F0F0"/>
</svg>
