<svg xmlns="http://www.w3.org/2000/svg" version="1.1"
    xmlns:xlink="http://www.w3.org/1999/xlink"
    xmlns:svgjs="http://svgjs.com/svgjs" width="512" height="512" x="0" y="0" viewBox="0 0 504.5 504.5" style="enable-background:new 0 0 512 512" xml:space="preserve" class="">
    <g>
        <g>
            <path d="m327.863 187.084-5.764 8.632c-4.486 6.718-7.029 14.545-7.347 22.617l-.408 10.351c-.699 17.722-12.008 33.277-28.65 39.408l-9.689 3.569c-7.607 2.802-14.287 7.659-19.3 14.03l-6.349 8.07c-10.984 13.962-29.309 19.914-46.402 15.072l-9.871-2.796c-7.812-2.213-16.085-2.213-23.897 0l-9.871 2.796c-17.092 4.842-35.417-1.11-46.402-15.072l-6.35-8.071c-5.012-6.371-11.693-11.227-19.299-14.029l-9.689-3.569c-16.643-6.131-27.951-21.686-28.65-39.408l-.408-10.35c-.318-8.072-2.861-15.899-7.347-22.617l-5.765-8.633c-9.842-14.738-9.842-33.952 0-48.69l5.764-8.632c4.486-6.718 7.029-14.545 7.347-22.617l.408-10.351c.699-17.722 12.007-33.277 28.65-39.408l9.689-3.569c7.607-2.802 14.287-7.659 19.3-14.03l6.349-8.07c10.984-13.962 29.309-19.914 46.401-15.073l9.871 2.796c7.812 2.213 16.085 2.213 23.897 0l6.627-1.878 3.243.081c17.092-4.842 35.417 1.11 46.402 15.072l6.35 8.071c5.012 6.371 11.693 11.227 19.299 14.029l9.689 3.569c16.643 6.131 26.951 20.686 27.65 38.408l.408 10.35c.318 8.072 3.861 16.899 8.347 23.617l4.765 7.633c9.843 14.74 10.843 33.954 1.002 48.692z" fill="#ffd271" data-original="#ffd271" class=""></path>
            <path d="m307.16 478.514-31.501 10h-95.849l-36.953-10-28.448 10h-42.579c-8.38 0-15.419-6.303-16.341-14.633l-31.928-288.583 6.694-19.883 313.759-10z" fill="#fe646f" data-original="#fe646f"></path>
            <path d="m179.81 488.518h-65.4l-36.85-333.1h65.4l7.143 64.564.217 92.363 24.34 129.623z" fill="#f2fbff" data-original="#f2fbff" class=""></path>
            <path d="m169.41 394.538c-11.89-23.47-18.59-50.01-18.59-78.12 0-14.66 1.82-28.89 5.25-42.47z" fill="#f2fbff" data-original="#f2fbff" class=""></path>
            <path d="m96.882 113.847c-2.552 0-5.039-1.302-6.443-3.652-3.729-6.236-4.808-13.552-3.034-20.598 1.773-7.047 6.184-12.981 12.421-16.71 12.872-7.697 29.61-3.487 37.308 9.387 2.126 3.555.968 8.16-2.587 10.286s-8.161.967-10.286-2.588c-3.453-5.774-10.961-7.664-16.737-4.211-2.798 1.673-4.776 4.335-5.571 7.496-.796 3.161-.312 6.442 1.36 9.24 2.126 3.555.968 8.16-2.587 10.286-1.207.721-2.535 1.064-3.844 1.064z" fill="#ffc55e" data-original="#ffc55e" class=""></path>
            <path d="m216.511 84.031c-.909 0-1.833-.166-2.73-.518-3.857-1.509-5.761-5.859-4.252-9.717 1.188-3.036 1.122-6.352-.185-9.338-1.308-2.986-3.699-5.284-6.734-6.472-3.039-1.188-6.354-1.123-9.339.185-2.985 1.307-5.284 3.698-6.472 6.734-1.508 3.858-5.855 5.763-9.717 4.253-3.857-1.509-5.761-5.859-4.252-9.717 2.646-6.767 7.771-12.099 14.427-15.012 6.658-2.913 14.051-3.059 20.816-.413 6.767 2.647 12.099 7.771 15.012 14.427 2.913 6.657 3.059 14.05.412 20.817-1.158 2.961-3.989 4.771-6.986 4.771z" fill="#ffc55e" data-original="#ffc55e" class=""></path>
            <path d="m156.632 132.777c-3.317 0-6.352-2.218-7.244-5.576-1.865-7.023-.884-14.352 2.763-20.637s9.523-10.773 16.547-12.638c7.021-1.865 14.35-.884 20.636 2.763 6.285 3.647 10.773 9.523 12.639 16.546 1.062 4.003-1.32 8.11-5.324 9.173-4.004 1.066-8.109-1.32-9.174-5.324-.836-3.15-2.85-5.786-5.669-7.422s-6.108-2.075-9.257-1.24c-3.151.837-5.787 2.851-7.424 5.67-1.636 2.819-2.075 6.107-1.238 9.256 1.064 4.003-1.32 8.111-5.323 9.174-.647.173-1.294.255-1.932.255z" fill="#ffc55e" data-original="#ffc55e" class=""></path>
            <path d="m327.86 187.088-5.76 8.63c-4.49 6.72-7.03 14.54-7.35 22.62l-.41 10.35c-.7 17.72-12 33.27-28.65 39.4l-9.69 3.57c-7.6 2.81-14.28 7.66-19.3 14.03l-6.35 8.07c-10.98 13.97-29.3 19.92-46.4 15.08l-3.24-.92c7.59-2.72 14.44-7.54 19.64-14.16l6.35-8.07c5.02-6.37 11.7-11.22 19.3-14.03l9.69-3.57c16.65-6.13 27.95-21.68 28.65-39.4l.41-10.35c.32-8.08 2.86-15.9 7.35-22.62l5.76-8.63c9.84-14.74 9.84-33.96 0-48.69l-5.76-8.64c-4.49-6.71-7.03-14.54-7.35-22.61l-.41-10.35c-.7-17.73-12-33.28-28.65-39.41l-9.69-3.57c-7.6-2.8-14.28-7.66-19.3-14.03l-6.35-8.07c-5.2-6.61-12.05-11.43-19.64-14.15l3.24-.92c17.1-4.85 35.42 1.11 46.4 15.07l6.35 8.07c5.02 6.37 11.7 11.23 19.3 14.03l9.69 3.57c16.65 6.13 27.95 21.68 28.65 39.41l.41 10.35c.32 8.07 2.86 15.9 7.35 22.61l5.76 8.64c9.84 14.73 9.84 33.95 0 48.69z" fill="#ffc55e" data-original="#ffc55e" class=""></path>
            <path d="m346.249 185.294-135.324-10-30.005 10h-162.902c-9.951 0-18.018-8.068-18.018-18.019 0-9.951 8.067-18.019 18.018-18.019h229.132l20.825 10 78.274-10c9.951 0 18.018 8.067 18.018 18.019.001 9.951-8.066 18.019-18.018 18.019z" fill="#95c7f9" data-original="#95c7f9" class=""></path>
            <path d="m504.5 481.778c0 4.15-3.36 7.5-7.5 7.5h-164c22.01-1.13 35.054-6.39 54.144-15h109.856c4.14 0 7.5 3.36 7.5 7.5z" fill="#1a4c65" data-original="#1a4c65"></path>
            <path d="m305.21 488.518h-30c-24.015-2.578-46.559-20.07-66.609-31.449-12.343-7.005-23.74-5.483-33.953-15.196-33.159-31.535-53.829-76.082-53.829-125.455 0-35.673 10.79-68.825 29.289-96.37 3.121-4.647 16.461-9.135 20.006-13.448 6.314-7.682 3.277-14.81 10.805-21.302h30c-12.813 11.048-23.988 13.942-33.113 28.268-9.76 15.324-17.174 42.286-21.739 60.382-3.428 13.589 23.742 27.822 23.742 42.475 0 28.174-22.259 54.771-10.318 78.281 11.964 23.555 29.158 54.006 50.054 69.823 24.34 18.423 53.7 20.559 85.665 23.991z" fill="#dff6fd" data-original="#dff6fd"></path>
            <path d="m305.21 488.518h-30c-38.8-4.17-73.76-21.16-100.56-46.65l-5.24-47.33c9.701 19.155 40.683 22.367 56.479 36.604 26.325 23.729 42.152 53.382 79.321 57.376z" fill="#ff555a" data-original="#ff555a"></path>
            <path d="m156.07 273.948-5.96-53.89c8.68-12.93 19.06-24.62 30.81-34.76h30c-11.741 10.126-5.513 34.726-14.186 47.63-10.916 16.241-35.743 21.505-40.664 41.02z" fill="#ff555a" data-original="#ff555a"></path>
            <path d="m278.84 149.258h-30c-6.35 1.71-12.56 3.77-18.6 6.16-18.15 7.18-34.79 17.34-49.32 29.88h30z" fill="#4ca3f6" data-original="#4ca3f6"></path>
            <path d="m496 316.422c0 95.596-76.496 172.092-172.092 172.092-4.826 0-9.606.803-14.332.415-88.891-7.286-158.76-81.737-158.76-172.507 0-90.745 69.831-165.181 158.688-172.501 4.75-.391 9.553.409 14.404.409 95.596 0 172.092 76.496 172.092 172.092z" fill="#275e7c" data-original="#275e7c"></path>
            <g fill="#f2fbff">
                <path d="m429.657 326.45c-9.599 3.119-19.505 3.637-28.254.297-11.589-4.423-21.149-13.859-25.28-26.574-7.028-21.629 4.229-44.81 25.247-52.818.667-.254 1.344.507 2.03.284 22.315-7.251 45.284 3.962 52.534 26.277s-3.962 45.283-26.277 52.534z" fill="#f2fbff" data-original="#f2fbff" class=""></path>
                <path d="m347.183 419.655c-13.792-18.983-9.584-45.551 9.399-59.343 3.143-2.283 6.493-4.073 9.96-5.384 17.47-6.609 37.875-.056 49.384 15.784 4.683 6.445 6.29 13.534 6.949 20.626 1.282 13.797-3.811 27.608-16.348 36.717-12.01 8.726-27.057 11.246-39.983 6.379-7.505-2.828-14.295-7.807-19.361-14.779z" fill="#f2fbff" data-original="#f2fbff" class=""></path>
                <path d="m234.005 369.711c5.095-7.013 11.934-12.01 19.491-14.827 12.897-4.808 27.883-2.269 39.852 6.428 10.614 7.712 15.609 18.793 16.421 30.382.64 9.138-.942 18.592-7.022 26.961-11.478 15.799-31.807 22.363-49.247 15.835-3.515-1.316-6.912-3.123-10.096-5.436-18.982-13.792-23.19-40.361-9.399-59.343z" fill="#f2fbff" data-original="#f2fbff" class=""></path>
                <path d="m246.531 247.638c22.315 7.251 33.528 30.219 26.277 52.534s-30.219 33.528-52.534 26.277c-.632-.205-1.256.576-1.871.344-21.12-7.951-32.451-31.195-25.406-52.878 4.174-12.846 13.888-22.344 25.638-26.709 8.66-3.216 18.427-2.644 27.896.432z" fill="#f2fbff" data-original="#f2fbff" class=""></path>
                <path d="m366.45 220.52c0 23.464-18.021 41.485-41.485 41.485-5.279 0-10.333.037-14.996-1.722-16.064-6.061-27.489-21.578-27.489-39.763 0-18.186 11.426-33.703 27.491-39.763 4.663-1.759 9.716-1.722 14.994-1.722 23.464 0 41.485 18.021 41.485 41.485z" fill="#f2fbff" data-original="#f2fbff" class=""></path>
            </g>
            <path d="m344.253 316.422c0 11.788-8.556 20.344-20.344 20.344-3.215 0-6.263.289-8.998-.983-7.292-3.395-12.347-10.788-12.347-19.361 0-8.514 4.985-15.865 12.197-19.29 2.773-1.317 5.874-1.054 9.148-1.054 11.788-.001 20.344 8.556 20.344 20.344z" fill="#95c7f9" data-original="#95c7f9" class=""></path>
            <path d="m497 316.418c0 95.6-77.5 173.1-173.09 173.1-5.05 0-10.06-.22-15-.65 88.57-7.6 158.09-81.9 158.09-172.45 0-90.54-69.52-164.84-158.09-172.44 4.94-.43 9.95-.65 15-.65 95.59 0 173.09 77.5 173.09 173.09z" fill="#1a4c65" data-original="#1a4c65"></path>
            <path d="m429.66 327.448c-9.56 3.1-19.41 2.64-28.13-.66 21.12-7.95 32.44-31.19 25.4-52.87-4.14-12.77-13.75-22.22-25.4-26.62.62-.24 1.24-.46 1.87-.66 22.32-7.25 46.28 4.96 53.53 27.28 7.25 22.31-4.96 46.28-27.27 53.53z" fill="#dff6fd" data-original="#dff6fd"></path>
            <path d="m406.53 429.058c-12.01 8.72-27.05 10.24-39.97 5.38 3.47-1.3 6.83-3.09 9.97-5.38 18.98-13.8 23.19-40.36 9.4-59.35-5.07-6.98-11.88-11.96-19.39-14.78 17.47-6.61 37.87-1.06 49.39 14.78 13.79 18.99 9.58 45.55-9.4 59.35z" fill="#dff6fd" data-original="#dff6fd"></path>
            <path d="m293.487 429.058c-12.01 8.72-27.05 10.24-39.97 5.38 3.47-1.3 6.83-3.09 9.97-5.38 18.98-13.8 23.19-40.36 9.4-59.35-5.07-6.98-11.88-11.96-19.39-14.78 17.47-6.61 37.87-1.06 49.39 14.78 13.79 18.99 9.58 45.55-9.4 59.35z" fill="#dff6fd" data-original="#dff6fd"></path>
            <path d="m273.81 300.168c-7.25 22.32-31.22 34.53-53.54 27.28-.63-.21-1.26-.42-1.87-.66 11.65-4.4 21.27-13.85 25.41-26.62 7.04-21.68-4.28-44.93-25.41-52.87 8.71-3.3 18.57-3.77 28.13-.66 22.32 7.25 34.53 31.22 27.28 53.53z" fill="#dff6fd" data-original="#dff6fd"></path>
            <path d="m367.45 220.518c0 23.47-19.02 42.49-42.48 42.49-5.28 0-10.34-.96-15-2.73 16.06-6.06 27.48-21.57 27.48-39.76 0-18.18-11.42-33.69-27.48-39.76 4.66-1.76 9.72-2.72 15-2.72 23.46 0 42.48 19.02 42.48 42.48z" fill="#dff6fd" data-original="#dff6fd"></path>
            <path d="m345.25 316.418c0 11.79-9.55 21.35-21.34 21.35-3.22 0-6.27-.71-9-1.99 7.29-3.39 12.34-10.79 12.34-19.36 0-8.56-5.05-15.96-12.34-19.35 2.73-1.28 5.78-1.99 9-1.99 11.79 0 21.34 9.56 21.34 21.34z" fill="#4ca3f6" data-original="#4ca3f6"></path>
        </g>
    </g>
</svg>