<svg xmlns="http://www.w3.org/2000/svg" version="1.1"
    xmlns:xlink="http://www.w3.org/1999/xlink"
    xmlns:svgjs="http://svgjs.com/svgjs" width="512" height="512" x="0" y="0" viewBox="0 0 512 512" style="enable-background:new 0 0 512 512" xml:space="preserve" class="">
    <g>
        <g>
            <path d="m0 347.335v29.907c0 8.339 6.76 15.098 15.098 15.098h405.673v-67.356l-210.386-32.049z" fill="#5b7184" data-original="#5b7184" class=""></path>
            <path d="m420.772 392.341v-67.373l-210.274-32.033v99.406z" fill="#3a495b" data-original="#3a495b"></path>
            <path d="m0 130.311v184.54l420.772 10.134v-194.674l-210.386-19.348z" fill="#6d889b" data-original="#6d889b" class=""></path>
            <path d="m420.772 324.985v-194.684l-210.274-19.338v214.022z" fill="#5b7184" data-original="#5b7184" class=""></path>
            <path d="m224.966 65.221 2.74 65.09h93.771l58.204-65.09z" fill="#e2edfb" data-original="#e2edfb"></path>
            <path d="m331.2 130.357.022-.046h-103.516" fill="#6d889b" data-original="#6d889b" class=""></path>
            <path d="m197.59 65.22-73.464-65.22h-109.028c-8.338 0-15.098 6.76-15.098 15.098v115.213h124.19z" fill="#f6fafe" data-original="#f6fafe" class=""></path>
            <path d="m321.413 0h-93.771l-2.676 65.22v.001h154.715v-.001z" fill="#f6fafe" data-original="#f6fafe" class=""></path>
            <path d="m156.479 65.221-.001-.001-32.288 65.091h103.516l32.288-65.09z" fill="#5b7184" data-original="#5b7184" class=""></path>
            <path d="m227.642 0h-103.516l32.352 65.22.001.001h103.515l.001-.001z" fill="#6d889b" data-original="#6d889b" class=""></path>
            <g>
                <path d="m136.505 282.26h-93.156c-8.97 0-16.242-7.272-16.242-16.242s7.272-16.242 16.242-16.242h93.155c8.97 0 16.242 7.272 16.242 16.242.001 8.97-7.271 16.242-16.241 16.242z" fill="#f6fafe" data-original="#f6fafe" class=""></path>
            </g>
            <path d="m0 314.851h420.659v32.484h-420.659z" fill="#f6fafe" data-original="#f6fafe" class=""></path>
            <path d="m210.386 0v65.221h49.608l.001-.001-32.352-65.22z" fill="#5b7184" data-original="#5b7184" class=""></path>
            <path d="m210.386 130.311h17.32l32.288-65.09h-49.608z" fill="#3a495b" data-original="#3a495b"></path>
            <path d="m210.498 314.851h210.161v32.484h-210.161z" fill="#e2edfb" data-original="#e2edfb"></path>
            <path d="m353.765 65.221-32.288 65.09h99.295v-65.09z" fill="#3a495b" data-original="#3a495b"></path>
            <path d="m321.413 0 32.352 65.22.001.001h67.005v-50.123c.001-8.338-6.759-15.098-15.098-15.098z" fill="#5b7184" data-original="#5b7184" class=""></path>
            <circle cx="66.401" cy="65.221" fill="#6d889b" r="15" data-original="#6d889b" class=""></circle>
            <path d="m480.187 224.779c-2.347-19.501-18.937-34.618-39.07-34.618-9.632 0-18.453 3.464-25.294 9.209-6.138-13.753-19.923-23.343-35.957-23.343s-29.818 9.59-35.957 23.343c-6.842-5.744-15.662-9.209-25.294-9.209-19.915 0-36.366 14.792-38.991 33.986-1.131.193-2.244.436-3.34.723-17.889 3.711-31.334 19.557-31.334 38.546 0 11.104 4.604 21.128 11.999 28.285 1.224 1.258 2.589 2.437 4.128 3.495h.013l122.374 69.172 112.333-68.849c9.743-7.166 16.203-19.081 16.203-32.103 0-19.157-13.686-35.112-31.813-38.637z" fill="#fdf3b5" data-original="#fdf3b5"></path>
            <path d="m480.187 224.77c-2.347-19.501-18.937-34.618-39.07-34.618-9.632 0-18.453 3.464-25.294 9.209-6.107-13.683-19.785-23.237-35.714-23.334v186.436l3.356 1.897 112.333-68.849c9.742-7.167 16.202-19.082 16.202-32.104 0-19.158-13.686-35.112-31.813-38.637z" fill="#ffe45c" data-original="#ffe45c"></path>
            <path d="m292.967 257.112c-10.319-.037-20.012 3.828-27.539 10.24-11.289 9.617-16.375 24.677-13.918 39.301l31.542 190.003c1.47 8.853 9.127 15.344 18.101 15.344h47.475l12.053-127.444-25.178-87.386c-1.326-22.344-19.858-40.058-42.536-40.058z" fill="#ff8d95" data-original="#ff8d95"></path>
            <path d="m484.412 262.657c-6.206-3.529-13.386-5.544-21.035-5.544-23.538 0-42.62 19.082-42.62 42.62h-.098l-28.498 84.824 17.428 127.443h48.203c9.067 0 16.775-6.623 18.139-15.586l28.884-189.687c2.954-17.494-4.98-35.301-20.403-44.07z" fill="#ff5f66" data-original="#ff5f66"></path>
            <path d="m379.426 257.112c-24.87 0-42.597 17.714-43.922 40.059v-.001l13.124 214.83h60.961l11.07-212.268c0-23.538-17.695-42.62-41.233-42.62z" fill="#ff5f66" data-original="#ff5f66"></path>
            <path d="m380.109 257.112v254.87h29.48l11.07-212.268c0-23.308-17.355-42.234-40.55-42.602z" fill="#fa184b" data-original="#fa184b"></path>
        </g>
    </g>
</svg>