<svg xmlns="http://www.w3.org/2000/svg" version="1.1"
    xmlns:xlink="http://www.w3.org/1999/xlink"
    xmlns:svgjs="http://svgjs.com/svgjs" width="20" height="20" x="0" y="0" viewBox="0 0 512 512" style="enable-background:new 0 0 512 512" xml:space="preserve" class="">
    <g>
        <path d="m16 133.612h260.513c7.186 29.034 33.45 50.627 64.673 50.627s57.487-21.593 64.673-50.627h90.141c8.836 0 16-7.164 16-16s-7.164-16-16-16h-90.142c-7.185-29.034-33.449-50.628-64.673-50.628s-57.488 21.594-64.673 50.628h-260.512c-8.836 0-16 7.164-16 16s7.164 16 16 16zm325.186-50.628c19.094 0 34.628 15.534 34.628 34.627 0 19.094-15.534 34.628-34.628 34.628s-34.628-15.534-34.628-34.628c0-19.093 15.534-34.627 34.628-34.627zm-325.186 189.016h90.142c7.186 29.034 33.449 50.627 64.673 50.627s57.487-21.593 64.673-50.627h260.512c8.836 0 16-7.164 16-16s-7.164-16-16-16h-260.513c-7.186-29.034-33.449-50.628-64.673-50.628s-57.487 21.594-64.673 50.628h-90.141c-8.836 0-16 7.164-16 16s7.163 16 16 16zm154.814-50.628c19.094 0 34.628 15.534 34.628 34.628 0 19.093-15.534 34.627-34.628 34.627s-34.628-15.534-34.628-34.627c0-19.094 15.534-34.628 34.628-34.628zm325.186 157.016h-90.142c-7.186-29.034-33.449-50.628-64.673-50.628s-57.487 21.594-64.673 50.628h-260.512c-8.836 0-16 7.164-16 16s7.164 16 16 16h260.513c7.186 29.034 33.449 50.628 64.673 50.628s57.487-21.594 64.673-50.628h90.141c8.836 0 16-7.164 16-16s-7.163-16-16-16zm-154.814 50.628c-19.094 0-34.628-15.534-34.628-34.628s15.534-34.628 34.628-34.628 34.628 15.534 34.628 34.628-15.534 34.628-34.628 34.628z" fill="#fa174b" data-original="#000000" class=""></path>
    </g>
</svg>