<svg width="136" height="32" viewBox="0 0 136 32" fill="none" xmlns="http://www.w3.org/2000/svg">
<path d="M4.48 12.544C5.056 11.6907 5.84533 10.9973 6.848 10.464C7.872 9.93067 9.03467 9.664 10.336 9.664C11.8507 9.664 13.216 10.0373 14.432 10.784C15.6693 11.5307 16.64 12.5973 17.344 13.984C18.0693 15.3493 18.432 16.9387 18.432 18.752C18.432 20.5653 18.0693 22.176 17.344 23.584C16.64 24.9707 15.6693 26.048 14.432 26.816C13.216 27.584 11.8507 27.968 10.336 27.968C9.01333 27.968 7.85067 27.712 6.848 27.2C5.86667 26.6667 5.07733 25.984 4.48 25.152V27.68H0V4H4.48V12.544ZM13.856 18.752C13.856 17.6853 13.632 16.768 13.184 16C12.7573 15.2107 12.1813 14.6133 11.456 14.208C10.752 13.8027 9.984 13.6 9.152 13.6C8.34133 13.6 7.57333 13.8133 6.848 14.24C6.144 14.6453 5.568 15.2427 5.12 16.032C4.69333 16.8213 4.48 17.7493 4.48 18.816C4.48 19.8827 4.69333 20.8107 5.12 21.6C5.568 22.3893 6.144 22.9973 6.848 23.424C7.57333 23.8293 8.34133 24.032 9.152 24.032C9.984 24.032 10.752 23.8187 11.456 23.392C12.1813 22.9653 12.7573 22.3573 13.184 21.568C13.632 20.7787 13.856 19.84 13.856 18.752Z" fill="#664400"/>
<path d="M26.1675 12.704C26.7435 11.7653 27.4902 11.0293 28.4075 10.496C29.3462 9.96267 30.4128 9.696 31.6075 9.696V14.4H30.4235C29.0155 14.4 27.9488 14.7307 27.2235 15.392C26.5195 16.0533 26.1675 17.2053 26.1675 18.848V27.68H21.6875V9.952H26.1675V12.704Z" fill="#664400"/>
<path d="M51.105 18.432C51.105 19.072 51.0623 19.648 50.977 20.16H38.017C38.1237 21.44 38.5717 22.4427 39.361 23.168C40.1503 23.8933 41.121 24.256 42.273 24.256C43.937 24.256 45.121 23.5413 45.825 22.112H50.657C50.145 23.8187 49.1637 25.2267 47.713 26.336C46.2623 27.424 44.481 27.968 42.369 27.968C40.6623 27.968 39.1263 27.5947 37.761 26.848C36.417 26.08 35.361 25.0027 34.593 23.616C33.8463 22.2293 33.473 20.6293 33.473 18.816C33.473 16.9813 33.8463 15.3707 34.593 13.984C35.3397 12.5973 36.385 11.5307 37.729 10.784C39.073 10.0373 40.6197 9.664 42.369 9.664C44.0543 9.664 45.5583 10.0267 46.881 10.752C48.225 11.4773 49.2597 12.512 49.985 13.856C50.7317 15.1787 51.105 16.704 51.105 18.432ZM46.465 17.152C46.4437 16 46.0277 15.0827 45.217 14.4C44.4063 13.696 43.4143 13.344 42.241 13.344C41.1317 13.344 40.193 13.6853 39.425 14.368C38.6783 15.0293 38.2197 15.9573 38.049 17.152H46.465Z" fill="#664400"/>
<path d="M78.951 9.952L73.767 27.68H68.935L65.703 15.296L62.471 27.68H57.607L52.391 9.952H56.935L60.071 23.456L63.463 9.952H68.199L71.527 23.424L74.663 9.952H78.951Z" fill="#664400"/>
<path d="M97.855 18.432C97.855 19.072 97.8123 19.648 97.727 20.16H84.767C84.8737 21.44 85.3217 22.4427 86.111 23.168C86.9003 23.8933 87.871 24.256 89.023 24.256C90.687 24.256 91.871 23.5413 92.575 22.112H97.407C96.895 23.8187 95.9137 25.2267 94.463 26.336C93.0123 27.424 91.231 27.968 89.119 27.968C87.4123 27.968 85.8763 27.5947 84.511 26.848C83.167 26.08 82.111 25.0027 81.343 23.616C80.5963 22.2293 80.223 20.6293 80.223 18.816C80.223 16.9813 80.5963 15.3707 81.343 13.984C82.0897 12.5973 83.135 11.5307 84.479 10.784C85.823 10.0373 87.3697 9.664 89.119 9.664C90.8043 9.664 92.3083 10.0267 93.631 10.752C94.975 11.4773 96.0097 12.512 96.735 13.856C97.4817 15.1787 97.855 16.704 97.855 18.432ZM93.215 17.152C93.1937 16 92.7777 15.0827 91.967 14.4C91.1563 13.696 90.1643 13.344 88.991 13.344C87.8817 13.344 86.943 13.6853 86.175 14.368C85.4283 15.0293 84.9697 15.9573 84.799 17.152H93.215Z" fill="#664400"/>
<path d="M105.605 12.704C106.181 11.7653 106.928 11.0293 107.845 10.496C108.784 9.96267 109.85 9.696 111.045 9.696V14.4H109.861C108.453 14.4 107.386 14.7307 106.661 15.392C105.957 16.0533 105.605 17.2053 105.605 18.848V27.68H101.125V9.952H105.605V12.704Z" fill="#664400"/>
<path d="M131.822 5.344L124.271 19.904V27.68H119.79V19.904L112.206 5.344H117.262L122.062 15.552L126.83 5.344H131.822Z" fill="#664400"/>
</svg>
