<svg width="39" height="41" viewBox="0 0 39 41" fill="none" xmlns="http://www.w3.org/2000/svg">
<path d="M38.1286 20.5C38.1286 31.5742 29.6775 40.5 19.3143 40.5C8.95109 40.5 0.5 31.5742 0.5 20.5C0.5 9.42582 8.95109 0.5 19.3143 0.5C29.6775 0.5 38.1286 9.42582 38.1286 20.5Z" stroke="black"/>
<path d="M15.184 21.6321C14.975 21.4105 14.8574 21.1099 14.8571 20.7963V20.1971C14.8606 19.8842 14.9777 19.5848 15.184 19.3613L22.8206 11.2717C22.9601 11.1224 23.1499 11.0385 23.348 11.0385C23.5461 11.0385 23.7359 11.1224 23.8754 11.2717L24.9303 12.3913C25.07 12.5366 25.1488 12.7356 25.1488 12.9432C25.1488 13.1509 25.07 13.3498 24.9303 13.4951L18.3189 20.4967L24.9303 27.4982C25.0709 27.6463 25.15 27.8478 25.15 28.058C25.15 28.2683 25.0709 28.4698 24.9303 28.6178L23.8754 29.7217C23.7359 29.8709 23.5461 29.9549 23.348 29.9549C23.1499 29.9549 22.9601 29.8709 22.8206 29.7217L15.184 21.6321Z" fill="black"/>
</svg>
