<svg width="39" height="41" viewBox="0 0 39 41" fill="none" xmlns="http://www.w3.org/2000/svg">
<path d="M38.5 20.5C38.5 31.5742 30.0489 40.5 19.6857 40.5C9.32252 40.5 0.871429 31.5742 0.871429 20.5C0.871429 9.42582 9.32252 0.5 19.6857 0.5C30.0489 0.5 38.5 9.42582 38.5 20.5Z" stroke="black"/>
<path d="M25.1947 19.3606C25.4037 19.5822 25.5213 19.8828 25.5215 20.1964V20.7956C25.5181 21.1085 25.401 21.4079 25.1947 21.6314L17.5581 29.721C17.4186 29.8703 17.2287 29.9542 17.0307 29.9542C16.8326 29.9542 16.6427 29.8703 16.5032 29.721L15.4484 28.6014C15.3086 28.456 15.2299 28.2571 15.2299 28.0495C15.2299 27.8418 15.3086 27.6429 15.4484 27.4975L22.0598 20.496L15.4484 13.4945C15.3077 13.3464 15.2286 13.1449 15.2286 12.9347C15.2286 12.7244 15.3077 12.5229 15.4484 12.3748L16.5032 11.271C16.6427 11.1217 16.8326 11.0378 17.0307 11.0378C17.2287 11.0378 17.4186 11.1217 17.5581 11.271L25.1947 19.3606Z" fill="black"/>
</svg>
