<svg width="663" height="415" viewBox="0 0 663 415" fill="none" xmlns="http://www.w3.org/2000/svg">
<g clip-path="url(#clip0_322_23)">
<path fill-rule="evenodd" clip-rule="evenodd" d="M534.946 345.386C538.263 346.811 541.363 346.81 544.625 347.92C547.862 349.021 548.706 353.586 551.475 354.132C538.641 355.259 526 357.649 513.01 356.461C514.135 352.632 512.114 348.713 514.82 345.12C522.055 339.403 526.758 341.866 534.946 345.386ZM480.75 82.2228C480.917 84.9149 481.155 85.9848 483.443 87.7215C485.235 89.0822 486.244 87.0536 486.414 89.7112C486.512 91.2442 484.605 92.0136 483.867 93.2527C480.188 99.4258 482.727 107.399 484.535 113.548C488.202 126.017 497.157 139.574 490.847 152.248C490.211 153.526 489.7 156.296 488.471 157.275C486.85 156.56 485.667 156.873 484.921 158.213C484.473 158.633 484.025 159.053 483.578 159.473C480.742 161.664 477.724 162.478 473.96 161.314C466.371 158.967 465.116 151.604 465.077 145.807C465.032 139.419 466.661 132.728 468.402 126.504C469.241 123.507 470.532 120.028 468.128 117.201C465.858 114.531 463.053 116.036 460.818 114.844C458.438 113.575 461.866 104.25 459.521 101.777C455.427 97.46 454.001 108.022 453.935 110.179C453.864 112.542 454.017 115.299 455.35 117.441C456.398 119.124 459.807 120.601 460.391 122.299C460.939 123.887 458.539 128.011 458.169 129.715C457.598 132.34 457.4 135.022 457.236 137.683C456.683 146.671 458.371 156.131 465.778 163.106C469.025 166.165 474.529 169.638 479.678 169.081C484.223 168.589 488.79 166.539 493.029 165.146C495.88 174.294 500.162 183.154 504.724 191.794C508.689 199.304 512.417 206.995 516.583 214.413C525.362 230.049 539.612 243.368 550.746 257.825C561.496 271.782 567.524 287.799 568.97 304.276C569.311 308.172 567.949 313.504 569.036 317.147C570.054 320.562 570.948 322.046 570.281 325.77C569.54 329.91 568.104 333.727 568.721 337.938C569.268 341.675 571.4 347.242 569.071 350.704C566.272 348.213 563.479 347.04 561.782 343.718C560.058 340.346 560.736 337.575 556.829 336.093C553.492 334.827 551.098 335.103 548.153 333.03C544.575 330.513 542.137 327.436 540.374 323.832C537.366 317.681 536.93 311.014 539.474 304.697C541.513 299.633 547.47 290.153 555.822 293.546C554.581 291.418 553.756 289.104 551.389 287.721C549.328 286.517 546.246 286.124 543.945 284.755C541.372 283.224 538.459 281.59 535.587 280.47C534.472 280.036 533.417 279.817 532.265 279.52C530.883 279.164 528.263 279.42 528.092 279.398C523.159 278.775 517.658 276.791 514.646 273.802C512.378 271.552 510.374 269.452 508.643 266.877C506.396 263.535 505.531 263.737 501.22 262.943C494.955 261.791 490.979 261.005 485.967 257.121C480.409 252.815 476.342 247.448 472.274 242.164C469.891 239.067 467.797 238.878 463.913 237.642C461.655 236.924 458.528 233.706 456.472 233.468C455.879 233.398 453.037 234.479 452.075 234.608C450.357 234.841 448.866 234.799 447.145 234.648C443.195 234.302 439.704 233.428 437.048 230.846C428.87 222.896 426.377 204.154 437.574 197.391C439.707 196.102 442.679 195.509 443.937 193.369C445.381 190.913 444.724 186.286 444.608 183.697C444.477 180.742 444.311 177.525 443.782 174.612C443.539 173.273 443.358 172.71 442.704 171.369C441.406 168.711 441.026 169.098 438.354 168.458C434.542 167.547 432.818 167.906 430.481 164.883C428.617 162.472 427.745 159.434 427.575 156.583C427.417 153.924 428.853 151.466 427.654 149.057C425.899 145.531 422.644 142.863 421.216 139.005C420.013 135.756 416.907 128.503 419.969 125.505C421.341 124.162 423.778 123.965 425.138 122.168C427.508 119.037 428.465 117.325 431.983 114.858C434.578 113.038 437.07 110.325 440.199 109.212C443.275 108.117 446.179 109.879 448.676 109.396C451.399 108.869 450.683 103.594 451.438 101.219C452.457 98.016 454.642 94.6771 457.288 92.1779C458.171 91.3431 459.273 91.1826 459.961 90.0727C460.893 88.5699 460.523 86.4284 461.25 84.7852C462.117 82.8215 464.223 79.441 466.577 78.3646C473.453 75.2197 475.519 83.3235 480.75 82.2228ZM464.658 314.781C465.628 316.965 465.091 320.475 466.208 322.355C467.098 323.852 470.669 324.802 472.42 326.588C476.169 330.412 477.597 336.554 476.236 341.276C471.648 340.33 468.58 339.725 463.915 340.223C463.444 331.666 463.885 323.336 464.658 314.781ZM407.951 321.231C411.073 324.139 412.621 327.566 412.17 331.454C412.009 332.838 411.503 334.778 411.015 336.107C410.479 337.566 407.814 340.297 408.848 341.079C405.936 340.934 402.514 341.216 400.416 339.643C398.532 338.231 397.214 334.592 396.45 332.664C397.92 330.212 399.391 327.76 400.862 325.309C401.819 326.578 404.631 329.892 406.952 328.831C408.701 328.033 407.289 322.845 407.951 321.231ZM517.516 298.564C521.089 301.337 522.31 306.337 522.128 310.218C522.186 315.567 519.97 326.274 511.645 326.633C504.956 326.921 497.82 318.917 497.068 313.97C496.243 308.547 498.391 295.578 506.901 294.462C510.035 294.052 515.258 296.81 517.516 298.564ZM457.72 305.48C457.862 308.987 457.932 312.36 457.599 315.855C457.322 318.776 458.247 322.227 457.465 325.024C452.516 320.399 445.996 315.362 446.194 308.563C446.38 302.136 452.754 302.683 457.72 305.48ZM407.84 228.205L411.983 231.999C412.101 237.328 411.975 242.598 413.917 247.737C415.961 253.144 419.386 258.355 422.777 263.245C429.369 272.747 430.94 281.71 431.735 292.578C419.338 287.939 412.578 272.085 408.488 262.169C406.323 256.919 404.077 251.665 402.034 246.382C400.02 241.172 396.459 234.365 398.803 228.877C403.306 231.643 405.254 233.068 407.84 228.205ZM485.086 265.612C491.139 269.633 491.597 275.787 493.77 281.411C492.517 282.247 491.141 282.983 490.009 283.936C489.31 284.525 487.663 286.935 487.126 287.182C484.981 288.173 483.108 286.901 481.013 285.304C476.889 282.158 474.314 275.48 474.508 270.862C474.733 265.468 479.298 261.766 485.086 265.612ZM569.777 241.981C577.644 245.747 575.592 256.164 574.611 262.04C573.995 265.723 575.36 269.47 575.265 272.973C575.159 276.928 572.703 276.109 571.131 278.563C569.767 275.586 567.265 272.003 566.696 268.882L565.792 266.907C566.557 266.651 566.964 266.204 567.011 265.568C567.333 264.056 567.328 262.514 567.429 260.971C567.846 254.598 568.423 248.266 569.777 241.981ZM449.906 249.016C449.035 251.79 448.397 257.009 443.505 255.401C439.645 254.131 438.713 249.005 438.704 246.149C438.698 243.803 439.16 239.495 443.087 239.354C447.907 239.181 449.628 246.307 449.906 249.016ZM412.666 171.796C409.412 176.15 407.153 182.582 408.691 187.738C410.305 193.152 415.325 194.462 419.79 190.479C423.475 195.325 415.921 203.956 409.166 199.348C407.706 198.353 406.726 196.447 404.921 195.826C403.441 195.317 402.13 196.009 400.619 195.722C395.97 194.839 394.215 191.025 392.389 187.824C392.89 185.215 393.421 182.628 394.097 180.045C394.457 178.671 394.831 177.3 395.195 175.926C395.814 173.594 395.622 173.885 397.646 172.729C402.986 169.681 406.659 169.53 412.666 171.796ZM415.423 174.146L419.329 181.402C417.201 180.974 414.882 186.309 413.492 187.348C412.842 182.909 414.399 178.464 415.423 174.146ZM413.258 149.363C416.79 150.606 417.493 155.992 417.618 158.598C416.647 161.341 415.74 164.85 411.635 162.918C408.897 161.628 407.723 157.381 407.629 155.062C407.512 152.153 408.82 147.8 413.258 149.363Z" fill="#F0386B"/>
<path fill-rule="evenodd" clip-rule="evenodd" d="M386.803 86.3523C385.349 86.8986 388.125 90.9811 388.556 91.73C389.684 93.6851 391.058 97.7248 393.728 96.6128C391.419 93.1928 389.111 89.7723 386.803 86.3523ZM45.243 323.218C43.2973 322.498 40.695 328.698 40.3483 329.958C39.3813 333.468 40.1905 335.825 43.5535 338.094C42.1614 333.078 43.829 328.083 45.243 323.218ZM494.394 57.6903C491.974 55.0663 488.478 50.1944 483.59 52.7735C481.659 53.7926 480.173 57.0591 478.982 58.6548C477.112 61.16 475.302 63.5716 473.879 66.2686C476.296 65.4386 477.721 63.6338 479.882 62.6471C481.359 61.9732 482.706 61.9084 484.128 61.4172C487.274 60.3321 491.581 59.2682 494.394 57.6903ZM99.8672 316.228C101.176 320.508 102.387 324.777 103.4 329.113C104.085 332.047 106.387 336.192 105.186 339.063C108.298 338.713 111.41 338.364 114.522 338.015C112.214 333.626 110.999 328.942 110.313 324.201C109.893 321.3 110.432 320.472 107.814 318.858C105.788 317.607 102.22 317.006 99.8672 316.228ZM82.6544 152.378C88.6378 157.381 93.8709 163.084 100.229 167.746C103.534 170.168 106.92 172.523 110.311 174.859C113.187 176.84 117.759 181.207 121.501 181.814C121.964 180.218 123.058 177.603 122.765 175.966C123.856 175.023 123.517 174.334 121.748 173.898C120.665 173.203 119.594 172.496 118.534 171.776C114.375 168.876 110.439 165.726 106.497 162.624C102.579 159.54 98.9551 156.314 95.554 152.831C93.7622 150.996 92.7143 149.157 89.7756 148.617C86.2846 147.977 85.1228 150.251 82.6544 152.378ZM202.238 338.149C202.069 340.867 210.073 342.533 212.504 342.696C219.078 343.137 223.346 340.729 225.608 335.98C230.317 326.096 237.857 317.388 241.011 306.995C241.946 303.911 242.756 302.508 239.423 300.936C238.054 300.292 234.492 298.855 233.005 299.675C231.589 300.456 230.429 303.97 229.519 305.246C228.073 307.275 226.43 309.204 224.861 311.167C217.519 320.348 210.121 329.289 202.238 338.149ZM107.254 202.031L137.982 216.709C139.263 213.013 139.852 209.16 141.054 205.436C141.909 202.788 144.109 199.049 143.97 196.725C143.762 193.255 140.545 188.649 139.143 185.342C137.395 181.22 135.647 177.098 133.899 172.976C131.533 174.867 128.807 176.187 128.778 178.651C128.762 180.059 129.886 180.938 129.234 182.533C128.777 183.652 126.833 185.138 125.893 185.97C123.15 188.401 123.236 188.523 120.353 186.249C115.987 191.51 111.62 196.77 107.254 202.031ZM141.059 270.85C141.499 267.314 142.064 263.924 143.016 260.454C143.602 258.322 146.074 253.945 145.261 251.937C144.663 250.461 141.111 249.178 139.727 248.375C135.724 246.052 131.815 243.608 127.853 241.237C124.378 239.158 120.851 237.129 117.442 234.976C114.284 232.982 111.9 230.502 108.078 229.647C104.735 228.898 100.492 229.387 97.0288 229.291C92.3812 229.161 87.6617 229.119 83.0186 229.308C67.4366 229.946 49.9806 229.035 34.9898 232.666C27.9048 234.381 23.3374 235.391 19.3767 240.998C14.7963 247.481 10.8828 254.219 7.5509 261.222C7.06447 262.245 5.96482 263.72 6.00569 264.838C6.08707 266.972 7.00108 266.48 9.45071 267.697C12.0976 269.012 14.6922 270.572 17.2207 272.053C21.5566 274.592 26.9397 277.242 31.4379 279.222C36.8501 281.604 42.3024 283.74 47.8078 286.139C51.2963 287.659 54.907 288.901 58.3289 290.572C62.0438 292.386 66.203 292.902 70.2077 294.319C82.6079 298.705 94.6089 302.758 106.778 307.762C118.655 312.646 130.669 316.773 142.821 321.081C158.528 326.649 174.079 331.798 190.459 335.648C191.658 335.93 194.18 336.925 195.364 336.879C197.896 336.782 198.47 335.236 199.992 333.494C202.981 330.07 205.861 326.581 208.721 323.082C214.924 315.49 220.989 307.814 227.667 300.504C208.744 296.093 191.197 287.955 174.562 279.602C173.854 281.265 173.29 284.949 171.019 285.505C168.212 286.193 166.172 282.944 164.914 281.45C163.723 283.927 161.686 292.282 157.874 292.099C152.608 291.846 153.538 284.922 152.882 282.175C149.979 285.398 146.615 289.105 142.669 284.148C139.935 280.712 140.239 274.681 141.059 270.85ZM360.316 231.365C357.876 230.727 355.452 230.161 353.065 229.447C352.437 228.335 351.395 227.998 349.939 228.436C348.747 228.525 347.586 228.402 346.459 228.065C341.473 227.353 335.951 226.429 331.188 225.229C326.946 224.159 322.945 223.215 318.636 222.411C316.076 221.935 304.676 219.24 302.991 220.826C302.473 221.314 303.364 227.229 303.238 228.283C303.015 230.157 302.905 233.243 301.484 234.804C300.938 235.403 298.862 236.066 298.112 236.533C295.674 238.047 293.421 239.929 290.995 241.5C285.7 244.928 280.543 248.486 275.14 251.802C271.321 254.146 266.951 255.306 262.709 257.009C265.727 257.46 271.632 255.034 274.678 254.281C278.623 253.307 282.495 252.223 286.53 251.33C294.803 249.5 303.279 247.434 311.688 245.486C316.851 244.29 322.306 243.043 327.312 241.459C329.533 240.756 331.276 239.121 332.743 240.785C333.914 242.112 332.498 243.859 331.598 244.843C326.349 250.582 312.093 251.978 304.464 254.359C295.853 257.045 287.356 259.875 278.49 261.762C268.135 263.966 256.895 265.652 247.246 269.523C239.241 272.734 230.172 273.979 221.661 275.864C213.667 277.633 204.188 277.988 196.634 280.992C199.897 283.145 204.725 284.268 208.529 285.715C213.185 287.487 217.889 289.104 222.494 290.981C224.454 291.781 226.506 292.968 228.489 293.632C231.006 294.476 230.684 294.031 233.284 293.86C237.331 293.594 242.792 292.986 246.08 295.448C250.046 298.417 247.533 301.67 248.115 305.303C248.515 307.794 248.718 307.394 252.028 307.775C255.076 308.124 258.12 308.532 261.126 309.077C264.837 309.749 268.635 310.876 272.25 311.848C277.855 313.355 278.464 315.128 284.306 313.183C300.945 307.643 318.155 303.089 334.9 297.847C342.613 295.433 350.359 290.775 357.619 287.277C366.934 282.787 375.356 277.931 381.663 270.457C384.538 267.05 387.535 261.296 386.931 257.066C386.391 253.284 383.041 249.08 380.882 245.828C378.125 241.676 375.697 240.064 371.478 237.306C368.545 235.389 364.014 231.339 360.316 231.365ZM175.01 263.505C175.268 265.593 173.808 274.199 175.255 275.523C177.729 277.787 183.798 275.145 186.146 274.47C193.773 272.28 202.639 272.759 210.407 271.025C217.942 269.342 225.312 267.162 232.889 265.447C236.954 264.527 240.812 263.086 244.81 261.99C249.261 260.771 254.23 260.102 258.357 258.268C257.846 257.207 239.987 259.759 237.957 259.896C230.907 260.375 224.269 259.466 217.321 258.399C201.994 256.044 187.553 250.46 172.425 246.837C173.134 252.666 192.768 253.826 190.429 260.59C189.777 262.475 180.993 265.557 178.088 264.374C172.186 261.97 179.406 258.587 182.347 257.744C177.869 255.599 173.584 253.272 169.496 250.629C165.12 247.8 163.237 243.83 160.892 239.734C155.989 231.171 144.388 226.189 135.376 220.858C125.631 215.093 115.255 210.193 105.516 204.441C103.777 203.414 102.966 203.885 102.355 202.011C101.702 200.003 104.102 197.452 105.267 195.921C108.329 191.896 111.896 188.086 115.941 184.716C110.725 181.75 105.089 179.302 100.197 175.944C95.2383 172.541 91.1347 168.387 86.76 164.491C79.7714 177.194 69.9768 188.976 62.285 201.434C59.2468 206.355 57.6406 213.797 62.2611 218.565C67.1235 223.584 76.1904 221.63 83.0542 221.896C90.2983 222.177 96.9065 222.863 104.052 224.579C107.284 225.356 110.227 225.127 113.333 226.374C116.977 227.836 120.561 229.714 124.027 231.448C130.844 234.856 137.213 239.124 143.651 243.013C146.291 244.608 160.609 254.065 149.284 252.605C149.284 261.455 147.428 270.518 146.454 279.325C149.14 276.645 151.055 273.923 152.68 270.704C153.647 268.789 153.659 263.902 156.88 265.06C161.724 266.802 157.951 279.605 157.951 283.068C159.151 281.131 159.992 279.044 160.856 276.99C161.511 275.435 162.329 271.024 163.695 269.98C168.269 266.488 168.91 276.012 168.91 277.999C170.391 274.488 170.663 270.741 170.812 267.032C170.87 265.569 170.438 263.291 170.88 261.876C171.616 259.516 171.529 259.67 174.487 258.672C174.662 260.283 174.836 261.894 175.01 263.505ZM316.286 338.187C316.649 341.181 318.036 343.349 315.679 346.042C320.235 345.769 324.719 345.435 329.282 345.532C332.945 345.609 338.424 346.309 341.842 344.998C343.235 344.464 343.708 345.384 344.424 344.363C345.104 343.394 343.507 340.177 343.315 339.379C342.394 335.548 341.945 331.619 341.108 327.766C340.533 325.117 338.845 319.907 340.967 317.404C344.089 313.721 345.464 318.91 346.277 321.213C348.955 328.803 348.801 336.01 348.801 343.808C352.835 343.808 358.136 342.337 362.026 341.449C367.393 340.224 373.124 338.965 378.325 337.365C383.229 335.857 387.548 333.656 390.649 330.113C392.969 327.464 398.111 320.926 396.834 317.996C395.268 314.403 387.799 311.933 383.81 311.538C378.636 311.026 373.332 311.894 368.037 312.259C362.369 312.649 356.869 313.704 351.261 314.211C345.814 314.703 338.504 316.221 333.213 315.084C333.075 316.902 334.895 319.346 335.529 321.197C336.361 323.625 337.103 326.074 337.777 328.534C338.5 331.168 342.972 340.636 338.905 342.529C334.13 344.751 331.851 335.236 331.257 332.917C329.839 327.387 328.62 321.862 330.105 316.302C324.011 315.385 316.661 316.748 310.377 317.109C312.718 323.999 314.229 331.214 316.286 338.187ZM53.8093 341.182C55.9284 341.97 58.8405 341.547 61.144 341.698C64.7437 341.934 68.3803 342.478 72.004 342.381C77.5333 342.234 83.3298 341.65 88.8636 341.122C85.7069 336.366 83.7916 331.863 83.3977 326.412C83.256 324.455 82.0121 312.312 86.337 312.831C88.4237 313.082 87.9806 323.45 88.3856 325.36C88.9742 328.131 89.7336 330.968 90.658 333.681C91.3287 335.648 93.6108 338.595 93.0261 340.723C95.816 340.345 98.6065 339.968 101.397 339.59C99.2275 335.976 97.6427 332.738 96.8302 328.707C96.4376 326.762 96.6879 324.341 95.9266 322.494C95.4466 321.329 94.3521 320.234 94.2059 319.258C94.0371 318.131 95.5145 315.363 94.9679 314.362C94.431 313.378 90.6929 312.468 89.383 311.925C85.7729 310.431 83.6571 310.053 79.611 310.912C71.8067 312.569 59.5107 313.745 53.6903 318.214C47.9242 322.641 45.8259 337.574 53.8093 341.182ZM394.648 125.366C396.808 125.162 398.947 125.036 401.118 124.942C397.946 121.213 395.064 117.315 392.433 113.302C391.144 111.336 389.926 109.339 388.761 107.32C387.423 105.004 387.459 103.491 384.552 103.031C380.527 102.394 375.143 103.667 371.002 103.522C367.803 103.409 360.619 100.895 358.042 101.806C360.392 105.83 358.506 112.09 358.597 116.421C358.689 120.728 358.049 124.892 357.141 129.139C362.631 129.139 369.503 127.556 375.044 126.848C381.496 126.025 388.075 125.982 394.648 125.366ZM307.499 346.475C309.614 346.248 311.624 346.178 313.759 346.178C308.95 339.665 305.318 332.381 305.277 324.621C305.272 323.606 306.733 317.772 306.25 317.287C305.307 316.343 301.398 317.089 300.327 317.178C295.947 317.544 291.078 317.516 286.955 318.834C284.109 319.744 284.078 319.194 282.947 321.992C282.277 323.646 281.796 325.536 281.783 327.276C281.756 330.792 283.098 334.902 284.833 338.067C286.485 341.081 289.095 344.313 292.685 345.931C296.821 347.797 302.649 346.686 307.499 346.475ZM351.227 104.511C350.395 101.916 350.755 102.502 347.99 102.18C347.408 102.112 341.074 102.222 340.709 102.532C340.291 102.89 340.451 108.173 340.396 108.777C340.208 110.85 339.931 112.917 339.66 114.982C338.564 123.369 336.483 131.487 334.923 139.805C338.778 137.806 344.349 140.531 347.642 138.368C350.245 136.659 349.855 131.189 350.049 128.776C350.698 120.698 350.92 112.601 351.227 104.511ZM490.426 94.7171C490.079 95.1824 489.733 95.6477 489.386 96.1129C490.732 96.8338 498.612 89.5005 500.364 88.1885C502.698 86.4415 506.392 84.1087 507.444 81.5544C508.667 78.5862 507.464 73.9001 507.168 70.8309C506.956 68.6343 507.406 65.5964 505.262 64.0617C503.289 62.6498 498.429 62.6876 496.093 62.9896C489.081 63.8964 484.864 68.7132 481.324 73.303C484.918 72.934 497.588 68.102 499.06 70.7152C501.198 74.5118 487.891 77.9064 486.575 81.2378C489.299 82.0413 495.307 78.9245 493.617 84.1103C493.329 84.836 492.825 85.4369 492.109 85.913C490.865 86.281 490.57 86.9743 491.225 87.9934C490.668 90.0246 490.782 92.5946 490.426 94.7171ZM571.131 278.563C571.169 279.794 571.304 280.971 572.509 281.841C575.18 274.774 576.015 267.703 577.121 260.353C578.229 253.002 579.407 245.469 579.583 238.124C579.779 229.893 578.848 220.938 577.255 212.806C576.008 206.448 575.043 198.624 570.505 193.213C573.082 207.236 572.281 220.531 570.543 234.603C569.621 242.076 568.319 249.49 567.722 256.995C567.564 258.977 567.513 260.982 567.307 262.961C567.186 264.126 565.804 266.335 565.792 266.907C565.724 270.084 569.795 275.646 571.131 278.563ZM434.026 267.641C436.169 271.761 438.606 275.818 439.891 280.199C441.248 284.824 440.664 289.132 440.881 293.819C441.241 301.596 440.495 309.326 440.626 317.114C440.737 323.751 440.432 330.223 440.512 336.79C440.562 340.944 440.29 345.083 440.307 349.235C440.307 349.222 440.505 352.962 440.162 353.151C438.627 354.003 436.95 352.794 436.48 351.629L431.93 355.929C434.315 355.429 437.248 354.383 439.699 354.291C440.638 354.002 441.573 353.994 442.504 354.267C443.428 354.734 444.113 355.384 444.559 356.22C450.983 357.362 454.838 352.586 455.992 348.316C458.495 339.05 457.593 329.902 457.411 320.548C457.018 300.226 460.883 280.025 460.518 259.702C460.447 255.769 460.267 251.882 460.975 247.957C462.288 240.665 464.227 247.34 464.538 250.781C465.474 261.123 467.103 271.794 466.207 282.199C465.401 291.575 465.475 301.038 464.916 310.441C464.322 320.437 463.364 330.22 463.915 340.223C467.128 339.88 477.463 339.368 478.54 343.139C479.478 346.428 475.701 345.211 473.739 345.072C470.558 344.846 467.451 345.47 463.973 344.949C464.229 349.373 464.96 355.305 460.228 358.291C457.9 359.761 454.046 361.087 451.326 361.953C448.661 362.802 444.148 364.684 441.371 364.581C439.407 364.508 438.65 363.624 436.495 363.765C433.297 363.975 430.528 365.762 427.138 364.286C420.708 361.487 423.869 353.344 427.928 350.08C428.975 349.239 430.152 348.318 431.556 347.908C432.224 347.713 435.017 347.949 435.339 347.656C436.528 346.578 435.044 340.272 434.885 339.075C434.052 332.797 433.143 326.386 432.801 320.08C432.48 314.151 432.122 308.21 431.878 302.279C431.824 300.988 432.51 298.332 431.863 297.204C430.786 295.328 426.06 294.133 424.01 293.26C425.837 308.207 428.521 324.273 421.909 338.511C420.596 341.338 419.123 345.373 415.794 346.946C412.656 348.429 405.266 348.219 401.506 348.396C397.464 348.585 393.506 347.796 391.278 344.625C389.526 342.13 390.577 339.136 394.175 338.048C396.33 337.397 396.75 337.815 398.637 338.59C399.046 339.145 399.334 339.742 399.5 340.381H400.951C402.917 341.114 410.777 341.933 412.938 340.764C415.442 339.41 415.987 335.749 417.055 333.575C419.038 329.533 419.563 326.254 420.283 321.934C421.41 315.173 420.269 307.333 420.29 300.289C420.296 298.305 420.307 296.321 420.31 294.338C420.314 291.341 420.627 291.36 418.58 289.202C415.496 285.952 411.98 282.629 408.678 279.513C410.467 288.618 409.734 298.204 409.024 307.274C408.626 312.371 407.8 317.56 407.422 322.589C407.308 324.1 408.608 328.266 406.507 328.934C404.376 329.611 401.723 326.45 400.862 325.309C396.163 333.142 390.555 340.697 380.861 344.749C375.876 346.832 370.686 347.772 365.246 348.589C360.206 349.347 355.549 350.728 350.58 351.38C340.297 352.728 330.825 352.918 320.476 352.624C310.714 352.346 301.365 353.852 291.633 351.956C287.835 351.216 283.997 349.857 281.401 347.428C279.984 346.103 279.357 344.017 277.928 342.795C277.606 341.214 276.493 340.726 274.587 341.331C273.391 341.376 272.199 341.343 271.011 341.232C261.25 340.804 250.402 341.281 240.944 338.952C237.354 338.068 233.346 336.612 235.137 332.859C236.703 329.578 241.022 330.574 244.564 330.861C254.854 331.693 264.982 333.212 275.42 333.977C275.084 329.421 275.373 324.774 277.511 320.512C270.27 319.753 262.764 318.607 255.874 316.676C253.746 316.08 251.629 315.46 249.518 314.822C246.039 313.771 246.762 313.499 244.747 315.333C242.216 317.638 240.666 322.445 238.831 325.229C236.767 328.362 234.787 331.46 233.047 334.73C231.401 337.825 230.173 341.971 227.665 344.638C222.147 350.505 209.403 351.014 201.904 348.709C198.23 347.58 196.904 347.402 194.678 344.652C192.238 341.639 191.632 341.463 187.139 341.054C179.024 340.315 171.365 338.613 163.763 336.264C155.732 333.782 147.485 331.847 139.477 329.167C131.981 326.658 124.735 324.135 116.979 322.177C116.059 327.064 119.872 332.575 119.872 337.613C124.386 337.236 128.594 336.905 133.068 336.306C134.663 336.092 144.713 334.208 145.694 335.319C149.781 339.954 131.183 342.133 128.276 342.746C118.96 344.709 109.461 346.534 100.087 348.052C90.5189 349.601 81.1912 351.144 71.4781 351.422C55.0422 351.893 32.372 351.1 33.1566 333.061C33.4645 325.992 36.9504 318.321 43.6207 313.711C47.7709 310.843 52.9464 309.266 58.0203 307.968C59.8949 307.488 69.7704 306.368 70.0706 305.751C67.2878 304.085 62.5315 303.65 59.2299 302.366C56.0824 301.142 52.7608 300.686 49.5388 299.452C43.1007 296.986 36.8825 293.972 30.9295 290.923C26.1952 288.498 21.4084 285.82 17.0499 282.937C13.5867 280.647 10.2677 278.445 7.49915 275.827C6.0502 274.458 3.48543 273.244 2.32498 272.065C-1.7502 267.922 2.54749 259.678 4.283 254.855C6.81802 247.805 10.2011 240.303 15.1902 234.196C19.7784 228.579 24.8937 224.795 33.1236 223.48C40.7196 222.265 48.3576 221.881 56.1263 221.54C54.821 217.391 52.9833 214.464 53.4497 209.914C53.8895 205.622 56.4834 201.358 58.519 197.45C62.3038 190.184 65.8744 183.073 71.0505 176.384C73.8954 172.708 77.0909 169.218 80.1964 165.696C80.6971 165.128 83.8097 162.53 83.6907 161.798C83.5723 161.071 80.4467 158.856 79.9681 158.349C76.7538 154.94 74.5319 151.27 78.3063 147.622C80.274 145.72 86.0595 141.879 88.8442 144.296C91.8553 139.213 97.122 135.748 101.222 131.424C106.334 126.032 111.216 120.558 116.001 114.911C120.766 109.288 124.658 103.247 130.974 98.7153C138.012 93.6656 144.638 94.1022 153.282 96.261C153.776 93.4754 154.462 93.8461 157.687 92.9161C160.129 92.212 162.501 91.3766 164.902 90.5817C167.453 89.7361 170.035 89.2562 172.643 88.5916C176.118 87.7065 176.64 87.9956 177.204 84.2265C177.887 79.6723 175.554 74.8571 174.05 70.5672C173.307 68.4506 172.791 65.8158 171.12 64.3919C169.608 63.1042 166.928 62.5179 165.275 61.094C151.03 48.8272 150.806 22.6358 165.979 11.2351C168.928 9.01911 171.361 6.03792 175.032 4.54165C179.062 2.8984 184.379 1.56965 188.818 0.795305C197.968 -0.799851 208.231 -0.29353 215.464 5.07986C219.031 7.7298 221.206 11.9419 222.423 15.7045C223.584 19.2985 223.335 25.3732 218.932 19.8188C216.155 16.3157 213.742 12.7428 209.041 11.0098C204.84 9.46167 199.711 8.62573 195.134 8.95427C184.349 9.72807 175.609 12.3737 168.143 19.0423C159.887 26.4156 159.468 38.1875 161.247 47.5633C162.815 44.7902 163.877 40.3992 168.273 39.8696C171.937 39.4281 177.713 43.336 175.746 46.7004C166.824 44.8004 164.215 56.0714 171.93 56.7501C174.266 56.9554 177.224 53.4819 179.375 54.2909C183.397 55.8028 178.006 61.013 176.944 62.7287C176.379 63.0188 175.814 63.309 175.25 63.5997C175.806 64.6794 176.367 65.7574 176.935 66.8333C177.622 68.2052 178.277 69.5805 178.881 70.98C180.351 74.3859 181.876 77.8978 182.762 81.4458C183.662 85.0533 184.13 89.266 182.001 92.6551C179.662 96.3804 177.458 95.9222 175.66 92.3785C170.955 94.856 166.224 97.4979 160.693 98.4754C166.493 106.605 174.002 113.593 185.292 116.15C194.861 118.318 206.906 118.238 216.036 114.653C225.511 110.932 230.724 102.237 229.596 93.5856C229.231 90.7838 227.279 81.0519 231.922 88.0917C234.469 91.9526 234.656 98.2155 234.075 102.449C231.298 122.701 206.723 130.277 185.533 125.402C174.663 122.901 166.829 116.206 160.997 108.325C159.637 106.487 158.393 104.59 157.177 102.683C156.691 101.921 156.264 100.857 155.616 100.189C153.075 97.5697 155.571 99.0293 152.874 98.7013C148.701 98.1944 142.133 100.864 139.034 102.98C130.626 108.719 125.968 117.9 119.515 125.133C112.644 132.833 103.918 139.687 95.1646 145.831C105.066 154.303 114.967 162.774 124.868 171.246C126.913 169.355 130.802 165.032 131.346 162.503C131.665 161.021 130.233 156.143 134.636 158.314C137.608 159.78 138.735 166.056 139.662 168.623C141.094 172.588 143.506 176.322 145.065 180.246C147.956 187.527 151.518 194.743 154.48 202.076C155.685 205.058 159.119 208.758 155.819 211.283C150.804 215.118 149.313 207.567 147.985 204.682C146.136 206.83 146.376 210.312 145.422 212.818C144.84 214.348 143.067 216.73 143.126 218.237C143.226 220.816 146.028 221.583 148.553 223.023C153.249 225.704 158.069 228.32 162.371 231.442C164.166 232.744 165.818 234.061 167.128 235.737C168.271 237.199 168.615 240.497 169.879 241.515C171.533 242.845 177.644 241.918 180.871 242.207C186.26 242.692 191.722 244.293 196.953 245.443C206.211 247.478 215.733 250.409 225.429 251.496C234.95 252.564 243.885 252.033 253.375 250.611C258.559 249.834 264.126 248.906 268.857 246.823C274.305 244.425 279.137 240.589 284.226 237.691C286.504 236.394 288.834 235.168 291.163 233.939C294.276 232.296 293.462 232.652 293.664 230.042C293.899 227.021 295.409 221.252 292.994 218.563C291.985 217.44 288.889 216.62 287.432 215.803C285.314 214.615 283.414 213.235 281.143 212.279C278.665 211.235 278.591 212.062 277.441 209.502C276.396 207.177 275.706 204.742 274.747 202.393C270.358 191.649 269.224 180.738 267.405 169.519C266.559 164.309 264.486 157.218 266.834 152.142C270.1 145.082 272.832 154.955 273.521 157.486C276.638 153.026 278.429 148.065 281.672 143.662C283.562 141.094 284.487 139.782 285.553 136.969C285.984 135.83 286.157 134.884 287.069 133.938C288.999 131.936 289.284 133.077 291.29 133.028C297.601 132.873 303.804 133.009 310.122 133.253C313.613 133.388 317.104 133.46 320.62 133.449C322.333 133.443 324.067 133.374 325.778 133.456C326.7 133.448 327.618 133.505 328.532 133.628C330.417 134.363 331.136 133.73 330.69 131.728C332.331 128.86 332.222 124.284 332.803 121.156C333.388 118.006 333.93 114.852 334.419 111.691C334.679 110.001 336.872 103.625 335.709 102.237C334.555 100.861 328.545 101.169 326.767 100.922C314.945 99.2805 303.949 95.211 292.891 91.877C287.447 90.2359 282.28 88.0199 277.059 86.0065C274.341 84.9582 271.772 82.7994 268.907 82.1272C265.292 81.2788 260.492 82.6351 256.889 83.1458C250.023 84.119 243.4 84.9711 236.433 85.2878C233.972 85.3996 229.29 85.9762 227.07 84.5632C222.609 81.7252 227.688 80.0657 230.603 79.7074C243.5 78.1231 256.357 77.2126 269.351 76.5512C269.96 76.5204 272.192 76.1416 272.935 76.3372C274.627 76.7835 273.944 77.3012 274.959 77.7616C276.837 78.6143 278.981 79.2422 281.364 79.7712C288.17 81.281 295.023 83.8142 301.851 85.8049C314.137 89.3865 328.816 95.097 341.104 94.093C344.136 93.8455 346.63 93.5289 349.8 93.7856C353.513 94.0865 355.68 95.6774 358.533 96.1399C362.354 96.7592 367.821 96.2939 371.844 96.4128C375.68 96.5263 379.518 96.6749 383.356 96.6749C379.986 91.014 377.933 85.699 376.039 79.6194C375.006 76.3037 373.452 73.2922 374.125 69.8004C374.443 68.1523 375.232 66.6036 376.092 65.1149C377.389 62.8675 377.758 63.3376 378.218 60.8487C378.852 57.4233 377.944 53.8116 378.442 50.3759C378.953 46.85 382.142 43.7073 382.497 40.3365C382.687 38.543 381.486 37.0792 381.845 35.1447C382.167 33.4144 383.393 31.6004 384.495 30.1436C387.06 26.749 390.185 24.8242 394.52 23.4414C398.004 22.3299 402.452 21.3102 405.974 23.1102C409.566 24.9464 409.307 28.6419 411.028 31.3383C414.729 37.1364 423.269 42.318 430.077 45.2792C436.33 47.9994 443.067 49.7177 449.773 51.4918C453.854 52.5714 458.05 53.3414 462.06 54.5751C464.947 55.4634 469.655 57.6179 472.595 56.3091C475.157 55.1684 478.146 51.6874 480.681 50.0711C483.648 48.1804 487.605 46.3351 491.341 47.9821C495.076 49.6286 494.77 55.698 497.675 56.8392C498.688 57.2369 501.694 56.0719 503.075 56.2556C505.304 56.5517 506.839 57.7043 508.175 59.1233C513.166 64.4259 514.712 72.8367 514.93 79.3735C515.04 82.6384 514.944 86.6992 512.558 89.4713C509.773 92.7048 504.504 92.7848 500.93 95.0603C498.072 96.8802 496.047 99.8555 493.145 101.795C491.358 102.99 490.669 102.072 489.929 103.935C489.447 105.146 490.42 107.51 490.708 108.682C492.484 115.913 495.812 122.583 498.97 129.471C500.458 132.717 501.72 135.964 502.399 139.404C502.844 141.661 502.331 143.634 502.546 145.806C502.699 147.352 503.486 148.687 503.313 150.273C502.946 153.63 500.764 156.595 499.375 159.548C497.793 162.915 499.967 168.745 501.56 172.227C505.379 180.568 510.75 188.995 515.522 197.009C520.209 204.881 523.696 213.265 529.156 220.828C534.46 228.173 540.7 235.364 546.735 242.311C550.091 246.175 553.653 249.85 556.695 253.903C557.36 254.789 561.9 262.139 563.077 261.884C561.633 249.059 563.093 235.72 563.739 222.903C564.546 206.859 562.101 192.326 556.697 177.011C555.434 173.43 554.307 169.767 553.419 166.108C552.796 163.546 551.04 161.441 555.352 162.561C562.493 164.415 568.778 175.676 572.408 180.578C580.539 191.556 587.33 206.197 588.241 219.074C589.136 231.713 588.364 243.806 586.473 256.259C585.54 262.403 584.033 269.251 581.729 275.127C580.544 278.149 579.121 281.279 577.542 284.175C576.876 285.397 575.414 286.778 575.161 288.121C574.761 290.252 576.63 293.127 577.097 295.231C578.625 302.116 578.976 309.251 578.456 316.237C578.177 319.985 577.557 323.336 576.093 326.86C574.229 331.35 575.095 334.78 575.872 339.408C576.702 344.361 577.498 355.62 571.333 358.434C570.897 358.397 570.461 358.359 570.025 358.322C568.923 357.261 567.945 357.324 567.091 358.511C565.497 358.945 563.939 360.064 562.26 360.546C558.363 361.664 554.157 361.732 550.093 362.223C542.137 363.185 534.208 364.883 526.391 365.088C517.136 365.331 507.481 365.028 498.432 363.673C496.561 363.392 494.375 362.652 492.504 362.509C489.965 362.316 488.183 363.727 485.562 363.395C481.5 362.881 478.933 359.29 478.667 356.347C477.821 346.97 484.049 342.669 494.226 341.004C487.65 333.139 480.078 326.686 478.329 316.585C476.606 306.647 480.342 295.145 487.127 287.183C493.639 279.539 504.752 274.429 516.212 276.368C521.531 277.269 546.625 283.457 541.774 290.478C540.698 287.266 534.083 287.888 530.887 287.424C525.584 286.655 520.282 285.494 514.902 285.733C504.321 286.203 494.094 291.432 488.971 299.347C483.064 308.472 485.759 317.578 492.871 325.369C499.373 332.493 506.076 339.977 514.82 345.12C513.13 347.366 513.741 348.07 510.384 347.668C508.078 347.392 505.922 345.89 503.592 345.517C498.76 344.742 491.156 348.049 488.171 351.356C486.407 353.31 486.472 354.275 489.724 355.479C492.124 356.367 495.903 355.908 498.481 356.1C504.893 356.578 511.429 356.738 517.862 356.719C528.997 356.685 539.353 355.193 550.374 354.227C555.258 353.798 560.366 354.292 565.145 352.79C571.619 350.757 570.032 344.784 569.193 339.946C568.362 335.153 569.208 331.436 570.11 326.69C570.501 324.629 571.23 322.249 570.714 320.174C570.1 317.709 569 316.618 569.14 313.868C569.64 304.084 568.17 293.78 565.066 284.336C558.324 263.826 541.86 247.638 528.129 230.205C524.251 225.282 520.174 220.616 517.087 215.284C514.162 210.232 512.148 204.889 509.244 199.823C502.842 188.657 496.77 177.156 493.03 165.146C488.79 166.539 484.223 168.589 479.678 169.081C474.529 169.638 469.025 166.165 465.778 163.106C458.372 156.131 456.683 146.671 457.237 137.683C457.4 135.022 457.598 132.34 458.169 129.715C458.54 128.011 460.939 123.887 460.392 122.3C459.807 120.601 456.398 119.124 455.351 117.441C454.017 115.299 453.864 112.542 453.935 110.179C454.001 108.022 455.427 97.46 459.521 101.777C461.866 104.25 458.438 113.575 460.818 114.844C462.959 115.986 465.909 114.591 468.129 117.201C470.528 120.022 469.243 123.5 468.402 126.504C466.664 132.717 465.032 139.426 465.077 145.808C465.116 151.618 466.359 158.964 473.96 161.314C477.8 162.501 480.714 161.685 483.578 159.473C484.234 158.842 484.904 158.221 485.586 157.61C486.213 156.71 487.174 156.599 488.471 157.275C489.43 156.639 490.852 152.24 491.332 151.257C497.218 139.207 487.938 125.371 484.535 113.548C482.454 106.317 480.64 99.0628 484.852 92.0834C485.534 90.9535 487.412 89.9717 486.286 88.3506C485.989 87.9242 483.153 87.7243 482.481 87.2288C480.294 85.6158 480.75 82.6087 480.75 80.4553C475.691 81.7587 474.233 78.4706 474.891 74.4405C471.117 74.9404 468.496 75.9044 467.099 72.2569C465.86 69.0223 467.731 65.7239 468.972 62.7097C451.511 61.1465 432.654 59.1433 418.739 49.0785C415.308 46.5966 412.454 43.4728 410.077 40.2365C409.647 39.6513 407.624 35.5316 406.953 35.3165C404.96 34.6772 403.288 37.9346 401.517 38.7413C399.942 39.4579 397.704 39.8529 395.955 40.2895C394.309 40.7007 388.506 40.7828 387.477 41.4966C384.904 43.282 385.107 53.6035 385.087 55.9989C385.017 64.2492 387.221 72.4709 391.298 79.9825C395.138 87.0569 401.014 96.7857 408.694 101.416C410.634 102.586 412.381 103.193 414.841 103.096C416.598 103.027 418.34 102 420.169 102.534C424.798 103.887 423.142 106.575 419.583 107.846C409.411 111.481 400.838 103.491 394.955 97.9091C393.233 104.532 401.22 112.369 405.446 117.772C408.139 121.216 410.802 124.663 413.364 128.177C415.224 130.729 418.881 135.442 412.386 133.471C409.253 147.208 400.653 159.222 396.262 172.572C391.753 186.275 387.824 201.923 387.824 216.194C391.256 214.198 392.987 205.101 397.605 212.063C398.104 212.817 397.947 214.063 398.606 214.721C399.517 215.632 400.613 215.379 402.008 216.028C404.22 217.056 405.647 219.106 403.67 220.884C406.217 220.389 408.884 220.642 409.434 223.158C409.742 224.571 407.265 231.114 405.418 231.648C399.786 233.277 393.541 223.884 392.016 220.897C388.498 223.846 384.444 226.115 381.201 221.344C378.784 217.788 380.187 212.409 380.528 208.538C381.215 200.741 382.111 193.135 383.458 185.413C385.983 170.932 392.393 158.054 400.266 145.02C402.433 141.432 404.835 137.76 406.771 134.089C409.691 128.551 405.122 129.858 400.656 130.662C391.907 132.238 382.746 133.461 373.905 134.019C369.291 134.31 363.381 134.484 358.947 135.598C355.829 136.381 356.364 135.841 355.112 138.63C354.551 139.878 353.919 141.206 352.932 142.275C347.894 147.728 334.846 146.815 327.64 146.409C328.076 144.109 328.508 141.808 328.961 139.511C323.413 140.6 316.824 141.358 311.111 141.302C308.036 141.273 304.764 140.881 301.696 140.668C299.434 140.51 295.146 139.171 293.017 139.692C290.549 140.296 286.816 147.752 285.404 150.156C282.754 154.671 278.018 159.686 276.346 164.44C274.864 168.654 277.889 175.925 278.839 180.12C280.212 186.184 281.464 192.259 283.766 198.139C285.434 202.402 287.358 208.279 292.481 210.405C297.586 212.524 301.255 213.716 306.781 213.285C316.511 212.525 326.862 213.773 336.468 215.353C346.36 216.98 355.418 217.713 364.81 220.612C386.115 227.19 399.681 247.453 391.648 266.015C387.029 276.692 379.418 284.627 368.253 291.232C362.564 294.597 355.843 297.328 349.606 299.922C346.742 301.113 343.927 302.558 341.008 303.616C338.876 304.389 335.21 306.169 332.893 306.364C335.465 307.386 337.74 306.429 340.416 306.112C344.202 305.661 348.069 305.565 351.868 305.173C357.783 304.561 363.61 304.1 369.527 303.486C374.577 302.963 380.275 302.777 385.294 303.38C387.718 303.671 391.367 304.246 393.526 305.222C395.224 305.989 396.781 307.758 398.607 308.633C400.616 301.743 399.677 293.25 399.77 286.169C399.847 280.39 400.156 274.737 400.807 268.985C401.536 262.551 396.825 255.234 395.084 248.932C393.456 243.034 389.119 235.559 390.715 229.402C392.729 221.642 397.999 235.583 398.723 237.577C400.992 243.813 403.625 249.901 406.139 256.064C409.129 263.395 412.142 270.498 416.497 277.368C420.122 283.084 424.287 289.79 431.735 292.579C431.121 284.172 430.438 276.388 426.254 268.637C422.287 261.287 416.237 254.75 413.592 246.875C412.279 242.961 412.086 238.958 412.02 234.916C411.976 232.196 412.126 228.54 415.618 231.473C418.387 233.798 418.924 241.215 420.136 244.346C420.721 245.852 421.529 247.236 422.174 248.701C422.465 249.361 424.42 252.577 424.42 253.008C426.436 258.09 430.894 262.965 434.026 267.641Z" fill="black"/>
<path fill-rule="evenodd" clip-rule="evenodd" d="M220.203 82.3658C220.395 84.3343 221.762 89.4365 220.011 90.9943C217.691 93.0612 216.591 90.4026 215.588 88.3066C213.491 83.9264 212.449 75.4443 216.593 71.7941C220.919 67.9824 229.466 67.8797 234.083 64.0836C235.936 62.5587 235.758 62.877 235.597 60.4929C235.505 59.1469 234.463 57.3583 233.959 56.1484C232.649 53.0045 231.213 49.8985 229.843 46.7731C227.449 47.6847 224.004 50.4967 221.645 48.1396C219.465 45.9604 223.092 42.3896 225.618 41.7525C224.299 39.3441 218.086 39.7894 216.902 36.2516C215.874 33.1769 218.829 34.3987 219.475 33.1878C220.236 31.7628 218.678 29.8364 219.48 28.5233C222.262 23.9643 225.343 32.347 226.728 33.8432C229.306 36.6261 233.796 37.234 234.192 41.4434C234.435 44.035 234.202 45.24 235.48 47.7852C236.657 50.1282 238.055 52.375 239.042 54.7861C240.528 58.419 242.819 65.0304 239.916 68.5481C237.467 71.5153 231.52 73.7772 227.653 75.046C225.716 75.6809 223.031 76.0678 221.465 77.3047C219.42 78.9183 220.057 79.9098 220.203 82.3658Z" fill="black"/>
<path fill-rule="evenodd" clip-rule="evenodd" d="M421.115 192.22C420.673 191.64 420.232 191.06 419.79 190.479C416.73 193.209 413.341 194.331 410.249 190.863C407.064 187.292 408.26 181.938 409.498 178.038C410.135 176.031 413.359 168.118 415.424 174.146C415.879 175.477 414.356 178.439 414.08 179.741C413.538 182.296 413.111 184.746 413.493 187.348C417.08 184.666 418.837 177.865 422.478 184.927C423.798 187.488 423.943 191.705 427.458 187.815C429.335 185.738 429.455 181.904 430.333 179.456C436.325 180.653 435.233 188.055 433.233 191.662C430.048 197.404 425.715 195.555 421.115 192.22Z" fill="black"/>
<path fill-rule="evenodd" clip-rule="evenodd" d="M442.094 63.4024C444.225 66.3717 440.193 71.8018 439.463 74.8505C443.033 74.5052 451.868 67.3114 454.355 68.4975C459.532 70.9659 448.597 79.575 446.496 80.8367C429.704 90.9188 432.731 61.7548 442.094 63.4024Z" fill="black"/>
<path fill-rule="evenodd" clip-rule="evenodd" d="M421.037 96.4688C427.31 95.0098 435.77 104.415 431.7 109.073C428.781 112.414 425.174 110.504 424.26 107.563C423.794 106.062 424.207 104.255 423.597 102.582C422.847 100.522 421.841 98.5157 421.037 96.4688Z" fill="black"/>
<path fill-rule="evenodd" clip-rule="evenodd" d="M228.086 55.9268C232.858 59.2765 223.109 67.443 218.222 61.0483C216.878 59.2894 216.633 57.684 218.626 57.0345C219.633 56.707 222.006 57.7797 223.426 57.59C224.983 57.382 226.675 56.4671 228.086 55.9268Z" fill="black"/>
<path fill-rule="evenodd" clip-rule="evenodd" d="M211.693 42.5321C209.841 40.603 204.639 28.7366 211.086 31.3796C214.324 32.7067 216.999 42.851 211.693 42.5321Z" fill="black"/>
<path fill-rule="evenodd" clip-rule="evenodd" d="M424.559 297.753C424.376 296.255 424.193 294.758 424.01 293.26C426.391 294.274 431.167 295.275 431.996 297.545C433.552 301.81 426.324 298.399 424.559 297.753Z" fill="black"/>
<path fill-rule="evenodd" clip-rule="evenodd" d="M493.661 117.128C492.243 115.528 487.834 102.182 491.659 102.487C492.329 107.329 492.467 112.357 493.661 117.128Z" fill="black"/>
<path fill-rule="evenodd" clip-rule="evenodd" d="M434.026 267.641C430.894 262.965 426.436 258.09 424.42 253.008C429.146 256.204 432.838 262.735 434.026 267.641Z" fill="black"/>
<path fill-rule="evenodd" clip-rule="evenodd" d="M562.504 256.8C562.695 258.495 562.886 260.19 563.077 261.884C560.239 262.497 562.33 257.359 562.504 256.8Z" fill="black"/>
<path fill-rule="evenodd" clip-rule="evenodd" d="M424.426 253.016C423.083 251.794 422.507 250.292 422.174 248.701C422.925 250.139 423.675 251.577 424.426 253.016Z" fill="black"/>
<path fill-rule="evenodd" clip-rule="evenodd" d="M440.674 329.748C440.724 328.239 440.773 326.731 440.823 325.227C440.773 326.736 440.724 328.242 440.674 329.748Z" fill="black"/>
<path fill-rule="evenodd" clip-rule="evenodd" d="M228.429 85.0397C229.631 85.1645 230.834 85.2893 232.036 85.4142C231.087 85.7854 228.852 86.2787 228.429 85.0397Z" fill="black"/>
<path fill-rule="evenodd" clip-rule="evenodd" d="M468.157 345.576C469.408 345.418 470.663 345.059 471.892 345.637C470.645 345.617 469.401 345.597 468.157 345.576Z" fill="black"/>
<path fill-rule="evenodd" clip-rule="evenodd" d="M432.417 311.505C432.434 312.622 432.451 313.739 432.466 314.852C432.448 313.734 432.433 312.62 432.417 311.505Z" fill="black"/>
<path fill-rule="evenodd" clip-rule="evenodd" d="M458.262 294.125C458.183 295.316 458.104 296.507 458.026 297.696C458.105 296.504 458.183 295.315 458.262 294.125Z" fill="black"/>
<path fill-rule="evenodd" clip-rule="evenodd" d="M441.246 298.787C441.178 297.75 441.11 296.714 441.042 295.68C441.11 296.716 441.178 297.752 441.246 298.787Z" fill="black"/>
<path fill-rule="evenodd" clip-rule="evenodd" d="M478.414 307.93C478.346 308.853 478.28 309.777 478.212 310.698C478.28 309.773 478.346 308.852 478.414 307.93Z" fill="black"/>
<path fill-rule="evenodd" clip-rule="evenodd" d="M253.839 331.251C252.622 331.763 251.406 331.814 250.193 331.244C251.409 331.247 252.624 331.249 253.839 331.251Z" fill="black"/>
<path fill-rule="evenodd" clip-rule="evenodd" d="M378.376 52.311C378.393 53.2236 378.411 54.1363 378.428 55.0452C378.409 54.1315 378.393 53.2215 378.376 52.311Z" fill="black"/>
<path fill-rule="evenodd" clip-rule="evenodd" d="M257.549 77.2126C256.302 77.2915 255.056 77.3698 253.811 77.4487C255.056 77.3698 256.303 77.2915 257.549 77.2126Z" fill="black"/>
<path fill-rule="evenodd" clip-rule="evenodd" d="M514.94 80.725C514.934 79.8242 514.927 78.9234 514.922 78.0242C515.494 78.9234 515.505 79.8231 514.94 80.725Z" fill="black"/>
<path fill-rule="evenodd" clip-rule="evenodd" d="M220.202 82.3658C220.145 81.4088 220.089 80.4524 220.032 79.497C220.09 80.4545 220.146 81.4099 220.202 82.3658Z" fill="black"/>
<path fill-rule="evenodd" clip-rule="evenodd" d="M526.391 365.088C527.233 365.093 528.075 365.098 528.909 365.103C528.064 365.098 527.227 365.093 526.391 365.088Z" fill="black"/>
<path fill-rule="evenodd" clip-rule="evenodd" d="M195.151 0.161011C194.045 0.239904 192.938 0.318797 191.831 0.39715C192.938 0.318797 194.045 0.239904 195.151 0.161011Z" fill="black"/>
<path fill-rule="evenodd" clip-rule="evenodd" d="M304.312 353.182C305.026 353.181 305.739 353.181 306.445 353.181C305.728 353.182 305.021 353.182 304.312 353.182Z" fill="black"/>
<path fill-rule="evenodd" clip-rule="evenodd" d="M414.841 103.096C413.758 103.006 412.676 102.915 411.595 102.824C412.677 102.915 413.759 103.006 414.841 103.096Z" fill="black"/>
<path fill-rule="evenodd" clip-rule="evenodd" d="M464.031 351.604C464.098 350.859 464.164 350.114 464.231 349.372C464.164 350.118 464.098 350.861 464.031 351.604Z" fill="black"/>
<path fill-rule="evenodd" clip-rule="evenodd" d="M346.888 93.5554C345.822 93.5473 344.757 93.5398 343.692 93.5322C344.763 93.0145 345.826 93.1626 346.888 93.5554Z" fill="black"/>
<path fill-rule="evenodd" clip-rule="evenodd" d="M204.733 0.4101C203.66 0.381461 202.524 0.848876 201.535 0.137756C202.601 0.228538 203.667 0.319319 204.733 0.4101Z" fill="black"/>
<path fill-rule="evenodd" clip-rule="evenodd" d="M175.731 88.3555C174.701 88.4344 173.672 88.5133 172.643 88.5916C173.673 88.5127 174.701 88.4344 175.731 88.3555Z" fill="black"/>
<path fill-rule="evenodd" clip-rule="evenodd" d="M240.572 330.479C239.488 330.573 238.403 330.668 237.32 330.762C238.404 330.668 239.489 330.573 240.572 330.479Z" fill="black"/>
<path fill-rule="evenodd" clip-rule="evenodd" d="M267.56 76.6672C266.503 76.6861 265.445 76.705 264.389 76.7239C265.437 76.3732 266.486 76.0425 267.56 76.6672Z" fill="black"/>
<path fill-rule="evenodd" clip-rule="evenodd" d="M440.635 318.262C440.629 317.496 440.623 316.731 440.617 315.967C440.623 316.733 440.629 317.498 440.635 318.262Z" fill="black"/>
<path fill-rule="evenodd" clip-rule="evenodd" d="M562.893 253.332C562.779 254.258 562.664 255.183 562.551 256.108C562.664 255.183 562.779 254.258 562.893 253.332Z" fill="black"/>
<path fill-rule="evenodd" clip-rule="evenodd" d="M425.706 312.989C425.627 312.201 425.549 311.413 425.471 310.627C425.549 311.416 425.628 312.202 425.706 312.989Z" fill="black"/>
<path fill-rule="evenodd" clip-rule="evenodd" d="M70.0707 305.751C69.8773 306.536 69.1916 306.691 68.0137 306.214L70.0707 305.751Z" fill="black"/>
<path fill-rule="evenodd" clip-rule="evenodd" d="M465.174 306.1C465.111 305.415 465.049 304.731 464.987 304.048C465.05 304.733 465.112 305.416 465.174 306.1Z" fill="black"/>
<path fill-rule="evenodd" clip-rule="evenodd" d="M243.651 78.3165C242.762 78.4176 241.872 78.5181 240.982 78.6191C241.872 78.5181 242.762 78.4176 243.651 78.3165Z" fill="black"/>
<path fill-rule="evenodd" clip-rule="evenodd" d="M431.882 300.265C431.88 300.937 431.879 301.609 431.877 302.279C431.879 301.606 431.88 300.935 431.882 300.265Z" fill="black"/>
<path fill-rule="evenodd" clip-rule="evenodd" d="M378.216 58.9444C378.217 59.5804 378.218 60.2159 378.218 60.8486C378.218 60.2121 378.217 59.5782 378.216 58.9444Z" fill="black"/>
<path fill-rule="evenodd" clip-rule="evenodd" d="M53.7135 207.905C53.6255 208.575 53.5375 209.246 53.4502 209.913C53.5382 209.242 53.6255 208.574 53.7135 207.905Z" fill="black"/>
<path fill-rule="evenodd" clip-rule="evenodd" d="M586.678 253.972C586.631 253.341 586.583 252.71 586.536 252.082C586.583 252.714 586.631 253.343 586.678 253.972Z" fill="black"/>
<path fill-rule="evenodd" clip-rule="evenodd" d="M127.174 337.27C126.254 337.258 125.335 337.246 124.416 337.234C125.346 336.701 126.263 336.815 127.174 337.27Z" fill="black"/>
<path fill-rule="evenodd" clip-rule="evenodd" d="M234.214 42.3912C234.199 41.7584 234.184 41.1257 234.169 40.4951C234.642 41.1213 234.793 41.7503 234.214 42.3912Z" fill="black"/>
<path fill-rule="evenodd" clip-rule="evenodd" d="M160.822 34.3657C160.886 33.7416 160.95 33.1175 161.014 32.4971C160.95 33.1223 160.886 33.7438 160.822 34.3657Z" fill="black"/>
<path fill-rule="evenodd" clip-rule="evenodd" d="M464.633 252.844C464.601 252.156 464.569 251.468 464.539 250.782C464.57 251.47 464.601 252.157 464.633 252.844Z" fill="black"/>
<path fill-rule="evenodd" clip-rule="evenodd" d="M458.716 288.381C458.694 289.03 458.671 289.679 458.647 290.324C458.669 289.674 458.693 289.028 458.716 288.381Z" fill="black"/>
<path fill-rule="evenodd" clip-rule="evenodd" d="M352.917 350.947C353.494 350.946 354.07 350.945 354.639 350.945C354.061 350.947 353.489 350.947 352.917 350.947Z" fill="black"/>
<path fill-rule="evenodd" clip-rule="evenodd" d="M72.6401 351.276C73.2152 351.289 73.7896 351.302 74.3575 351.315C73.7805 351.302 73.21 351.289 72.6401 351.276Z" fill="black"/>
<path fill-rule="evenodd" clip-rule="evenodd" d="M420.31 294.338C414.704 290.719 409.816 285.307 408.678 279.513C411.089 281.789 413.116 284.328 415.527 286.602C416.486 287.505 417.661 288.283 418.581 289.202C420.679 291.301 420.31 291.394 420.31 294.338Z" fill="black"/>
<path fill-rule="evenodd" clip-rule="evenodd" d="M400.615 269.876C397.924 264.698 395.588 258.417 396.057 252.705C397.913 257.891 402.22 264.406 400.615 269.876Z" fill="black"/>
<path fill-rule="evenodd" clip-rule="evenodd" d="M409.642 300.323C409.597 301.827 409.551 303.33 409.508 304.829C409.554 303.324 409.598 301.824 409.642 300.323Z" fill="black"/>
<path fill-rule="evenodd" clip-rule="evenodd" d="M53.8096 341.182C55.6486 341.274 57.4882 341.365 59.3272 341.456C57.4798 341.477 55.6078 341.851 53.8096 341.182Z" fill="black"/>
<path fill-rule="evenodd" clip-rule="evenodd" d="M409.633 295.357C409.639 296.639 409.646 297.921 409.653 299.2C409.646 297.917 409.639 296.637 409.633 295.357Z" fill="black"/>
<path fill-rule="evenodd" clip-rule="evenodd" d="M334.071 146.733C333.035 146.688 331.999 146.642 330.972 146.597C332.01 146.642 333.041 146.688 334.071 146.733Z" fill="black"/>
<path fill-rule="evenodd" clip-rule="evenodd" d="M350.913 114.849C350.909 113.809 350.905 112.769 350.901 111.73C350.905 112.771 350.909 113.81 350.913 114.849Z" fill="black"/>
<path fill-rule="evenodd" clip-rule="evenodd" d="M328.678 140.943C328.631 140.211 328.165 139.843 327.278 139.838C329.057 139.035 329.524 139.404 328.678 140.943Z" fill="black"/>
<path fill-rule="evenodd" clip-rule="evenodd" d="M381.429 198.813C381.498 197.887 381.568 196.961 381.637 196.038C381.568 196.964 381.498 197.889 381.429 198.813Z" fill="black"/>
<path fill-rule="evenodd" clip-rule="evenodd" d="M79.9204 341.836C81.1611 341.764 82.4017 341.692 83.6424 341.62C82.4011 341.692 81.1611 341.764 79.9204 341.836Z" fill="black"/>
<path fill-rule="evenodd" clip-rule="evenodd" d="M340.496 216.167L344.188 216.145C342.957 216.153 341.726 216.16 340.496 216.167Z" fill="black"/>
<path fill-rule="evenodd" clip-rule="evenodd" d="M375.734 103.369C374.875 103.375 374.017 103.381 373.167 103.386C374.028 103.38 374.881 103.375 375.734 103.369Z" fill="black"/>
<path fill-rule="evenodd" clip-rule="evenodd" d="M554.697 353.838C555.773 353.834 556.849 353.83 557.925 353.826C556.852 354.392 555.776 354.378 554.697 353.838Z" fill="black"/>
<path fill-rule="evenodd" clip-rule="evenodd" d="M102.857 229.392C102.127 229.41 101.397 229.427 100.675 229.444C101.407 229.427 102.132 229.41 102.857 229.392Z" fill="black"/>
<path fill-rule="evenodd" clip-rule="evenodd" d="M490.426 94.7174C491.117 95.274 490.209 96.5536 489.386 96.1126C489.733 95.6474 490.08 95.1827 490.426 94.7174Z" fill="black"/>
<path fill-rule="evenodd" clip-rule="evenodd" d="M153.078 285.734C153.108 284.947 153.139 284.159 153.169 283.374C153.138 284.161 153.108 284.948 153.078 285.734Z" fill="black"/>
<path fill-rule="evenodd" clip-rule="evenodd" d="M399.771 286.17C399.82 285.348 399.87 284.527 399.919 283.707C399.869 284.528 399.82 285.349 399.771 286.17Z" fill="black"/>
<path fill-rule="evenodd" clip-rule="evenodd" d="M571.93 200.566C571.97 201.388 572.012 202.21 572.052 203.03C572.011 202.207 571.97 201.386 571.93 200.566Z" fill="black"/>
<path fill-rule="evenodd" clip-rule="evenodd" d="M239.489 293.707C240.591 293.786 241.693 293.864 242.795 293.942C241.693 293.864 240.59 293.786 239.489 293.707Z" fill="black"/>
<path fill-rule="evenodd" clip-rule="evenodd" d="M390.635 230.627C390.688 229.809 390.743 228.992 390.796 228.177C390.742 228.995 390.688 229.811 390.635 230.627Z" fill="black"/>
<path fill-rule="evenodd" clip-rule="evenodd" d="M199.139 246.168C200.238 246.253 201.336 246.337 202.434 246.422C201.336 246.337 200.238 246.252 199.139 246.168Z" fill="black"/>
<path fill-rule="evenodd" clip-rule="evenodd" d="M296.332 317.608C295.625 317.609 294.918 317.609 294.218 317.609C294.928 317.608 295.631 317.608 296.332 317.608Z" fill="black"/>
<path fill-rule="evenodd" clip-rule="evenodd" d="M358.724 117.922C358.682 118.685 358.64 119.448 358.599 120.208C358.642 119.444 358.683 118.683 358.724 117.922Z" fill="black"/>
<path fill-rule="evenodd" clip-rule="evenodd" d="M374.395 303.118C375.482 302.472 376.54 302.898 377.601 303.178C376.532 303.158 375.464 303.138 374.395 303.118Z" fill="black"/>
<path fill-rule="evenodd" clip-rule="evenodd" d="M247.281 84.6562C246.566 84.6317 245.851 84.6068 245.144 84.5796C245.862 84.604 246.571 84.6301 247.281 84.6562Z" fill="black"/>
<path fill-rule="evenodd" clip-rule="evenodd" d="M420.613 317.158C420.548 316.398 420.484 315.638 420.42 314.88C420.484 315.642 420.548 316.4 420.613 317.158Z" fill="black"/>
<path fill-rule="evenodd" clip-rule="evenodd" d="M362.07 231.352C361.481 231.356 360.891 231.359 360.309 231.363C360.901 231.361 361.486 231.356 362.07 231.352Z" fill="black"/>
<path fill-rule="evenodd" clip-rule="evenodd" d="M386.929 258.962C386.929 258.329 386.93 257.694 386.931 257.064C386.93 257.699 386.929 258.331 386.929 258.962Z" fill="black"/>
<path fill-rule="evenodd" clip-rule="evenodd" d="M349.223 305.46C350.106 305.364 350.988 305.269 351.87 305.173C350.987 305.269 350.104 305.364 349.223 305.46Z" fill="black"/>
<path fill-rule="evenodd" clip-rule="evenodd" d="M311.063 213.219C312.02 213.214 312.976 213.209 313.932 213.204C312.979 213.673 312.022 213.585 311.063 213.219Z" fill="black"/>
<path fill-rule="evenodd" clip-rule="evenodd" d="M360.59 135.611C360.037 135.606 359.485 135.602 358.939 135.598C359.494 135.602 360.042 135.606 360.59 135.611Z" fill="black"/>
<path fill-rule="evenodd" clip-rule="evenodd" d="M197.323 253.221C196.753 253.214 196.184 253.208 195.621 253.201C196.194 253.208 196.758 253.214 197.323 253.221Z" fill="black"/>
<path fill-rule="evenodd" clip-rule="evenodd" d="M87.2544 222.009C88.2085 222.017 89.1626 222.026 90.1167 222.034C89.1568 222.484 88.2027 222.496 87.2544 222.009Z" fill="black"/>
<path fill-rule="evenodd" clip-rule="evenodd" d="M572.022 223.328C571.961 223.936 571.901 224.544 571.844 225.149C571.904 224.539 571.963 223.933 572.022 223.328Z" fill="black"/>
<path fill-rule="evenodd" clip-rule="evenodd" d="M329.122 321.062C329.202 320.398 329.284 319.734 329.365 319.072C329.283 319.737 329.202 320.399 329.122 321.062Z" fill="black"/>
<path fill-rule="evenodd" clip-rule="evenodd" d="M174.847 241.942C175.81 241.954 176.775 241.966 177.739 241.977C176.765 242.537 175.807 242.184 174.847 241.942Z" fill="black"/>
<path fill-rule="evenodd" clip-rule="evenodd" d="M394.648 125.366C395.586 125.277 396.523 125.188 397.461 125.1C396.523 125.188 395.586 125.277 394.648 125.366Z" fill="black"/>
<path fill-rule="evenodd" clip-rule="evenodd" d="M316.286 338.187C316.371 338.885 316.456 339.582 316.54 340.278C316.455 339.58 316.37 338.884 316.286 338.187Z" fill="black"/>
<path fill-rule="evenodd" clip-rule="evenodd" d="M399.786 292.307C399.785 291.656 399.783 291.005 399.782 290.357C399.784 291.009 399.785 291.658 399.786 292.307Z" fill="black"/>
<path fill-rule="evenodd" clip-rule="evenodd" d="M59.7837 341.549C60.6912 341.649 61.5988 341.748 62.5056 341.848C61.5981 341.748 60.6906 341.649 59.7837 341.549Z" fill="black"/>
<path fill-rule="evenodd" clip-rule="evenodd" d="M76.8091 341.855C77.705 341.244 78.6145 341.431 79.5272 341.823C78.6209 341.834 77.7147 341.844 76.8091 341.855Z" fill="black"/>
<path fill-rule="evenodd" clip-rule="evenodd" d="M240.52 252.199C241.408 252.109 242.295 252.018 243.181 251.927C242.294 252.018 241.407 252.109 240.52 252.199Z" fill="black"/>
<path fill-rule="evenodd" clip-rule="evenodd" d="M339.129 345.301C340.034 345.2 340.938 345.099 341.842 344.998C340.937 345.099 340.034 345.2 339.129 345.301Z" fill="black"/>
<path fill-rule="evenodd" clip-rule="evenodd" d="M307.5 346.475C308.422 346.376 309.344 346.277 310.266 346.178C309.344 346.277 308.422 346.376 307.5 346.475Z" fill="black"/>
<path fill-rule="evenodd" clip-rule="evenodd" d="M358.275 122.536C358.234 123.158 358.193 123.781 358.154 124.399C358.195 123.776 358.235 123.156 358.275 122.536Z" fill="black"/>
<path fill-rule="evenodd" clip-rule="evenodd" d="M141.059 270.85C141.141 270.19 141.223 269.529 141.306 268.871C141.223 269.532 141.141 270.191 141.059 270.85Z" fill="black"/>
<path fill-rule="evenodd" clip-rule="evenodd" d="M351.154 106.448C351.178 105.8 351.202 105.152 351.226 104.508C351.203 105.156 351.178 105.802 351.154 106.448Z" fill="black"/>
<path fill-rule="evenodd" clip-rule="evenodd" d="M175.01 263.505C175.092 264.166 175.173 264.828 175.254 265.486C175.173 264.824 175.091 264.165 175.01 263.505Z" fill="black"/>
<path fill-rule="evenodd" clip-rule="evenodd" d="M178.066 241.949C179.002 242.035 179.937 242.121 180.872 242.208C179.936 242.121 179.001 242.035 178.066 241.949Z" fill="black"/>
<path fill-rule="evenodd" clip-rule="evenodd" d="M326.966 338.365C327.499 339.671 327.303 342.709 325.791 343.629C322.653 345.54 322.33 342.051 321.707 340.166C319.98 334.938 317.197 329.1 316.489 323.725C316.271 322.076 316.153 318.988 318.764 318.432C321.284 317.896 322.561 321.231 323.43 322.944C325.841 327.697 327.239 333.211 326.966 338.365Z" fill="black"/>
<path fill-rule="evenodd" clip-rule="evenodd" d="M326.966 338.365C327.002 337.689 327.038 337.014 327.074 336.342C327.037 337.018 327.002 337.691 326.966 338.365Z" fill="black"/>
</g>
<defs>
<clipPath id="clip0_322_23">
<rect width="662.378" height="415" fill="white" transform="translate(0.622559)"/>
</clipPath>
</defs>
</svg>
