<svg width="550" height="479" viewBox="0 0 550 479" fill="none" xmlns="http://www.w3.org/2000/svg">
<path fill-rule="evenodd" clip-rule="evenodd" d="M199.867 121.291C199.489 128.484 199.109 135.675 198.73 142.867C201.168 142.052 216.676 136.754 215.718 142.126C215.031 145.979 210.671 150.147 208.449 152.83C206.405 155.3 204.3 157.705 202.141 160.04C206.109 158.277 210.11 156.606 214.139 155.044C217.188 153.861 220.26 152.707 223.384 151.821C224.544 151.492 227.675 150.149 228.771 151.065C231.65 153.471 216.029 171.192 213.889 173.69C216.915 172.056 220.013 170.571 223.164 169.298C225.439 168.378 232.468 164.864 234.481 167.865C236.636 171.076 231.297 178.449 229.817 180.787C227.696 184.136 225.397 187.349 222.985 190.422C233.01 200.878 244.791 210.185 257.328 215.969C266.521 220.211 275.551 221.29 285.252 218.963C295.217 216.571 304.775 211.985 313.86 206.742C319.196 203.662 324.461 200.33 329.477 196.587C327.409 193.665 325.401 190.684 323.451 187.657C320.667 183.334 317.245 178.611 315.657 173.466C314.104 168.43 319.932 169.413 322.728 169.687C326.777 170.083 330.815 170.923 334.782 171.929C331.977 169.663 329.223 167.306 326.523 164.873C323.005 161.703 318.313 158.117 316.01 153.556C313.985 149.544 318.429 150.557 320.484 151.083C325.384 152.336 330.151 154.472 334.824 156.555C338.246 158.081 341.647 159.678 345.015 161.361C342.924 159.251 340.904 157.039 338.962 154.746C336.352 151.664 332.832 147.901 331.661 143.657C329.278 135.014 345.31 141.534 348.047 142.867C347.541 133.914 347.036 124.961 346.531 116.008C325.303 122.567 304.075 129.126 282.847 135.686C280.553 136.395 277.682 137.939 275.29 138.021C273.123 138.097 270.505 136.964 268.392 136.495L229.978 127.972C219.941 125.745 209.904 123.518 199.867 121.291Z" fill="#3858D6"/>
<path fill-rule="evenodd" clip-rule="evenodd" d="M428.02 429.239C425.728 430.761 423.044 431.937 420.498 432.726C419.003 433.19 416.532 434.621 415.218 433.309C414.588 432.679 414.443 431.248 414.071 430.419C413.482 429.107 412.645 427.973 411.861 426.813C409.96 424.002 407.982 421.29 405.913 418.645C404.932 417.392 403.141 414.466 401.413 414.658C399.259 414.898 399.311 418.36 399.851 420.129C401.569 425.759 406.771 430.668 410.169 434.91C409.305 436.454 404.56 436.27 403.243 435.909C401.231 435.357 401.028 433.694 400.11 431.791C397.962 427.345 393.606 424.857 390.025 422.243C388.719 421.289 385.944 418.647 384.243 419.312C382.63 419.942 382.7 422.334 383.214 423.896C383.989 426.256 386.196 427.894 387.828 429.386C390.005 431.374 391.995 433.538 393.808 435.973C391.194 436.22 388.59 436.648 385.982 436.898C382.829 437.2 380.201 435.191 377.298 434.052C374.601 432.993 371.913 432.099 369.26 430.879C366.283 429.509 363.163 429.033 360.159 427.831C348.37 423.117 336.819 417.187 325.459 411.209C320.045 408.361 314.744 405.511 309.103 403.282C304.993 401.657 298.533 398.419 297.551 392.733C297.032 389.729 298.922 386.498 299.2 383.497C299.527 379.966 299.27 376.081 298.344 372.693C297.527 369.708 296.174 366.944 295.108 364.079C293.866 360.739 294.978 360.793 297.391 360.413C300.279 359.958 303.65 358.07 306.365 356.841C309.493 355.423 312.594 353.443 315.458 351.407C318.049 349.566 320.304 347.192 322.366 344.615C324.464 341.992 325.823 338.885 327.852 336.198C335.338 346.89 342.455 357.745 350.41 367.975C354.165 372.804 358.248 376.796 362.875 380.467C364.807 382.002 366.724 383.752 368.829 384.964C371.461 386.482 374.404 387.423 377.109 388.807C387.483 394.115 397.383 399.917 407.061 406.766C411.743 410.078 415.672 413.877 419.795 418.033C421.079 419.326 431.59 426.866 428.02 429.239ZM306.329 341.646C304.653 342.528 303.055 343.673 301.266 344.239C301.773 340.657 304.652 335.253 308.343 335.848C309.754 336.074 310.817 337.346 310.198 339.099C309.634 340.693 307.523 341.019 306.329 341.646ZM189.641 244.478C187.74 245.697 185.969 246.406 184.855 243.791C185.68 243.599 189.43 243.019 189.641 244.478ZM186.476 237.085C185.008 236.567 186.182 236.024 186.687 235.399C187.081 234.914 188.385 233.21 188.841 232.929C190.855 231.689 192.413 236.3 193.376 237.797C191.095 237.562 188.696 237.866 186.476 237.085ZM202.18 253.05C199.396 253.598 199.705 249.553 199.788 247.504C200.375 248.337 204.35 252.623 202.18 253.05ZM211.405 246.064C208.011 246.729 205.769 239.92 206.377 236.942C206.912 234.318 209.543 232.854 211.636 232.467C213.666 232.091 216.492 232.603 217.094 235.321C217.627 237.723 213.667 245.621 211.405 246.064ZM291.742 348.852C289.303 349.722 286.913 349.832 284.462 350.686C281.681 351.655 279.107 351.569 276.32 352.229C275.186 352.497 272.127 354.415 271.021 353.987C269.926 353.562 268.34 349.614 267.711 348.588C272.642 346.208 276.848 343.135 280.098 338.12C282.683 334.132 285.454 328.157 283.828 323.01C281.994 317.207 275.674 315.947 271.459 318.371C269.465 319.517 267.489 320.943 265.846 322.689C263.966 324.686 263.227 326.867 262.01 329.33C260.778 331.821 259.914 330.435 258.684 328.32C257.633 326.512 257.77 324.686 256.456 322.901C255.785 321.991 254.747 321.113 254.398 319.937C254.176 319.192 254.643 317.87 254.223 317.283C253.631 316.459 252.911 317.428 252.416 316.691C252.056 316.157 252.173 314.937 251.801 314.268C251.479 313.888 251.121 313.563 250.724 313.294C250.243 313.018 250.155 312.672 250.46 312.257C250.078 311.435 250.446 311.157 249.627 310.157C248.35 308.597 247.185 307.102 246.276 305.262C245.861 304.419 245.902 303.169 245.385 302.44C244.677 301.439 243.497 301.589 242.888 300.35C242.345 299.245 242.708 297.314 241.814 296.311C241.342 296.155 240.87 296.001 240.398 295.85C240.042 295.449 239.835 294.963 239.776 294.391C239.279 293.502 239.181 292.459 238.553 291.52C237.352 289.725 235.737 288.067 234.676 286.174C233.561 284.185 234.153 283.85 236.09 283.138C237.836 282.495 239.432 281.899 241.051 280.805C248.537 275.746 255.634 262.327 243.752 258.228C239.342 256.706 235.72 252.615 230.831 254.223C228.711 254.921 226.701 256.405 225.12 258.166C224.027 259.384 223.015 262.64 221.674 263.264C219.262 264.386 220.282 261.584 219.598 260.296C219.271 259.682 217.955 258.974 217.468 258.415C216.895 257.76 216.342 256.932 215.945 256.121C215.208 254.616 214.756 253.777 213.693 252.552C213.292 252.089 211.29 249.698 213.095 250.011C212.364 247.423 213.431 247.035 214.906 245.144C216.638 242.924 218.426 239.839 218.436 236.729C218.456 230.757 212.362 228.081 208.534 231.626C207.756 232.347 203.149 239.31 204.092 234.87C204.6 232.475 209.305 226.223 211.486 227.841C209.042 223.703 203.427 233.749 202.116 235.804C201 233.418 200.921 231.551 199.074 229.704C197.571 232.504 198.365 229.444 198.033 228.822C197.317 227.479 197.71 229.015 197.322 228.538C196.839 227.944 196.077 227.475 195.563 226.688C194.682 228.077 195.034 226.583 194.764 226.064C194.133 224.851 194.377 224.149 193.295 223.094C192.507 222.327 190.956 221.137 189.897 221.028C188.675 220.902 188.336 221.446 187.091 221.043C185.507 220.532 183.514 219.747 184.281 222.823C184.837 225.058 187.101 226.329 187.597 228.613C188.096 230.912 186.138 233.229 185.188 235.114C183.969 237.532 182.971 237.334 180.762 237.879C179.349 238.228 177.465 238.973 178.676 240.963C179.541 242.384 181.567 242.085 182.709 242.927C184.31 244.107 184.288 247.017 186.331 247.523C188.582 248.081 189.871 245.171 191.768 244.468C193.118 243.969 197.297 244.025 198.359 245.201C199.806 246.804 198.556 249.866 198.92 251.857C199.462 254.81 201.182 254.991 203.358 255.085C206.037 255.201 206.978 258.188 208.419 260.557C211.793 266.106 214.726 272.021 218.182 277.496C219.712 279.92 221.95 282.076 223.203 284.707C224.75 287.957 222.602 289.83 220.749 292.162C218.327 295.21 216.519 298.678 214.418 302.009C212.552 304.969 210.232 304.232 207.249 304.232C207.914 302.641 208.714 301.648 210.349 301.841C208.639 299.417 207.272 302.19 206.162 303.726C204.558 305.948 202.466 306.484 200.404 307.945C199.675 308.462 195.703 311.812 196.91 312.956C197.047 313.086 203.622 308.063 204.371 307.602C204.371 309.457 204.022 311.383 204.245 313.227C204.409 314.579 205.228 315.989 205.054 317.395C204.723 320.049 201.77 322.139 200.502 324.207C199.548 325.763 199.778 326.991 199.292 328.661C198.849 330.185 199.082 329.724 197.978 330.194C195.731 331.153 191.948 330.636 189.913 329.273C188.65 328.427 187.681 327.09 186.655 325.911C185.882 325.023 183.937 323.505 183.723 322.262C183.354 320.122 187.013 316.145 187.738 313.937C189.783 307.707 186.275 302.864 180.817 302.51C182.499 301.003 184.585 302.138 186.358 302.713C183.327 297.836 178.15 301.849 175.579 305.164C173.822 300.007 172.975 294.567 171.901 289.189C171.17 285.527 168.388 278.991 169.629 275.221C170.229 273.398 171.923 272.382 173.094 271.118C174.426 269.682 175.566 267.965 176.539 266.187C178.832 261.999 180.156 256.713 176.999 252.586C177.958 252.403 178.918 252.22 179.878 252.036C178.317 250.334 175.855 251.163 173.83 250.658C172.545 250.338 168.848 250.546 167.99 249.701C166.958 248.686 167.62 244.014 167.657 242.632C167.741 239.401 167.974 236.294 168.281 233.082C168.572 230.048 168.514 226.771 169.054 223.79C169.492 221.371 170.893 220.634 172.509 219.209C176.372 215.8 179.52 211.654 178.2 205.781C178.668 205.694 179.135 205.608 179.603 205.522C178.091 204.253 176.135 204.714 174.454 204.044C175.998 198.998 179.412 190.128 184.956 189.65C185.147 191.906 185.017 194.588 186.327 196.456C187.819 198.581 190.438 198.795 192.459 197.671C194.293 196.649 196.015 194.485 196.86 192.347C197.432 190.9 197.329 188.452 198.333 187.305C199.679 185.766 208.961 186.694 208.677 189.292C208.509 190.819 206.027 193.385 205.334 194.739C204.064 197.215 203.048 199.894 202.582 202.739C201.874 207.058 202.284 212.761 206.061 215.032C210.358 217.615 215.594 214.331 219.117 211.493C221.052 209.935 222.926 208.215 224.693 206.409C225.634 205.449 226.58 204.458 227.41 203.366C228.023 202.559 228.512 201.258 229.266 200.654C231.048 199.227 232.794 201.648 234.302 202.871C236.757 204.864 239.201 206.756 241.837 208.413C247.185 211.778 252.076 216.235 256.805 220.66C261.562 225.111 266.466 229.691 270.32 235.236C267.986 236.903 268.402 237.336 267.364 240.31C266.627 242.42 265.612 244.216 265.495 246.561C265.292 250.608 267.53 254.057 270.925 254.952C272.824 255.453 274.633 255.052 276.392 254.151C277.759 253.45 279.123 251.725 280.551 251.297C283.206 250.502 285.331 256.327 286.82 258.379C293.431 267.492 300.418 276.244 306.643 285.729C307.333 286.78 309.381 288.832 309.547 290.223C309.786 292.221 307.08 294.124 305.958 295.269C305.368 295.87 299.118 302.697 301.217 303.782C301.815 304.091 303.566 299.903 304.004 299.544C305.643 298.203 304.403 300.832 304.306 302.161C304.061 305.464 306.015 307.264 308.761 306.845C311.692 306.399 314.301 303.712 316.115 301.174C318.388 304.231 321.941 308.852 322.598 312.935C323.018 315.544 321.074 321.928 324.703 322.461C325.256 322.542 327.261 320.815 327.635 321.795C327.946 322.614 325.78 324.012 325.467 324.283C324.131 325.441 323.325 326.681 322.247 328.083C320.981 329.728 319.252 331.115 317.828 332.692C316.328 334.353 313.361 338.865 311.381 336.685C310.386 335.59 310.648 334.157 309.054 333.514C307.603 332.929 305.765 333.671 304.416 334.321C302.898 335.051 297.898 337.718 297.343 339.914C296.578 342.942 300.711 339.302 301.445 338.769C300.607 341.24 300.144 344.815 298.01 346.256C296.237 347.453 293.687 348.157 291.742 348.852ZM263.4 330.17C264.818 324.874 273.187 315.431 278.476 318.384C272.312 319.884 267.42 324.783 263.4 330.17ZM266.529 345.336C264.466 344.001 264.577 340.124 263.857 337.856C263.444 336.555 262.618 335.604 262.861 334.16C263.145 332.467 265.005 330.585 265.995 329.363C269.11 325.52 274.593 320.268 279.607 321.149C285.99 322.271 281.663 332.221 279.489 335.647C277.637 338.569 270.499 347.906 266.529 345.336ZM251.639 338.859C244.737 338.324 237.858 337.607 231.049 336.136C228.636 335.614 226.613 335.691 227.994 332.469C228.45 331.405 231.2 324.739 231.821 324.93C232.189 325.043 232.105 329.625 232.213 330.15C232.7 332.509 234.069 334.707 236.376 334.557C240.152 334.313 242.585 328.645 244.573 325.602C246.165 328.088 247.318 330.85 248.919 333.295C249.684 334.464 252.348 337.182 251.639 338.859ZM211.172 307.396C210.014 310.482 207.685 313.417 206.065 316.212C205.149 313.961 204.505 308.794 206.678 307.129C207.5 306.5 211.904 305.445 211.172 307.396ZM235.111 316.585C235.43 315.397 235.783 314.219 236.177 313.062C236.852 315.53 237.197 315.603 235.111 316.585ZM241.02 319.113C241.858 320.762 243.254 322.383 243.035 324.454C242.869 326.023 241.647 327.632 240.775 328.725C239.332 330.534 236.134 334.006 234.042 331.604C232.295 329.597 232.903 324.08 233.716 321.823C234.877 318.597 239.023 315.184 241.02 319.113ZM236.921 315.733C237.401 315.512 236.392 311.912 237.328 311.554C238.145 313.716 238.915 314.302 236.921 315.733ZM223.731 267.295C223.42 265.967 222.707 266.023 222.964 264.381C223.132 263.305 223.868 262.155 224.426 261.302C225.538 259.602 227.006 258.201 228.593 257.14C231.942 254.901 236.543 253.971 239.541 257.476C236.738 257.99 228.143 261.204 228.088 265.657C231.206 264.96 233.657 261.323 236.785 260.177C239.351 259.236 242.135 259.302 244.688 260.296C251.678 263.014 248.771 270.029 244.826 274.586C242.485 277.291 239.676 279.311 236.607 280.704C235.186 281.349 234.314 281.421 232.918 281.096C232.656 281.036 232.351 280.472 232.037 280.352C231.258 280.052 231.484 281.067 230.842 280.611C230.282 280.214 229.087 277.647 228.706 276.912C228.1 275.743 227.817 274.605 227.073 273.538C226.328 272.47 225.966 271.038 225.276 270.071C224.946 269.606 224.039 269.625 223.795 269.171C223.43 268.489 223.895 267.993 223.731 267.295ZM212.997 319.612C214.586 316.407 217.304 313.686 219.406 310.884C219.536 315.489 216.692 318.642 212.997 319.612ZM215.144 321.092C218.425 319.752 220.232 316.545 220.567 312.657C220.991 307.731 223.654 305.146 225.258 300.721C225.873 299.026 226.589 293.446 228.972 295.043C229.79 295.591 230.275 297.651 230.701 298.582C231.732 300.833 232.903 303.016 233.996 305.227C234.887 307.028 236.221 308.838 235.828 311.005C235.486 312.894 234.384 314.908 233.738 316.689C232.215 320.898 230.213 324.774 228.54 328.89C227.865 330.55 227.067 334.481 225.006 334.461C223.376 334.445 223.558 332.375 222.484 331.665C221.129 330.769 219.588 332.474 218.475 333.18C219.756 330.667 221.998 329.243 224.517 329.717C221.501 326.228 219.463 330.935 216.874 331.983C214.421 332.977 210.069 328.292 208.003 326.965C208.794 325.411 209.508 323.511 210.866 322.488C212.155 321.518 213.737 321.667 215.144 321.092ZM188.472 352.971C188.831 350.963 189.846 349.775 190.49 347.951C191.236 350.163 189.489 351.468 188.472 352.971ZM240.594 365.297C240.418 372.061 239.942 378.807 239.771 385.573C239.691 388.693 239.216 391.669 238.9 394.753C238.633 397.362 238.769 399.923 237.355 402.151C235.126 405.664 230.792 406.674 227.428 407.976C224.957 408.931 222.458 409.798 220.018 410.86C217.822 411.815 216.053 413.263 213.965 414.398C212.098 415.415 210.082 416.017 208.223 417.099C206.3 418.219 204.78 419.584 202.805 420.58C200.441 421.774 198.493 423.897 196.39 425.582C194.539 427.066 192.581 428.212 190.989 430.077C189.496 431.828 187.606 432.595 185.913 434.15C184.124 435.795 182.251 436.863 180.275 438.153C176.226 440.795 170.763 445.308 165.89 442.741C167.283 440.674 170.136 438.687 170.353 435.839C170.635 432.129 167.854 433.495 166.244 434.68C163.805 436.474 162.456 438.64 160.599 441.032C158.428 443.827 155.687 441.946 153.031 441.16C154.847 439.262 156.648 437.346 158.461 435.444C159.991 433.839 162.332 432.103 163.264 429.884C163.93 428.297 163.898 426.122 162.291 425.298C160.492 424.377 158.459 426.319 157.127 427.476C153.592 430.548 151.263 434.443 148.942 438.718C147.707 440.991 147.138 440.817 144.867 440.362C142.459 439.881 140.052 439.367 137.624 439.03C140.84 435.195 144.433 431.041 146.973 426.554C147.795 425.101 148.868 421.269 146.362 420.917C145.329 420.772 143.273 423.224 142.476 423.885C138.994 426.776 135.646 430.421 133.338 434.64C132.576 436.033 132.337 437.582 130.862 437.698C128.933 437.849 125.349 435.712 123.489 435.051C127.045 429.846 130.576 424.603 134.73 420.013C138.547 415.794 142.355 412.73 146.819 409.495C151.604 406.027 156.061 402.035 160.453 397.938C164.658 394.016 169.051 390.317 172.922 385.938C180.653 377.191 187.539 367.131 193.242 356.495C194.576 354.006 195.832 351.452 196.918 348.804C197.937 346.317 198.408 343.342 199.784 341.08C200.26 340.298 200.93 339.718 201.354 338.902C201.753 338.134 201.618 337.206 202.228 336.526C203.637 334.954 206.205 335.902 207.523 337.004C209.642 338.775 211.356 340.926 213.686 342.409C216.029 343.9 218.563 344.985 221.157 345.718C227.22 347.429 233.231 348.834 239.408 349.874C238.772 352.611 240.333 353.043 240.85 355.506C241.478 358.494 240.673 362.253 240.594 365.297ZM182.214 319.653C180.839 317.281 179.613 314.801 178.261 312.414C177.439 310.96 176.419 309.399 177.122 307.621C178.306 304.623 182.486 304.09 184.753 305.397C189.909 308.368 185.12 316.862 182.214 319.653ZM168.567 265.411C168.093 260.775 169.619 257.487 173.231 255.056C175.804 253.324 177.877 255.691 177.526 258.849C176.991 263.66 172.563 269.012 169.185 271.522C168.964 269.487 168.776 267.448 168.567 265.411ZM168.017 252.148C169.082 251.166 171.935 252.419 173.169 252.504C171.472 254.226 169.774 255.949 168.077 257.671C167.966 256.489 167.034 253.054 168.017 252.148ZM173.745 207.38C182.334 206.083 172.446 216.788 169.957 218.465C170.362 216.187 171.357 207.741 173.745 207.38ZM196.612 188.64C195.458 194.126 186.492 200.111 186.398 191.125C186.363 187.776 187.983 188.047 190.347 187.726C191.696 187.543 197.271 185.504 196.612 188.64ZM165.64 197.136C164.634 200.204 163.827 203.351 162.84 206.423C162.403 207.783 161.889 208.717 161.074 209.795C160.393 210.696 159.582 210.924 159.608 212.348C160.462 212.157 161.131 211.565 161.82 210.996C161.653 213.819 160.794 216.858 160.378 219.672C159.879 223.047 159.464 226.423 159.31 229.845C158.976 237.287 158.973 244.702 159.114 252.148C159.186 255.942 159.218 259.738 159.394 263.528C159.482 265.414 159.582 267.307 159.783 269.181C159.864 269.937 160.337 271.548 160.045 272.257C158.897 275.04 153.815 267.395 151.608 268.517C151.926 266.399 151.193 266.862 149.97 265.821C149.378 265.316 148.993 264.457 148.375 264.007C148.188 263.773 147.982 263.565 147.758 263.382C147.502 262.978 147.233 263.021 146.95 263.511C144.463 261.785 143.821 258.107 142.486 255.632C141.8 254.36 141.136 254.162 141.019 252.403C140.918 250.87 141.116 249.308 141.063 247.768C141.002 246.032 140.914 244.117 140.495 242.436C140.008 240.484 139.338 240.643 138.034 239.603C138.436 239.399 138.701 239.056 138.829 238.574C138.412 238.66 137.146 239.26 136.832 238.829C136.213 237.982 137.673 237.87 138.057 237.532C136.42 236.688 136.772 235.995 137.363 234.448C137.53 234.01 137.69 233.356 137.832 232.988C138.143 232.181 138.321 232.692 138.424 231.691C138.521 230.736 137.792 228.858 137.578 227.841C137.217 226.135 137.018 224.66 137.342 222.882C137.604 221.443 138.309 220.139 138.358 218.659C138.372 218.243 137.826 218.105 137.819 217.704C137.808 217.118 138.28 216.86 138.402 216.318C138.715 214.931 138.574 213.464 139.11 212.148C139.592 210.965 140.565 209.436 141.254 208.404C141.731 207.689 142.902 206.883 143.03 205.939C143.115 205.314 142.277 205.386 142.314 204.915C142.365 204.277 142.826 204.07 142.952 203.596C143.301 202.296 143.389 201.045 144.289 200.048C145.424 198.794 145.917 199.319 145.964 197.25C145.986 196.24 145.291 196.084 145.664 194.92C145.866 194.288 146.463 193.915 146.845 193.467C147.98 192.138 148.744 190.958 149.552 189.316C150.266 187.866 151.406 187.022 152.138 185.769C153.091 184.136 151.666 183.327 153.6 182.866C153.325 181.852 153.033 181.033 153.756 180.175C154.212 179.633 155.37 179.965 155.774 179.338C156.237 178.62 155.553 176.916 156.25 176.45C156.818 176.071 157.667 177.239 158.558 176.661C159.238 176.22 160.263 173.786 160.045 172.892C161.801 174.039 161.363 173.249 162.204 171.777C162.392 171.447 162.963 171.374 163.126 171.041C163.45 170.375 163.376 169.696 163.843 169.155C164.623 168.254 165.897 168.486 166.754 167.842C167.462 167.311 167.425 166.738 167.99 166.236C168.473 165.808 169.266 165.725 169.736 165.281C170.655 164.411 170.664 163.493 171.815 162.744C173.178 161.857 174.384 161.103 175.624 159.927C176.432 159.161 177.199 157.802 178.144 157.297C179.451 156.597 180.47 156.548 181.749 155.55C182.673 154.829 183.547 153.639 184.454 153.031C185.139 152.573 185.619 152.672 186.482 152.388C188.034 151.877 188.413 150.178 189.679 149.486C190.549 149.011 191.815 149.446 192.77 149.197C195.741 148.422 198.676 146.751 201.658 145.826C205.298 144.696 208.963 143.707 212.631 142.709C209.261 148.014 204.968 152.8 200.614 157.013C199.185 158.396 191.354 164.701 195.575 167.393C197.269 168.473 200.95 164.983 202.318 164.13C205.073 162.412 207.926 161.036 210.812 159.647C215.477 157.4 221.553 153.403 226.738 153.725C223.581 158.221 219.642 161.83 216.032 165.802C212.715 169.453 207.716 172.876 209.281 178.851C204.621 177.474 200.436 175.847 195.591 176.208C193.421 176.369 191.25 176.066 189.09 176.419C186.74 176.805 184.528 177.717 182.271 178.519C180.486 179.152 178.512 179.202 176.869 180.255C176.075 180.764 175.093 181.492 174.38 182.124C173.429 182.966 173.213 183.524 172.466 184.635C169.802 188.596 167.224 192.31 165.64 197.136ZM151.067 272.116C150.921 271.431 150.789 270.805 150.622 270.022C152.105 271.082 152.105 271.082 151.067 272.116ZM139.859 250.279C139.676 250.572 138.908 250.666 138.685 250.413C138.407 250.098 139.138 248.871 139.255 248.611C139.544 248.869 140.21 249.713 139.859 250.279ZM136.684 242.331C136.88 241.493 137.077 240.657 137.274 239.819C137.515 240.595 138.602 241.453 138.626 242.193C138.641 242.683 136.899 242.439 136.684 242.331ZM137.314 243.479C139.016 244.78 139.194 246.315 139.245 248.56C137.208 247.777 137.501 245.488 137.314 243.479ZM166.906 154.877C166.735 155.417 166.006 157.099 165.471 155.923C165.301 155.546 166.551 155.032 166.906 154.877ZM166.418 153.043C166.838 152.603 167.686 153.151 168.162 152.795C168.495 152.546 168.385 152.293 168.542 152.145C168.573 152.115 169.026 151.05 169.212 150.808C169.54 150.383 170.256 150.118 170.654 149.734C171.769 148.661 172.398 147.251 173.099 145.816C173.936 144.103 174.202 143.905 175.551 143.121C176.482 142.58 177.203 141.918 177.96 140.999C178.832 139.941 178.768 139.183 179.484 138.026C179.837 137.455 180.347 137.385 180.759 136.924C181.253 136.373 181.504 135.603 181.961 135.047C182.158 134.806 182.792 134.807 182.911 134.601C183.063 134.34 183.182 133.298 183.325 133.106C183.598 133.534 183.871 133.962 184.143 134.389C185.218 132.193 186.003 130.379 187.801 128.918C189.69 127.383 191.32 125.138 193.272 123.764C193.71 123.455 194.604 123.325 194.94 122.87C195.506 122.1 195.016 121.415 195.429 120.761C195.898 120.019 196.806 120.619 197.403 120.3C198.157 119.895 198.373 118.714 199.345 118.844C196.15 123.233 196.19 130.061 196.021 135.543C195.947 137.904 197.228 139.095 195.337 140.828C193.728 142.303 191.46 141.865 189.558 142.836C187.17 144.054 184.615 144.702 182.179 145.765C179.658 146.863 177.632 148.786 175.206 150.058C173.067 151.179 171.606 152.774 169.65 154.158C168.923 154.673 167.796 155.42 166.929 154.805C166.385 154.419 165.709 153.786 166.418 153.043ZM202.498 116.246C202.637 115.622 205.364 113.984 206.035 113.449C207.041 112.645 208.532 110.682 209.655 111.462C210.045 109.651 211.564 107.636 212.906 107.252C214.396 106.826 216.951 105.343 218.416 104.049C218.843 103.671 218.985 103.118 219.488 102.763C220.365 102.146 221.235 102.483 222.079 101.641C222.209 101.512 223.377 99.2717 223.424 99.2931C223.483 99.5335 223.538 99.7766 223.585 100.021C224.472 99.4499 225.262 98.9956 225.815 98.267C225.94 98.1018 225.127 97.672 225.384 97.3447C225.698 96.9441 226.399 97.392 226.716 97.0115C225.729 102.702 226.464 110.027 231.436 112.912C225.523 113.654 219.749 111.59 213.763 112.858C210.898 113.465 207.986 114.461 205.379 115.992C203.782 116.929 201.741 120.288 200.151 118.657C200.782 117.681 201.744 117.074 202.498 116.246ZM231.187 99.8738C233.397 96.7335 236.751 95.491 240.129 96.6155C244.083 97.9326 242.415 101.141 241.818 104.703C240.677 102.761 238.205 100.834 236.1 100.775C233.116 100.693 234.244 103.58 236.036 104.614C237.665 105.554 240.459 105.816 241.625 107.525C242.76 109.188 242.325 111.908 242.508 113.869C241.626 113.717 240.743 113.565 239.86 113.413C240.601 108.835 237.342 108.614 234.303 107.323C231.231 106.02 228.671 103.448 231.187 99.8738ZM241.09 88.6024V92.8504C239.861 92.0363 238.631 91.2229 237.401 90.4088C238.631 89.8066 239.861 89.2045 241.09 88.6024ZM250.973 122.546C255.079 123.837 259.156 125.204 263.102 126.987C264.536 127.634 266.106 127.863 267.51 128.594C268.847 129.29 269.048 129.217 268.572 130.578C267.24 134.391 264.083 133.733 261.318 133.15C256.988 132.236 252.749 130.97 248.474 129.779C244.296 128.616 240.029 127.853 235.913 126.394C231.69 124.898 227.575 123.482 223.231 122.494C221.963 122.205 211.934 121.137 212.01 119.92C218.326 118.967 224.829 119.906 231.173 120.005C237.767 120.108 244.578 120.533 250.973 122.546ZM245.4 107.796C245.479 105.174 245.51 102.544 245.791 99.9373C247.67 102.63 249.366 103.437 251.735 100.912C254.002 98.4958 254.508 97.2358 257.383 99.5076C259.876 101.478 262.234 101.387 264.881 99.6625C266.495 98.6106 269.09 94.312 270.787 95.1967C271.596 95.6187 272.189 97.3188 273.005 97.9443C274.03 98.7279 275.605 99.2717 276.8 99.5757C279.62 100.293 281.3 98.1867 283.071 95.9337C285.638 92.6663 285.563 94.5641 287.943 96.8294C290.598 99.3566 292.818 98.1218 295.221 95.9654C296.686 100.948 297.234 106.389 297.648 111.613C297.787 113.376 298.308 115.881 296.944 117.128C295.983 118.007 293.942 118.042 292.784 118.528C288.645 120.265 284.669 122.73 281.207 125.886C279.859 127.116 278.683 128.622 276.84 128.341C275.084 128.074 273.377 126.367 271.965 125.24C270.432 124.018 268.881 122.629 267.089 121.948C266.04 121.549 264.36 121.693 263.442 120.962C261.735 119.601 263.744 116.032 263.319 113.637C262.997 111.818 262.096 108.026 259.938 109.092C256.728 110.678 258.596 116.87 260.362 118.803C256.75 118.058 252.752 116.97 249.269 115.588C246.578 114.521 245.304 110.994 245.4 107.796ZM305.968 120.566C313.382 118.149 320.319 116.518 328.034 116.078C331.449 115.883 334.755 116.006 338.132 116.042C340.076 116.063 341.558 114.242 340.004 112.148C337.855 109.248 331.298 110.352 328.393 110.222C320.606 109.872 313.466 110.9 306.091 113.881C306.871 112.213 308.744 111.996 310.029 111.134C311.604 110.075 312.675 108.33 313.348 106.394C315.098 101.359 313.336 96.6149 311.504 92.0156C315.102 93.1395 318.824 95.6005 322.441 96.2253C323.199 96.3563 323.686 96.272 324.357 96.5928C324.768 96.7892 324.898 97.4692 325.409 97.6176C325.655 97.6895 326.247 97.0427 326.526 97.1341C327.628 97.4957 326.757 97.5917 327.453 98.1154C328.006 98.5308 327.961 99.0656 328.975 98.8692C329.425 98.783 329.912 97.9754 330.149 97.9533C330.451 97.9248 330.381 97.4983 330.843 97.6228C331.683 97.8496 331.609 99.1064 331.889 99.7247C332.188 100.383 331.763 101.259 332.67 101.619C333.347 101.889 333.517 101.058 334.094 101.118C334.443 101.154 335.17 101.739 335.478 102.096C336.474 103.244 337.837 104.513 339.176 105.26C339.044 105.106 339.806 104.736 339.624 104.649C339.501 104.592 340.302 104.816 340.29 104.813C341.063 105.017 341.471 106.395 341.862 106.897C342.58 107.818 343.696 108.791 344.703 109.197C346.443 109.9 346.391 109.059 347.026 111.462C348.263 109.202 348.738 112.986 350.273 113.403C351.068 113.619 350.975 113.223 351.697 113.706C352.193 114.037 352.524 115.052 352.898 115.541C353.058 114.835 353.218 114.129 353.378 113.424C354.484 115.855 356.87 119.712 359.487 119.015C359.487 119.678 359.251 120.472 359.694 121.038C360.002 121.434 360.503 120.984 360.745 121.214C360.956 121.415 361.46 122.215 361.622 122.347C361.941 122.606 362.519 122.795 362.796 123.054C363.039 123.281 363.16 124.368 363.43 124.761C363.938 125.499 364.817 125.646 365.232 126.531C365.327 125.658 365.422 124.784 365.516 123.911C366.341 124.651 366.411 125.225 366.614 126.307C366.902 127.848 366.52 127.487 367.435 128.137C368.334 128.776 368.803 128.704 369.627 129.814C370.435 130.902 370.443 131.572 371.609 130.439C371.826 131.277 371.896 132.361 372.474 133.004C372.912 133.489 374.723 133.51 374.896 134.656C371.493 131.323 373.732 136.386 374.897 134.665C375.143 136.507 376.304 137.102 377.63 138.414C378.867 139.636 379.069 139.547 379.491 141.601C379.482 141.556 380.113 142.01 380.158 142.101C378.954 142.301 380.821 143.864 381.137 144.15C381.368 144.359 381.668 143.86 382.05 144.198C382.488 144.584 382.844 145.463 383.201 145.992C384.166 147.428 384.881 148.661 385.897 149.829C386.993 151.089 387.527 152.681 388.58 154.154C389.747 155.789 390.379 157.669 391.356 159.445C392.285 161.133 393.518 162.488 394.593 164.034C396.307 166.495 396.89 171.913 400.085 172.056C399.898 172.281 400.158 173.96 400.189 174.27C400.34 175.795 400.239 177.262 401.016 178.644C401.194 177.068 401.904 177.675 402.521 178.503C403.547 179.88 402.646 179.534 402.7 180.929C402.766 182.621 402.932 181.312 403.487 182.789C403.921 183.946 404.159 184.697 404.392 185.981C402.588 186.147 401.761 184.434 401.094 182.775C400.815 182.081 400.719 180.94 400.225 180.398C399.7 179.82 398.978 179.775 398.438 179.13C397.402 177.892 396.953 175.962 395.731 174.757C394.351 173.396 394.046 172.753 392.905 171.126C391.644 169.326 389.901 168.062 388.578 166.321C387.252 164.577 387.36 165.529 385.694 164.898C383.924 164.225 381.06 157.76 378.829 160.25C378.917 158.621 376.816 157.089 375.754 156.499C375.295 156.244 374.761 156.475 374.302 156.092C373.804 155.678 373.768 154.878 373.265 154.38C373.265 154.38 372.495 154.597 372.339 154.506C372.02 154.318 372.018 153.656 371.737 153.438C370.96 152.835 370.033 152.202 369.208 151.688C367.202 150.439 365.43 148.901 363.494 147.397C361.837 146.109 359.83 143.782 357.914 143.103C356.24 142.51 355.188 142.812 353.817 141.624C353.07 140.977 353.29 140.76 352.091 140.357C350.948 139.974 350.307 140.171 349.702 138.765C348.643 136.303 349.311 131.5 349.107 128.74C348.889 125.811 348.631 122.809 347.973 119.961C347.195 116.596 346.168 114.836 343.059 115.629C336.898 117.201 330.812 118.697 324.623 120.078C312.291 122.828 300.171 127.317 288.11 131.303C287.192 131.607 282.067 132.969 283.114 129.892C283.596 128.472 286.84 127.944 287.926 127.498C293.887 125.048 299.875 122.552 305.968 120.566ZM303.896 114.302C302.996 114.7 302.095 115.099 301.195 115.498V112.59C302.095 113.16 302.996 113.731 303.896 114.302ZM300.153 98.9243C300.936 99.667 302.527 97.8794 303.193 97.5171C304.329 96.8988 305.776 96.3679 307.046 96.495C309.388 96.7302 311.101 99.4078 310.672 102.122C309.946 106.715 304.311 108.887 301.204 110.682C301.104 109.055 300.65 107.098 301.633 105.69C302.486 104.468 304.141 104.557 304.929 103.257C306.91 99.9885 301.54 99.6923 300.34 102.291C299.866 100.63 299.393 98.9696 298.919 97.3091C300.062 97.0893 299.56 98.3617 300.153 98.9243ZM305.696 89.9343C304.578 90.7737 303.46 91.6131 302.342 92.4524C301.788 89.5467 303.677 89.1643 305.696 89.9343ZM407.58 191.068C406.115 191.879 405.749 189.941 404.696 189.857C405.94 188.969 405.94 188.969 407.58 191.068ZM413.535 233.382C413.717 236.167 413.574 238.984 413.894 241.759C414.137 243.869 414.873 245.833 414.952 247.967C415.124 252.642 413.764 257.402 411.019 260.829C408.423 264.07 404.707 266.86 401.202 268.223C399.622 268.836 397.973 270.196 396.439 270.699C394.742 271.256 393.129 270.045 391.73 272.217C390.796 262.898 391.478 253.16 391.404 243.782C391.331 234.384 391.418 224.982 390.049 215.685C388.829 207.405 386.426 198.092 381.995 191.318C380.195 188.567 377.979 186.314 375.642 184.205C374.43 183.111 373.217 181.941 371.867 181.077C369.788 179.747 368.018 179.931 365.757 179.552C362.522 179.009 359.514 178.551 356.267 179.609C353.244 180.594 349.915 181.716 347.208 183.427C344.51 185.132 341.378 185.835 338.578 187.362C336.674 188.401 332.717 191.872 330.604 191.247C328.558 190.642 325.53 186.61 324.224 184.804C322.555 182.496 321.174 179.821 319.693 177.338C319.173 176.466 318.113 175.119 317.978 174C317.743 172.056 318.414 172.692 320.012 172.909C324.123 173.469 327.988 174.354 331.927 175.857C333.888 176.604 337.721 179.628 339.682 177.816C342.675 175.049 338.127 170.293 336.461 168.696C333.622 165.973 330.322 163.952 327.297 161.533C324.082 158.962 319.832 156.226 317.763 152.268C323.804 154.338 329.839 156.71 335.703 159.38C338.386 160.601 341.038 161.891 343.558 163.516C344.974 164.428 347.834 166.895 349.538 165.713C353.244 163.144 344.733 155.685 343.505 154.16C341.597 151.791 339.728 149.445 337.631 147.296C336.216 145.846 333.993 144.826 333.336 142.687C335.684 143.674 337.582 145.608 339.781 146.922C340.933 147.61 341.983 148.006 343.254 148.217C344.61 148.442 344.771 148.693 345.839 149.318C346.671 149.807 347.525 150.459 348.459 150.79C349.124 151.027 350.287 151.068 350.869 151.506C351.166 151.999 351.473 152.483 351.79 152.958C352.145 153.08 352.494 153.219 352.838 153.378C353.354 153.912 353.659 154.648 354.161 155.199C357.803 159.198 362.675 162.061 366.758 165.411C370.621 168.58 374.72 171.448 378.43 174.907C382.699 178.889 387.131 183.168 390.762 187.942C392.814 190.64 394.501 193.7 396.225 196.683C397.474 198.843 399.289 200.636 400.368 202.863C402.72 207.72 404.673 212.97 407.205 217.748C409.786 222.617 413.147 227.455 413.535 233.382ZM378.829 261.561C379.533 258.191 383.502 254.255 386.038 252.769C384.76 256.441 381.354 258.946 378.829 261.561ZM385.374 273.319C383.211 278.531 373.698 279.127 374.988 271.414C375.621 267.634 378.305 265.315 380.609 262.842C381.674 261.699 384.283 257.611 385.932 258.269C385.854 261.208 385.706 264.161 385.711 267.101C385.714 269.063 386.14 271.474 385.374 273.319ZM382.625 213.241C383.502 215.53 384.377 217.436 382.748 219.485C382.014 220.409 379.619 222.431 378.536 221.982C375.058 220.542 381.688 214.271 382.625 213.241ZM361.592 192.872C362.43 192.819 363.243 192.963 364.071 192.904C364.895 192.845 364.982 192.675 365.746 192.796C365.827 192.932 365.907 193.068 365.988 193.204C366.092 194.118 366.506 194.217 367.227 193.503C368.23 193.762 368.883 193.935 369.842 194.564C367.253 196.732 364.101 199.253 360.927 199.981C355.909 201.131 357.295 193.147 361.592 192.872ZM284.673 241.628C284.152 242.843 282.656 239.806 282.285 239.24C282.976 239.238 285.198 240.401 284.673 241.628ZM324.988 209.635C328.886 206.994 333.516 204.674 337.703 202.708C338.439 206.827 334.848 212.144 332.637 214.962C330.849 217.242 328.693 219.606 326.268 220.918C323.647 222.336 320.782 221.713 320.909 217.733C320.956 216.279 321.241 213.939 321.75 212.61C322.408 210.896 323.651 210.54 324.988 209.635ZM272.291 134.711C272.871 134.671 279.174 133.725 279.141 134.636C279.042 137.373 272.924 135.224 272.291 134.711ZM227.721 187.562C231.05 182.792 236.424 177.644 236.503 170.977C236.619 161.168 227.244 166.062 222.531 166.47C225.023 163.627 237.547 151.697 230.139 147.46C228.01 146.242 224.984 147.432 222.847 148.07C219.056 149.202 215.531 151.163 211.807 152.527C214.468 149.238 219.066 145.5 218.915 140.518C218.731 134.454 214.445 135.92 210.738 136.81C209.314 137.152 202.95 140.091 201.755 138.096C201.317 137.364 202.026 136.436 202.176 135.785C202.441 134.633 202.359 134.231 202.368 133.055C202.386 130.681 203.744 127.634 202.636 125.426C202.383 125.928 202.166 126.45 201.986 126.992C201.621 125.707 201.866 124.345 201.501 123.06C210.755 125.809 220.169 127.313 229.481 129.659C234.194 130.846 238.631 132.891 243.41 133.811C248.229 134.739 252.965 136.159 257.793 137.044C262.199 137.851 266.419 139.194 270.782 140.225C275.034 141.229 279.396 139.028 283.546 137.913C292.843 135.416 302.137 132.859 311.446 130.436C322.188 127.639 333.363 125.248 343.645 120.584C343.844 126.8 344.273 133.005 344.927 139.179C340.386 136.686 333.647 133.435 329.056 137.896C327.219 139.68 326.653 142.762 327.379 145.382C328.169 148.235 330.591 149.56 332.188 151.707C327.326 150.26 314.784 140.056 312.552 150.37C310.975 157.654 318.666 162.36 322.427 166.46C318.692 165.611 313.691 162.144 311.498 167.716C309.603 172.533 311.886 177.775 314.224 181.748C315.491 183.901 316.916 185.927 318.263 188.013C318.975 189.116 319.671 190.235 320.419 191.305C321.17 192.379 322.586 193.504 323.112 194.66C324.171 196.99 322.034 197.133 320.372 197.975C318.296 199.026 316.515 200.792 314.617 202.199C310.271 205.421 306.473 208.413 301.337 209.443C296.05 210.503 290.959 211.61 285.741 213.089C280.54 214.563 276.294 215.979 270.977 214.074C268.553 213.205 266.579 212.433 264.007 212.597C261.307 212.768 259.728 212.606 257.508 210.663C247.953 202.307 237.582 195.45 227.721 187.562ZM210.496 179.173C214.189 177.021 217.906 174.859 221.72 173.011C224.878 171.48 229.672 169.696 233.128 170.367C232.154 173.274 230.376 175.658 228.469 177.798C226.782 179.691 224.675 182.547 222.634 183.868C220.781 185.068 218.625 183.168 216.797 182.372C214.789 181.499 212.025 181.091 210.496 179.173ZM211.424 190.027C213.264 189.139 217.219 192.118 218.893 192.893C222.181 194.416 225.489 196.006 228.387 198.409C224.848 203.159 220.84 207.502 216.077 210.552C212.943 212.56 207.661 214.862 204.705 211.217C200.991 206.638 205.456 197.305 208.085 193.381C208.172 194.052 208.259 194.723 208.347 195.395C209.186 193.835 209.826 190.798 211.424 190.027ZM278.979 230.679C276.684 231.24 275.903 230.733 274.388 228.689C273.363 227.307 272.357 225.872 271.202 224.63C270.023 223.362 267.111 220.305 270.821 222.065C274.202 223.669 277.098 224.472 280.818 223.843C285.071 223.125 289.037 221.036 293.23 219.979C290.931 222.315 288.649 224.674 286.346 227.004C283.912 229.465 282.071 229.923 278.979 230.679ZM279.504 249.466C274.473 253.863 264.345 253.387 267.754 243.714C268.272 242.245 268.996 240.862 269.835 239.611C270.114 239.193 270.612 238.327 271.01 238.046C272.122 237.262 271.814 237.168 272.884 238.474C273.807 239.601 281.02 248.811 279.504 249.466ZM278.013 232.658C278.473 232.485 280.415 231.177 280.858 231.901C281.305 232.633 277.498 235.167 278.013 232.658ZM314.638 299.708C313.507 302.851 304.454 307.401 306.14 301.066C306.887 298.259 307.591 296.134 310.41 295.921C312.036 295.799 315.634 296.941 314.638 299.708ZM330.877 257.116C332.367 254.596 337.289 251.189 339.39 254.947C340.403 256.757 337.946 257.684 336.46 257.219C335.663 256.968 335.01 256.415 334.143 256.373C333.028 256.32 331.938 257.336 330.877 257.116ZM334.828 259.617C333.815 260.809 327.703 266.781 326.713 265.86C328.709 262.546 331 258.846 334.828 259.617ZM324.846 320.052C322.724 320.191 323.783 316.477 323.989 314.992C324.502 316.027 327.204 319.897 324.846 320.052ZM330.239 313.395C329.552 311.977 327.702 309.865 328.12 308.04C328.44 306.644 331.328 304.768 332.537 305.568C334.143 306.633 331.815 313.631 330.239 313.395ZM380.599 298.519C379.691 302.151 378.75 301.214 375.903 301.918C373.047 302.624 371.073 305.44 368.559 306.95C369.432 304.806 369.974 302.193 371.436 300.454C371.774 300.052 373.846 299.258 372.666 298.328C371.633 297.514 370.149 300.154 369.706 300.874C367.529 304.415 366.005 308.738 364.748 312.813C364.129 314.814 363.634 316.852 363.341 318.953C363.08 320.826 363.362 322.785 363.096 324.609C362.667 327.547 359.232 327.562 357.165 328.319C355.295 329.004 353.432 329.748 351.491 330.117C349.808 330.437 348.061 329.854 346.43 330.239C344.663 330.656 343.87 331.873 341.862 331.598C340.225 331.374 338.693 330.5 337.034 330.412C335.481 330.331 333.932 330.955 332.389 330.447C330.831 329.934 330.907 329.736 331.261 327.959C331.482 328.438 331.704 328.918 331.926 329.397C332.547 328.832 332.977 327.108 333.357 326.299C333.947 325.045 334.428 324.612 334.209 323.05C333.887 320.744 332.096 319.104 331.69 316.91C331.266 314.622 332.724 312.751 333.585 310.84C334.762 308.224 334.747 306.285 333.76 303.58C334.504 303.809 335.248 304.037 335.993 304.265C334.973 301.694 331.514 302.736 329.779 303.498C328.907 303.88 327.526 305.385 326.588 305.347C325.299 305.294 324.627 303.326 324.073 302.243C322.47 299.107 320.64 296.011 318.744 293.1C318.222 292.3 317.539 291.785 317.719 290.873C317.873 290.099 319.367 289.001 319.853 288.524C321.671 286.738 323.986 285.748 325.694 283.869C328.276 281.028 331.253 278.993 333.892 276.209C336.642 273.308 339.476 270.644 342.341 267.903C345.244 265.127 347.758 261.856 350.639 259.051C351.386 260.623 352.832 266.248 354.487 266.683C356.415 267.19 356.358 264.541 356.262 262.946C356.125 260.674 355.039 258.466 354.918 256.297C354.788 253.978 356.71 252.941 358.16 251.599C360.401 249.526 365.36 244.805 362.694 240.919C360.398 237.572 352.931 243.99 350.873 245.919C349.124 247.559 347.773 249.042 345.803 250.336C344.418 251.244 342.095 254.74 340.454 254.418C338.501 254.034 337.738 251.558 335.35 251.64C333.016 251.719 331.033 253.671 329.586 255.631C326.314 260.061 325.189 265.989 322.208 270.607C320.738 272.884 318.831 274.764 317.236 276.918C315.485 279.283 315.113 282.007 313.386 284.321C308.445 276.677 303.061 269.439 297.85 262.045C295.248 258.353 292.699 254.617 290.153 250.874C289.198 249.47 288.122 248.154 287.248 246.68C286.051 244.662 286.267 243.041 285.796 240.79C285.588 239.792 284.613 238.597 284.874 237.643C285.225 236.362 287.692 235.356 288.582 234.832C292.214 232.691 295.509 230.015 298.896 227.399C305.169 222.555 311.514 218.013 318.185 213.876C318.071 215.658 317.072 217.505 317.743 219.293C318.055 218.265 318.55 213.682 319.733 213.485C319.506 213.522 319.692 219.362 319.875 220.196C320.421 222.684 322.005 224.385 324.272 224.369C328.588 224.336 332.457 218.884 334.853 215.272C336.475 212.826 338.033 209.982 338.605 206.921C339.118 204.173 338.553 202.262 341.013 200.866C346.061 198.003 351.15 195.671 356.548 194.153C356.306 196.854 355.632 200.18 357.746 202.123C360.081 204.268 363.135 202.356 365.332 200.938C367.509 199.532 370.865 195.672 373.422 196.793C375.937 197.896 377.687 201.559 379.095 203.99C380.335 206.134 381.685 207.68 380.249 210.069C378.639 212.746 377.591 215.36 376.301 218.268C375.805 219.386 375.332 220.115 375.682 221.261C375.796 221.633 377.089 223.846 377.439 224.163C379.679 226.187 382.704 222.337 384.303 220.876C384.867 227.169 384.993 233.435 385.22 239.748C385.387 244.372 386.929 248.924 383.661 252.304C380.394 255.683 377.668 259.152 375.676 263.727C374.613 266.171 373.659 268.68 372.509 271.073C371.74 272.672 370.119 275.017 371.111 276.9C372.158 275.746 372.469 273.992 373.342 272.691C373.864 275.391 374.39 278.386 376.849 279.53C379.679 280.846 382.491 278.569 384.997 277.301C384.098 284.518 382.346 291.531 380.599 298.519ZM377.707 306.815C375.765 311.634 374.011 317.444 370.425 320.993C369.638 321.772 366.293 324.814 365.019 324.305C363.939 323.872 364.534 321.336 364.722 320.25C365.677 314.734 367.33 311.264 371.181 307.746C372.775 306.29 374.821 304.428 376.877 304.069C379.089 303.682 378.452 304.963 377.707 306.815ZM432.478 421.205C427.443 413.255 420.328 407.077 413.603 401.105C410.557 398.399 407.201 396.37 404.124 393.664C400.644 390.605 397.111 387.654 393.214 385.349C385.825 380.977 377.765 377.929 370.792 372.759C367.391 370.238 363.671 367.802 360.474 364.971C359.07 363.727 357.83 362.137 356.561 360.713C355.382 359.39 352.85 357.469 352.381 355.532C354.343 355.159 355.459 352.949 357.21 352.723C357.787 352.648 361.402 353.759 360.908 351.723C362.219 351.685 362.372 351.662 363.47 351.329C363.926 351.191 364.465 351.407 364.925 351.217C365.629 350.929 366.108 350.095 366.819 349.776C367.324 349.549 369.201 349.802 369.486 349.52C370.263 348.749 369.437 348.817 368.974 347.855C370.483 347.81 371.52 348.696 373.034 347.754C373.495 347.467 373.884 346.806 374.331 346.464C375.123 345.856 375.409 346.798 375.952 345.536C376.459 347.277 376.446 346.796 377.669 346.284C378.888 345.773 379.768 345.405 381.156 345.278C384.472 344.973 387.8 345.44 391.1 345.167C392.308 345.066 393.34 344.748 394.539 344.931C395.596 345.093 395.277 345.946 396.156 344.797C396.36 344.53 395.7 343.799 396.016 343.415C396.156 343.245 396.61 343.364 396.783 343.277C398.326 342.495 398.333 343.588 398.606 345.012C399.512 344.766 400.435 344.543 401.221 343.926C400.824 343.515 400.159 343.06 400.543 342.308C401.848 342.883 402.701 342.618 402.049 344.281C403.362 344.785 403.608 344.128 404.787 343.985C405.485 343.9 406.459 344.403 407.04 343.756C407.675 343.049 406.673 342.282 407.839 341.675C408.078 341.816 408.255 342.029 408.371 342.314C409.001 342.535 408.888 342.822 408.032 343.177C410.324 344.557 409.786 343.014 410.748 341.382C410.971 341.006 411.967 339.838 412.42 340.402C413.109 341.258 411.704 341.53 412.005 342.381C412.527 343.856 414.348 341.966 414.907 341.218C415.331 340.654 415.503 339.571 415.959 339.149C416.592 338.563 417.503 339.469 418.297 339.307C421.919 338.569 425.34 332.913 422.611 329.127C421.878 328.11 421.257 328.312 420.383 327.67C419.519 327.035 419.034 325.937 418.341 325.03C416.758 322.961 414.82 321.411 412.607 320.419C407.474 318.12 401.943 316.442 396.552 315.208C394.056 314.637 391.398 313.762 388.842 313.769C387.336 313.772 385.069 315.132 383.661 314.48C380.924 313.214 384.942 306.731 385.605 304.637C387.553 298.485 389.022 291.926 389.986 285.468C390.175 284.204 390.102 282.567 390.494 281.362C390.944 279.978 391.041 280.174 392.004 280.061C393.744 279.857 395.647 280.916 397.459 280.55C399.468 280.144 401.638 280.333 403.666 279.612C404.598 279.28 405.462 278.92 406.075 278.007C406.269 277.72 406.053 277.471 406.175 277.27C406.213 277.207 406.907 276.339 406.929 276.289C406.922 275.84 406.956 275.394 407.03 274.953C407.733 275.63 407.386 277.051 408.57 277.084C408.782 275.569 408.784 275.264 409.64 274.411C409.575 274.477 410.285 273.776 410.194 273.851C410.237 273.581 410.322 273.329 410.449 273.096C410.85 272.871 411.273 272.752 411.718 272.738C412.643 271.633 412.259 271.044 412.259 269.557C413.005 270.007 413.752 270.458 414.499 270.908C414.68 266.501 416.99 264.088 418.526 260.517C419.18 258.995 419.847 257.806 420.003 255.97C420.093 254.911 419.858 253.977 420.235 252.979C420.578 252.073 421.344 251.585 421.664 250.599C422.294 248.658 421.824 246.18 421.859 244.164C421.907 241.368 422.147 238.582 422.226 235.788C422.38 230.302 421.905 224.665 421.198 219.244C420.86 216.65 420.295 214.134 419.851 211.568C419.486 209.459 418.612 207.481 418.299 205.519C418.169 204.703 418.37 203.972 418.158 203.07C417.879 201.885 417.413 200.719 417.066 199.555C416.256 196.836 415.455 194.121 414.545 191.444C412.78 186.256 410.713 181.224 408.75 176.136C406.861 171.243 405.298 166.198 402.851 161.63C400.442 157.129 397.848 152.705 395.193 148.397C392.427 143.912 388.93 140.057 386.248 135.53C381.211 127.029 374.187 120.024 366.837 114.24C351.672 102.304 335.284 90.3861 317.099 86.2936C314.358 85.6772 311.582 85.2494 308.789 85.1697C307.056 85.1198 304.185 86.0927 302.544 85.4115C300.706 84.6486 300.874 82.2517 300.414 80.3714C299.823 77.9544 298.488 76.371 296.973 74.6625C295.378 72.8638 293.93 70.7632 291.94 69.5401C289.924 68.3015 287.546 67.838 285.312 67.4634C283.318 67.1283 280.338 67.4413 278.516 66.4322C276.856 65.5124 277.676 64.5551 279.23 65.3426C279.343 64.5467 279.435 64.0327 279.875 63.4176C280.095 63.1084 281.137 62.6748 281.162 62.3864C281.192 62.0487 280.318 61.0868 280.193 60.6513C279.924 59.7134 280.077 58.4145 280.396 57.5343C281.962 59.1514 282.416 59.8676 284.166 58.3218C284.905 57.6691 285.131 57.3813 285.987 57.052C286.219 56.9626 286.739 57.2387 286.941 57.0838C287.714 56.4927 287.003 56.632 287.371 55.9333C287.278 56.1096 287.927 54.2527 287.897 54.6409C287.975 53.6518 288.227 53.9558 287.713 52.7405C286.706 50.3631 284.141 50.2658 285.448 47.5527C285.963 46.4851 286.415 46.5914 286.56 45.0436C286.638 44.2114 286.541 43.2573 286.538 42.4108C286.532 40.6796 286.813 39.4676 285.415 38.5861C284.073 37.7383 282.834 38.6684 282.289 36.5658C281.718 34.3594 282.293 31.5309 280.235 30.02C278.731 28.9162 276.559 29.8599 274.897 29.32C273.232 28.7794 271.7 26.8006 270.01 28.3199C268.809 29.3997 268.171 32.0546 265.909 30.6189C264.888 29.9714 264.325 27.7975 263.681 26.5783C262.655 24.6351 261.832 23.9332 260.253 25.8258C259.28 26.9931 257.228 29.8346 257.102 31.4505C256.964 33.2342 258.305 33.9796 256.622 35.0348C254.948 36.0848 254.009 35.3148 252.65 37.446C251.303 39.5602 252.346 40.7282 250.785 42.7511C248.833 45.2796 247.795 46.3711 247.822 49.7778C247.841 52.1144 246.063 54.1327 247.1 56.3494C248.263 58.8338 251.655 59.867 253.712 60.8781C253.025 62.3514 252.083 63.2957 252.885 64.8124C253.611 66.1859 255.663 66.4711 256.935 66.2215C257.791 66.0543 257.822 66.2047 258.495 65.506C258.937 65.0484 258.331 64.4773 259.24 64.2239C260.207 63.953 261.751 66.1541 262.379 66.7044C260.976 68.8193 257.122 69.2147 255.083 70.2868C253.84 70.9407 252.698 71.9078 251.432 72.4924C250.284 73.0226 248.887 72.8995 247.847 73.72C246.049 75.1369 245.301 78.6473 244.2 80.7111C242.953 83.047 241.743 84.132 239.351 84.6169C236.366 85.2216 233.962 85.4646 231.178 86.9742C227.779 88.8176 224.428 90.764 221.089 92.7512C215.704 95.9564 210.702 99.2464 205.701 103.123C200.47 107.179 195.381 111.413 190.333 115.651C185.341 119.843 181.149 125 176.812 130.069C173.306 134.166 170.229 138.59 166.737 142.686C162.614 147.523 159.582 153.628 155.759 158.759C153.668 161.567 151.666 164.327 150.354 167.634C149.29 170.315 147.441 172.945 146.206 175.757C144.628 179.353 143.135 182.892 141.364 186.368C140.637 187.795 139.773 189.019 139.006 190.381C138.024 192.125 138.082 193.81 137.817 195.82C137.541 195.33 137.266 194.839 136.99 194.349C136.489 195.618 135.884 196.867 135.451 198.166C135.174 198.995 135.218 200.172 134.94 200.897C134.591 201.808 134.167 201.687 133.733 202.445C133.268 203.256 133.118 204.346 132.629 205.215C130.512 208.975 129.698 213.745 128.61 218.035C127.151 223.79 127.382 230.404 127.461 236.338C127.545 242.606 127.84 248.873 128.652 255.075C129.387 260.691 130.958 266.078 133.419 271.003C135.563 275.294 138.52 277.794 142.307 279.992C144.046 281.001 145.66 280.689 147.485 280.851C149.485 281.027 150.848 281.658 152.964 281.103C153.979 280.837 154.459 279.978 155.265 279.693C155.765 279.516 156.033 279.805 156.513 279.737C157.198 279.641 158.624 279.251 159.367 279.345C161.68 279.637 161.292 283.698 161.519 285.771C161.87 288.965 162.126 292.193 162.598 295.366C163.592 302.041 165.736 308.276 167.003 314.836C161.129 315.668 156.091 316.941 150.586 319.522C145.062 322.112 139.478 322.991 133.666 324.278C128.228 325.482 122.997 327.733 118.645 331.81C116.605 333.72 114.485 335.955 115.983 339.101C116.941 341.113 118.668 341.624 120.159 342.793C120.46 342.351 119.589 341.413 119.43 341.153C120.683 341.452 120.644 342.131 121.56 342.722C122.359 343.238 123.014 343.22 123.89 343.585C126.027 344.477 127.078 346.702 129.191 347.327C129.856 347.523 130.725 347.993 131.405 348.127C132.222 348.287 132.833 347.872 133.661 348.048C134.107 348.389 134.59 348.634 135.11 348.78C135.45 348.597 135.786 348.403 136.117 348.199C137.306 348.342 138.041 349.211 139.007 349.924C139.072 349.025 138.979 348.091 139.711 347.505C139.998 348.379 139.535 348.933 140.316 349.534C141.305 350.297 142.605 349.345 143.491 348.863C143.741 351.768 149.535 351.597 151.371 351.556C153.915 351.499 156.455 350.327 159.021 350.981C160.33 351.314 161.727 351.662 163.03 352.095C164.599 352.615 166.495 353.081 168.04 353.737C168.654 353.999 169.406 354.835 170.06 354.779C170.58 354.734 170.72 353.842 171.325 353.868C172.011 353.897 172.241 354.783 172.835 355.051C173.722 355.449 174.539 354.691 175.383 355.074C175.686 355.211 176.097 355.802 176.485 355.994C177.075 356.286 178.241 356.29 178.897 356.43C179.827 356.631 180.66 356.496 181.456 356.562C182.098 356.616 182.085 357.117 182.392 357.15C182.744 357.187 183.358 355.779 183.832 355.573C184.522 355.272 185.774 355.988 186.477 356.114C181.381 364.136 175.236 371.227 168.575 377.435C161.389 384.132 154.032 390.82 146.327 396.695C139.331 402.028 132.559 406.641 127.135 414.17C122.562 420.519 115.282 427.312 116.404 436.513C117.525 445.708 126.123 449.449 133.012 451.205C141.676 453.412 150.596 452.524 159.283 453.765C162.988 454.294 167.105 454.012 170.835 453.561C175.239 453.028 179.015 449.69 182.802 447.276C189.613 442.934 195.437 437.125 202.147 432.647C210.547 427.041 218.86 421.1 228.069 417.345C232.354 415.599 236.765 413.605 240.221 410.012C240.736 409.478 241.119 408.671 241.7 408.23C242.688 407.481 242.953 408.24 243.526 408.013C243.967 407.839 244.394 407.285 244.776 407.12C245.742 406.699 246.173 406.873 247.255 406.873C246.327 406.251 245.477 404.648 246.441 403.342C248.091 401.105 248.375 404.68 248.996 405.508C249.521 404.724 249.32 404.026 249.185 403.135C249.629 403.475 250.074 403.815 250.518 404.156C250.212 402.431 250.503 400.843 251.29 399.34C252.016 397.955 252.195 398.15 252.395 396.23C254.649 398.619 255.089 392.82 255.292 390.706C255.489 388.655 255.295 387.184 256.456 385.391C257.702 383.466 259.598 382.249 261.18 380.754C263.68 378.391 266.43 375.406 269.887 377.672C272.616 379.462 274.101 383.848 276.661 386.102C278.214 387.469 279.853 387.607 280.843 389.728C281.643 391.441 281.903 393.493 282.659 395.252C284.49 399.518 287.125 404.399 290.131 407.671C292.929 410.717 296.522 410.701 299.796 412.59C303.037 414.461 306.406 416.487 309.837 417.842C313.585 419.322 317.626 419.952 321.275 421.745C323.152 422.668 324.83 424.057 326.723 424.941C328.765 425.893 330.916 426.564 332.985 427.437C341.184 430.895 349.206 435.135 357.819 437.051C361.639 437.901 365.175 440.211 369.023 440.697C370.674 440.905 372.02 441.169 373.635 441.649C376.169 442.401 375.632 442.801 376.566 445.254C378.101 449.292 381.852 446.901 384.742 447.002C389.369 447.164 393.926 446.295 398.546 446.254C406.625 446.182 414.404 445.125 422.22 442.045C430.066 438.952 438.999 431.501 432.478 421.205Z" fill="white" fill-opacity="0.83"/>
<path fill-rule="evenodd" clip-rule="evenodd" d="M339.089 105.653C339.2 105.783 339.46 105.861 339.089 105.653Z" fill="white" fill-opacity="0.83"/>
<path fill-rule="evenodd" clip-rule="evenodd" d="M196.777 277.668C198.532 275.603 205.998 276.02 206.562 279.714C207.191 283.837 200.52 290.065 198.079 291.81C194.937 294.057 191.102 294.478 191.659 288.837C192.08 284.576 194.278 280.608 196.777 277.668ZM202.943 273.417C203.17 274.559 201.492 274.171 201.03 273.9C200.813 273.38 202.715 272.27 202.943 273.417ZM190.068 280.978C191.557 281.133 193.263 278.359 194.387 277.414C194.883 278.305 191.609 283.204 191.249 284.322C190.349 287.115 189.848 290.644 191.075 293.43C194.659 301.571 203.834 289.945 206.128 285.885C207.733 283.045 208.845 279.523 206.577 276.74C205.77 275.748 204.436 275.473 203.686 274.531C202.699 273.292 203.476 271.692 201.491 271.963C200.122 272.149 198.477 273.584 197.146 274.103C195.541 274.729 194.099 275.377 192.698 276.536C192.382 276.797 188.228 280.786 190.068 280.978Z" fill="white" fill-opacity="0.83"/>
<path fill-rule="evenodd" clip-rule="evenodd" d="M295.313 283.71C294.377 289.304 289.604 295.041 284.582 295.264C279.581 295.486 277.961 289.401 278.844 284.551C279.597 280.415 282.676 273.228 287.068 274.02C290.521 274.642 296.115 278.916 295.313 283.71ZM292.128 274.362C288.957 271.513 284.576 270.194 280.9 272.455C279.695 273.196 274.885 276.465 276.349 278.679C278.322 276.903 280.026 274.438 282.591 273.847C282.16 276.156 279.696 278.233 278.829 280.481C277.814 283.107 277.259 286.114 277.425 289C277.721 294.137 280.684 298.129 285.272 297.423C289.472 296.776 293.143 293.038 295.147 288.836C297.822 283.224 296.315 278.123 292.128 274.362Z" fill="white" fill-opacity="0.83"/>
<path fill-rule="evenodd" clip-rule="evenodd" d="M262.68 296.425C260.422 300.307 256.979 303.959 252.998 305.158C247.845 306.709 249.293 301.764 250.833 298.216C252.195 295.078 254.53 289.681 258.087 289.709C259.295 289.718 261.543 290.396 262.601 291.146C264.687 292.624 263.868 294.382 262.68 296.425ZM257.87 287.893C258.68 286.845 262.268 282.352 262.749 285.854C263.779 284.467 262.966 283.316 261.648 283.17C260.056 282.993 258.317 285.05 257.168 286.073C254.805 288.176 252.986 290.329 251.42 293.278C249.693 296.529 245.29 303.876 249.143 307.101C253.308 310.588 259.37 304.149 261.978 300.828C263.646 298.704 265.855 295.585 265.221 292.47C264.442 288.644 260.61 288.242 257.87 287.893Z" fill="white" fill-opacity="0.83"/>
<path fill-rule="evenodd" clip-rule="evenodd" d="M240.099 225.329C237.769 228.417 233.035 232.916 229.134 232.386C225.576 231.902 226.965 227.265 228.224 225.021C230.115 221.648 232.649 218.481 236.311 218.297C237.891 218.218 239.94 218.255 241.164 219.645C242.836 221.543 241.331 223.698 240.099 225.329ZM239.852 216.75C237.121 215.655 236.049 215.237 233.396 216.979C231.265 218.377 229.375 220.354 227.913 222.598C225.725 225.957 223.518 233.513 229.137 234.458C235.3 235.495 249.961 220.809 239.852 216.75Z" fill="white" fill-opacity="0.83"/>
<path fill-rule="evenodd" clip-rule="evenodd" d="M248.252 236.029C246.479 238.132 244.265 239.848 241.739 240.433C242.808 237.664 245.194 231.614 248.024 230.771C249.327 230.382 250.814 230.892 250.706 232.616C250.629 233.863 248.951 235.198 248.252 236.029ZM250.534 228.709C249.066 227.854 249.529 227.271 247.821 227.941C246.475 228.469 244.778 229.385 243.657 230.44C243.045 231.016 241.141 233.058 241.374 234.098C241.797 235.986 243.217 233.092 243.59 232.536C244.23 233.141 240.958 238.577 240.764 239.472C240.038 242.803 242.29 243.156 244.497 242.065C247.473 240.596 256.287 232.056 250.534 228.709Z" fill="white" fill-opacity="0.83"/>
<path fill-rule="evenodd" clip-rule="evenodd" d="M294.171 318.353C294.391 316.145 294.703 313.809 296.448 312.569C298.021 311.451 299.65 311.613 299.883 313.906C300.1 316.035 298.303 319.817 296.85 320.978C294.826 322.596 294.436 320.579 294.171 318.353ZM296.771 323.378C300.925 320.556 303.544 307.609 295.886 311.238C291.534 313.3 293.134 325.849 296.771 323.378Z" fill="white" fill-opacity="0.83"/>
<path fill-rule="evenodd" clip-rule="evenodd" d="M261.289 269.694C261.945 268.134 262.694 267.617 264.022 266.935C263.137 267.906 262.232 268.803 261.289 269.694ZM262.248 265.851C261.307 266.948 259.151 268.619 259.453 270.502C259.729 272.221 260.859 272.122 261.884 271.587C264.035 270.464 265.231 265.55 267.48 265.09C264.986 263.254 264.403 263.339 262.248 265.851Z" fill="white" fill-opacity="0.83"/>
<path fill-rule="evenodd" clip-rule="evenodd" d="M262.578 168.254C262.698 173.488 262.803 178.721 262.903 183.954C262.938 185.793 262.56 188.415 263.035 190.177C263.245 190.953 265.143 194.317 265.816 194.535C268.173 195.297 267.331 188.437 267.347 186.748C267.405 181.049 267.333 175.344 267.313 169.645C267.302 166.708 268.016 142.083 264.734 142.203C264.169 142.224 262.776 145.04 262.567 145.604C261.908 147.377 262.15 150.005 262.165 151.894C262.21 157.345 262.454 162.804 262.578 168.254Z" fill="white" fill-opacity="0.83"/>
<path fill-rule="evenodd" clip-rule="evenodd" d="M282.447 183.51C282.632 184.957 282.535 187.37 283.938 188.12C285.158 188.772 285.626 187.996 286.083 186.784C287.132 183.994 286.753 179.73 286.734 176.846C286.696 171.131 286.141 165.44 285.758 159.746C285.59 157.247 285.94 154.738 285.671 152.124C285.552 150.976 285.435 146.361 283.604 146.576C281.948 146.77 282.097 151.607 282.007 152.854C281.256 163.228 281.125 173.154 282.447 183.51Z" fill="white" fill-opacity="0.83"/>
<path fill-rule="evenodd" clip-rule="evenodd" d="M360.608 302.642C359.906 306.809 348.455 321.318 345.572 313.203C343.861 308.389 347.569 303.148 350.461 300.361C352.25 298.636 354.486 296.943 356.925 297.466C358.995 297.91 361.053 299.996 360.608 302.642ZM354.695 295.169C353.886 295.391 347.126 300.903 347.064 300.831C346.477 300.146 350.74 292.767 351.179 292.121C354.794 286.802 357.193 290.83 359.454 295.01C358.973 292.513 357.648 288.888 355.435 287.832C352.64 286.499 350.461 289.79 349.116 292.155C347.216 295.499 346.168 299.129 345.112 302.902C344.609 304.702 344.035 306.333 343.183 307.956C342.341 309.557 340.869 311.322 341.086 313.347C342.283 312.575 342.918 311.063 343.672 309.817C344.513 310.213 344.224 313.327 344.394 314.119C344.824 316.111 345.996 317.669 347.808 318.012C351.186 318.65 354.832 315.021 357.09 312.556C359.47 309.959 362.032 306.399 362.012 302.402C361.99 298.225 358.453 294.136 354.695 295.169Z" fill="white" fill-opacity="0.83"/>
<path fill-rule="evenodd" clip-rule="evenodd" d="M363.852 228.219C361.936 231.625 358.573 235.708 355.015 236.499C352.403 237.08 350.68 234.832 351.729 231.798C352.615 229.233 355.635 227.614 357.614 226.486C359.184 225.59 366.505 223.506 363.852 228.219ZM362.442 222.648C358.517 222.476 355.35 225.772 352.423 228.402C353.084 225.381 354.579 222.094 356.685 220.127C359.551 217.45 362.268 219.112 365.284 220.45C364.54 217.723 361.199 216.742 359.071 217.127C356.379 217.615 354.445 220.282 353.084 222.863C351.461 225.942 350.905 229.57 348.995 232.458C348.12 233.78 342.703 238.726 343.93 240.747C345.953 238.253 347.977 235.76 350 233.266C350.524 236.213 351.103 239.57 354.344 239.283C356.932 239.054 359.884 236.499 361.776 234.546C364.22 232.024 369.031 222.937 362.442 222.648Z" fill="white" fill-opacity="0.83"/>
<path fill-rule="evenodd" clip-rule="evenodd" d="M307.449 251.731C305.786 252.619 302.125 253.826 301.195 251.158C299.904 247.453 304.06 240.954 306.038 238.485C307.255 236.966 308.081 236.18 309.777 237.163C311.132 237.948 313.122 240.179 313.642 241.894C314.757 245.575 310.05 250.342 307.449 251.731ZM311.264 233.936C312.619 234.29 312.785 236.287 311.091 235.52C309.822 234.946 309.527 233.481 311.264 233.936ZM312.965 236.748C312.459 234.957 313.488 232.147 310.997 232.018C309.586 231.945 307.001 233.611 305.769 234.288C304.061 235.226 302.454 236.659 301.562 238.677C300.736 240.546 301.326 241.039 302.585 239.487C302.739 239.609 299.737 248.599 299.711 249.5C299.594 253.616 302.103 256.328 305.628 255.597C308.867 254.927 311.786 251.851 313.569 248.746C314.47 247.175 315.211 245.376 315.279 243.451C315.383 240.499 313.688 239.312 312.965 236.748Z" fill="white" fill-opacity="0.83"/>
<path fill-rule="evenodd" clip-rule="evenodd" d="M328.502 235.238C327.135 232.182 330.302 227.039 333.137 228.543C339.041 231.676 330.295 239.246 328.502 235.238ZM333.805 231.249C333.172 231.278 329.167 233.075 329.756 234.292C330.565 235.963 333.489 231.921 333.805 231.249Z" fill="white" fill-opacity="0.83"/>
<path fill-rule="evenodd" clip-rule="evenodd" d="M140.156 225.599C139.998 224.298 137.485 226.188 137.5 227.026C137.916 226.061 140.486 228.312 140.156 225.599Z" fill="white" fill-opacity="0.83"/>
<path fill-rule="evenodd" clip-rule="evenodd" d="M277.581 127.231C280.78 126.958 276.704 108.217 274.373 109.875C271.846 111.671 274.646 127.482 277.581 127.231Z" fill="white" fill-opacity="0.83"/>
<path fill-rule="evenodd" clip-rule="evenodd" d="M283.556 118.48C286.553 118.979 286.076 110.987 284.464 109.557C281.489 106.917 279.917 117.875 283.556 118.48Z" fill="white" fill-opacity="0.83"/>
</svg>
