<svg xmlns="http://www.w3.org/2000/svg" xmlns:xlink="http://www.w3.org/1999/xlink" width="500" zoomAndPan="magnify" viewBox="0 0 375 374.999991" height="500" preserveAspectRatio="xMidYMid meet" version="1.0"><defs><g/><clipPath id="5194084e16"><path d="M 3 3 L 239.25 3 L 239.25 184.5 L 3 184.5 Z M 3 3 " clip-rule="nonzero"/></clipPath><clipPath id="02c64e2f41"><path d="M 146.410156 61.59375 L 178.660156 61.59375 L 178.660156 125.34375 L 146.410156 125.34375 Z M 146.410156 61.59375 " clip-rule="nonzero"/></clipPath><clipPath id="8088555cd8"><path d="M 178.660156 117.84375 L 178.660156 125.339844 C 160.847656 125.339844 146.410156 111.074219 146.410156 93.472656 C 146.410156 75.871094 160.847656 61.597656 178.660156 61.597656 L 178.660156 69.097656 C 165.042969 69.097656 153.996094 80.007812 153.996094 93.472656 C 153.996094 106.929688 165.039062 117.84375 178.660156 117.84375 Z M 178.660156 117.84375 " clip-rule="nonzero"/></clipPath><clipPath id="928462f966"><path d="M 64.027344 61.59375 L 96.054688 61.59375 L 96.054688 125.34375 L 64.027344 125.34375 Z M 64.027344 61.59375 " clip-rule="nonzero"/></clipPath><clipPath id="09675cfffd"><path d="M 63.800781 117.84375 L 63.800781 125.339844 C 81.617188 125.339844 96.054688 111.074219 96.054688 93.472656 C 96.054688 75.871094 81.617188 61.597656 63.800781 61.597656 L 63.800781 69.097656 C 77.421875 69.097656 88.46875 80.007812 88.46875 93.472656 C 88.46875 106.929688 77.425781 117.84375 63.800781 117.84375 Z M 63.800781 117.84375 " clip-rule="nonzero"/></clipPath></defs><g fill="#efefef" fill-opacity="1"><g transform="translate(3.000004, 279.530795)"><g><path d="M 25.800781 0 C 26.878906 0 27.4375 -0.558594 27.4375 -1.636719 L 27.4375 -51.402344 L 40.738281 -51.402344 C 41.816406 -51.402344 42.375 -52 42.375 -53.039062 L 42.375 -59.707031 C 42.375 -60.789062 41.816406 -61.347656 40.738281 -61.347656 L 2.875 -61.347656 C 1.796875 -61.347656 1.238281 -60.789062 1.238281 -59.707031 L 1.238281 -53.039062 C 1.238281 -52 1.796875 -51.402344 2.875 -51.402344 L 16.136719 -51.402344 L 16.136719 -1.636719 C 16.136719 -0.558594 16.734375 0 17.773438 0 Z M 25.800781 0 "/></g></g></g><g fill="#efefef" fill-opacity="1"><g transform="translate(51.064413, 279.530795)"><g><path d="M 15.65625 0 C 16.734375 0 17.292969 -0.558594 17.292969 -1.636719 L 17.292969 -20.007812 L 43.851562 -20.007812 L 43.851562 -1.636719 C 43.851562 -0.558594 44.414062 0 45.492188 0 L 53.4375 0 C 54.515625 0 55.074219 -0.558594 55.074219 -1.636719 L 55.074219 -59.707031 C 55.074219 -60.789062 54.515625 -61.347656 53.4375 -61.347656 L 45.492188 -61.347656 C 44.414062 -61.347656 43.851562 -60.789062 43.851562 -59.707031 L 43.851562 -29.953125 L 17.292969 -29.953125 L 17.292969 -59.707031 C 17.292969 -60.789062 16.734375 -61.347656 15.65625 -61.347656 L 7.707031 -61.347656 C 6.628906 -61.347656 6.070312 -60.789062 6.070312 -59.707031 L 6.070312 -1.636719 C 6.070312 -0.558594 6.628906 0 7.707031 0 Z M 15.65625 0 "/></g></g></g><g fill="#efefef" fill-opacity="1"><g transform="translate(116.659372, 279.530795)"><g><path d="M 40.777344 0 C 41.855469 0 42.414062 -0.558594 42.414062 -1.636719 L 42.414062 -8.308594 C 42.414062 -9.347656 41.855469 -9.945312 40.777344 -9.945312 L 17.292969 -9.945312 L 17.292969 -20.210938 L 37.582031 -20.210938 C 38.660156 -20.210938 39.21875 -20.769531 39.21875 -21.847656 L 39.21875 -28.078125 C 39.21875 -29.15625 38.660156 -29.714844 37.582031 -29.714844 L 17.292969 -29.714844 L 17.292969 -51.402344 L 40.777344 -51.402344 C 41.855469 -51.402344 42.414062 -52 42.414062 -53.039062 L 42.414062 -59.707031 C 42.414062 -60.789062 41.855469 -61.347656 40.777344 -61.347656 L 7.707031 -61.347656 C 6.628906 -61.347656 6.070312 -60.789062 6.070312 -59.707031 L 6.070312 -1.636719 C 6.070312 -0.558594 6.628906 0 7.707031 0 Z M 40.777344 0 "/></g></g></g><g fill="#efefef" fill-opacity="1"><g transform="translate(3.000004, 357.327528)"><g><path d="M 15.535156 0 C 16.613281 0 17.171875 -0.558594 17.171875 -1.636719 L 17.171875 -34.1875 L 34.585938 -11.542969 C 35.304688 -10.582031 36.183594 -10.582031 36.902344 -11.542969 L 54.398438 -34.269531 L 54.398438 -1.636719 C 54.398438 -0.558594 54.957031 0 56.035156 0 L 63.78125 0 C 64.859375 0 65.421875 -0.558594 65.421875 -1.636719 L 65.421875 -60.027344 C 65.421875 -63.105469 63.261719 -63.78125 61.425781 -61.347656 L 35.746094 -27.398438 L 10.144531 -61.347656 C 8.265625 -63.824219 6.152344 -63.105469 6.152344 -60.027344 L 6.152344 -1.636719 C 6.152344 -0.558594 6.710938 0 7.789062 0 Z M 15.535156 0 "/></g></g></g><g fill="#efefef" fill-opacity="1"><g transform="translate(78.977531, 357.327528)"><g><path d="M 35.945312 1.4375 C 54.636719 1.4375 68.457031 -11.503906 68.457031 -30.671875 C 68.457031 -49.804688 54.636719 -62.785156 35.945312 -62.785156 C 17.292969 -62.785156 3.515625 -49.804688 3.515625 -30.671875 C 3.515625 -11.503906 17.292969 1.4375 35.945312 1.4375 Z M 35.945312 -8.984375 C 23.921875 -8.984375 14.777344 -17.652344 14.777344 -30.671875 C 14.777344 -43.734375 23.882812 -52.359375 35.945312 -52.359375 C 48.007812 -52.359375 57.234375 -43.734375 57.234375 -30.671875 C 57.234375 -17.613281 48.007812 -8.984375 35.945312 -8.984375 Z M 35.945312 -8.984375 "/></g></g></g><g fill="#efefef" fill-opacity="1"><g transform="translate(155.434253, 357.327528)"><g><path d="M 47.847656 -61.347656 C 46.96875 -61.347656 46.289062 -60.945312 45.96875 -60.066406 L 29.632812 -19.53125 L 13.257812 -60.066406 C 12.941406 -60.945312 12.261719 -61.347656 11.382812 -61.347656 L 2.597656 -61.347656 C 1.359375 -61.347656 0.796875 -60.585938 1.359375 -59.429688 L 27.796875 0 C 28.757812 2.078125 30.472656 2.078125 31.390625 0 L 57.871094 -59.429688 C 58.390625 -60.585938 57.871094 -61.347656 56.632812 -61.347656 Z M 47.847656 -61.347656 "/></g></g></g><g fill="#efefef" fill-opacity="1"><g transform="translate(219.112431, 357.327528)"><g><path d="M 15.65625 0 C 16.734375 0 17.292969 -0.558594 17.292969 -1.636719 L 17.292969 -59.707031 C 17.292969 -60.789062 16.734375 -61.347656 15.65625 -61.347656 L 7.707031 -61.347656 C 6.628906 -61.347656 6.070312 -60.789062 6.070312 -59.707031 L 6.070312 -1.636719 C 6.070312 -0.558594 6.628906 0 7.707031 0 Z M 15.65625 0 "/></g></g></g><g fill="#efefef" fill-opacity="1"><g transform="translate(246.8909, 357.327528)"><g><path d="M 40.777344 0 C 41.855469 0 42.414062 -0.558594 42.414062 -1.636719 L 42.414062 -8.308594 C 42.414062 -9.347656 41.855469 -9.945312 40.777344 -9.945312 L 17.292969 -9.945312 L 17.292969 -20.210938 L 37.582031 -20.210938 C 38.660156 -20.210938 39.21875 -20.769531 39.21875 -21.847656 L 39.21875 -28.078125 C 39.21875 -29.15625 38.660156 -29.714844 37.582031 -29.714844 L 17.292969 -29.714844 L 17.292969 -51.402344 L 40.777344 -51.402344 C 41.855469 -51.402344 42.414062 -52 42.414062 -53.039062 L 42.414062 -59.707031 C 42.414062 -60.789062 41.855469 -61.347656 40.777344 -61.347656 L 7.707031 -61.347656 C 6.628906 -61.347656 6.070312 -60.789062 6.070312 -59.707031 L 6.070312 -1.636719 C 6.070312 -0.558594 6.628906 0 7.707031 0 Z M 40.777344 0 "/></g></g></g><g fill="#efefef" fill-opacity="1"><g transform="translate(297.511003, 357.327528)"><g><path d="M 23.964844 1.4375 C 34.707031 1.4375 44.8125 -3.59375 44.8125 -15.734375 C 44.8125 -26.519531 36.265625 -31.273438 28.554688 -35.304688 C 21.566406 -38.859375 15.65625 -41.578125 15.65625 -46.929688 C 15.65625 -51.28125 19.492188 -52.960938 24.242188 -52.960938 C 28.15625 -52.960938 32.75 -51.878906 37.023438 -50.082031 C 37.980469 -49.683594 38.742188 -50.042969 39.140625 -51.003906 L 41.257812 -57.351562 C 41.65625 -58.3125 41.375 -59.070312 40.378906 -59.46875 C 34.867188 -61.546875 28.875 -62.785156 24.042969 -62.785156 C 13.738281 -62.785156 4.3125 -57.910156 4.3125 -46.128906 C 4.3125 -36.304688 11.34375 -31.632812 18.769531 -27.558594 C 26.320312 -23.484375 33.429688 -20.609375 33.429688 -15.175781 C 33.429688 -10.664062 29.554688 -8.347656 23.683594 -8.347656 C 19.492188 -8.347656 14.21875 -9.347656 8.308594 -12.101562 C 7.308594 -12.539062 6.550781 -12.300781 6.152344 -11.34375 L 3.675781 -4.710938 C 3.273438 -3.714844 3.554688 -2.996094 4.59375 -2.515625 C 12.140625 0.4375 18.09375 1.4375 23.964844 1.4375 Z M 23.964844 1.4375 "/></g></g></g><g fill="#efefef" fill-opacity="1"><g transform="translate(349.968021, 357.327528)"><g><path d="M 14.136719 0.917969 C 17.972656 0.917969 21.167969 -2.117188 21.167969 -6.109375 C 21.167969 -9.945312 18.050781 -13.140625 14.136719 -13.140625 C 10.265625 -13.140625 7.148438 -9.90625 7.148438 -6.109375 C 7.148438 -2.195312 10.304688 0.917969 14.136719 0.917969 Z M 14.136719 0.917969 "/></g></g></g><g clip-path="url(#5194084e16)"><path fill="#efefef" d="M 14.867188 3 C 8.179688 3 3.0625 8.519531 3.0625 14.835938 L 3.0625 172.664062 C 3.0625 178.980469 8.179688 184.5 14.867188 184.5 L 227.382812 184.5 C 234.070312 184.5 239.1875 178.980469 239.1875 172.664062 L 239.1875 14.835938 C 239.1875 8.519531 234.070312 3 227.382812 3 Z M 14.867188 10.890625 L 227.382812 10.890625 C 229.75 10.890625 231.316406 12.863281 231.316406 14.835938 L 231.316406 172.664062 C 231.316406 175.035156 229.75 176.609375 227.382812 176.609375 L 14.867188 176.609375 C 12.5 176.609375 10.933594 174.636719 10.933594 172.664062 L 10.933594 14.835938 C 10.933594 12.464844 12.5 10.890625 14.867188 10.890625 Z M 22.738281 18.78125 C 20.371094 18.78125 18.804688 20.355469 18.804688 22.726562 L 18.804688 30.621094 C 18.804688 32.992188 20.371094 34.566406 22.738281 34.566406 C 25.105469 34.566406 26.675781 32.992188 26.675781 30.621094 L 26.675781 22.726562 C 26.675781 20.355469 25.105469 18.78125 22.738281 18.78125 Z M 42.417969 18.78125 C 40.050781 18.78125 38.480469 20.355469 38.480469 22.726562 L 38.480469 30.621094 C 38.480469 32.992188 40.050781 34.566406 42.417969 34.566406 C 44.785156 34.566406 46.351562 32.992188 46.351562 30.621094 L 46.351562 22.726562 C 46.351562 20.355469 44.785156 18.78125 42.417969 18.78125 Z M 62.09375 18.78125 C 59.726562 18.78125 58.160156 20.355469 58.160156 22.726562 L 58.160156 30.621094 C 58.160156 32.992188 59.726562 34.566406 62.09375 34.566406 C 64.460938 34.566406 66.027344 32.992188 66.027344 30.621094 L 66.027344 22.726562 C 66.027344 20.355469 64.460938 18.78125 62.09375 18.78125 Z M 81.769531 18.78125 C 79.402344 18.78125 77.835938 20.355469 77.835938 22.726562 L 77.835938 30.621094 C 77.835938 32.992188 79.402344 34.566406 81.769531 34.566406 C 84.136719 34.566406 85.707031 32.992188 85.707031 30.621094 L 85.707031 22.726562 C 85.707031 20.355469 84.136719 18.78125 81.769531 18.78125 Z M 101.449219 18.78125 C 99.082031 18.78125 97.511719 20.355469 97.511719 22.726562 L 97.511719 30.621094 C 97.511719 32.992188 99.082031 34.566406 101.449219 34.566406 C 103.816406 34.566406 105.382812 32.992188 105.382812 30.621094 L 105.382812 22.726562 C 105.382812 20.355469 103.816406 18.78125 101.449219 18.78125 Z M 121.125 18.78125 C 118.757812 18.78125 117.191406 20.355469 117.191406 22.726562 L 117.191406 30.621094 C 117.191406 32.992188 118.757812 34.566406 121.125 34.566406 C 123.492188 34.566406 125.058594 32.992188 125.058594 30.621094 L 125.058594 22.726562 C 125.058594 20.355469 123.492188 18.78125 121.125 18.78125 Z M 140.800781 18.78125 C 138.433594 18.78125 136.867188 20.355469 136.867188 22.726562 L 136.867188 30.621094 C 136.867188 32.992188 138.433594 34.566406 140.800781 34.566406 C 143.167969 34.566406 144.738281 32.992188 144.738281 30.621094 L 144.738281 22.726562 C 144.738281 20.355469 143.167969 18.78125 140.800781 18.78125 Z M 160.480469 18.78125 C 158.113281 18.78125 156.542969 20.355469 156.542969 22.726562 L 156.542969 30.621094 C 156.542969 32.992188 158.113281 34.566406 160.480469 34.566406 C 162.847656 34.566406 164.414062 32.992188 164.414062 30.621094 L 164.414062 22.726562 C 164.414062 20.355469 162.847656 18.78125 160.480469 18.78125 Z M 180.15625 18.78125 C 177.789062 18.78125 176.222656 20.355469 176.222656 22.726562 L 176.222656 30.621094 C 176.222656 32.992188 177.789062 34.566406 180.15625 34.566406 C 182.523438 34.566406 184.089844 32.992188 184.089844 30.621094 L 184.089844 22.726562 C 184.089844 20.355469 182.523438 18.78125 180.15625 18.78125 Z M 199.832031 18.78125 C 197.464844 18.78125 195.898438 20.355469 195.898438 22.726562 L 195.898438 30.621094 C 195.898438 32.992188 197.464844 34.566406 199.832031 34.566406 C 202.199219 34.566406 203.769531 32.992188 203.769531 30.621094 L 203.769531 22.726562 C 203.769531 20.355469 202.199219 18.78125 199.832031 18.78125 Z M 219.511719 18.78125 C 217.144531 18.78125 215.574219 20.355469 215.574219 22.726562 L 215.574219 30.621094 C 215.574219 32.992188 217.144531 34.566406 219.511719 34.566406 C 221.878906 34.566406 223.445312 32.992188 223.445312 30.621094 L 223.445312 22.726562 C 223.445312 20.355469 221.878906 18.78125 219.511719 18.78125 Z M 22.738281 42.457031 C 20.371094 42.457031 18.804688 44.027344 18.804688 46.402344 C 18.804688 48.777344 20.371094 50.347656 22.738281 50.347656 L 58.160156 50.347656 L 58.160156 137.152344 L 22.738281 137.152344 C 20.371094 137.152344 18.804688 138.722656 18.804688 141.097656 C 18.804688 143.472656 20.371094 145.042969 22.738281 145.042969 L 219.511719 145.042969 C 221.878906 145.042969 223.445312 143.472656 223.445312 141.097656 C 223.445312 138.722656 221.878906 137.152344 219.511719 137.152344 L 184.089844 137.152344 L 184.089844 50.347656 L 219.511719 50.347656 C 221.878906 50.347656 223.445312 48.777344 223.445312 46.402344 C 223.445312 44.027344 221.878906 42.457031 219.511719 42.457031 Z M 66.027344 50.347656 L 176.222656 50.347656 L 176.222656 137.152344 L 66.027344 137.152344 Z M 22.738281 152.933594 C 20.371094 152.933594 18.804688 154.507812 18.804688 156.878906 L 18.804688 164.773438 C 18.804688 167.144531 20.371094 168.71875 22.738281 168.71875 C 25.105469 168.71875 26.675781 167.144531 26.675781 164.773438 L 26.675781 156.878906 C 26.675781 154.507812 25.105469 152.933594 22.738281 152.933594 Z M 42.417969 152.933594 C 40.050781 152.933594 38.480469 154.507812 38.480469 156.878906 L 38.480469 164.773438 C 38.480469 167.144531 40.050781 168.71875 42.417969 168.71875 C 44.785156 168.71875 46.351562 167.144531 46.351562 164.773438 L 46.351562 156.878906 C 46.351562 154.507812 44.785156 152.933594 42.417969 152.933594 Z M 62.09375 152.933594 C 59.726562 152.933594 58.160156 154.507812 58.160156 156.878906 L 58.160156 164.773438 C 58.160156 167.144531 59.726562 168.71875 62.09375 168.71875 C 64.460938 168.71875 66.027344 167.144531 66.027344 164.773438 L 66.027344 156.878906 C 66.027344 154.507812 64.460938 152.933594 62.09375 152.933594 Z M 81.769531 152.933594 C 79.402344 152.933594 77.835938 154.507812 77.835938 156.878906 L 77.835938 164.773438 C 77.835938 167.144531 79.402344 168.71875 81.769531 168.71875 C 84.136719 168.71875 85.707031 167.144531 85.707031 164.773438 L 85.707031 156.878906 C 85.707031 154.507812 84.136719 152.933594 81.769531 152.933594 Z M 101.449219 152.933594 C 99.082031 152.933594 97.511719 154.507812 97.511719 156.878906 L 97.511719 164.773438 C 97.511719 167.144531 99.082031 168.71875 101.449219 168.71875 C 103.816406 168.71875 105.382812 167.144531 105.382812 164.773438 L 105.382812 156.878906 C 105.382812 154.507812 103.816406 152.933594 101.449219 152.933594 Z M 121.125 152.933594 C 118.757812 152.933594 117.191406 154.507812 117.191406 156.878906 L 117.191406 164.773438 C 117.191406 167.144531 118.757812 168.71875 121.125 168.71875 C 123.492188 168.71875 125.058594 167.144531 125.058594 164.773438 L 125.058594 156.878906 C 125.058594 154.507812 123.492188 152.933594 121.125 152.933594 Z M 140.800781 152.933594 C 138.433594 152.933594 136.867188 154.507812 136.867188 156.878906 L 136.867188 164.773438 C 136.867188 167.144531 138.433594 168.71875 140.800781 168.71875 C 143.167969 168.71875 144.738281 167.144531 144.738281 164.773438 L 144.738281 156.878906 C 144.738281 154.507812 143.167969 152.933594 140.800781 152.933594 Z M 160.480469 152.933594 C 158.113281 152.933594 156.542969 154.507812 156.542969 156.878906 L 156.542969 164.773438 C 156.542969 167.144531 158.113281 168.71875 160.480469 168.71875 C 162.847656 168.71875 164.414062 167.144531 164.414062 164.773438 L 164.414062 156.878906 C 164.414062 154.507812 162.847656 152.933594 160.480469 152.933594 Z M 180.15625 152.933594 C 177.789062 152.933594 176.222656 154.507812 176.222656 156.878906 L 176.222656 164.773438 C 176.222656 167.144531 177.789062 168.71875 180.15625 168.71875 C 182.523438 168.71875 184.089844 167.144531 184.089844 164.773438 L 184.089844 156.878906 C 184.089844 154.507812 182.523438 152.933594 180.15625 152.933594 Z M 199.832031 152.933594 C 197.464844 152.933594 195.898438 154.507812 195.898438 156.878906 L 195.898438 164.773438 C 195.898438 167.144531 197.464844 168.71875 199.832031 168.71875 C 202.199219 168.71875 203.769531 167.144531 203.769531 164.773438 L 203.769531 156.878906 C 203.769531 154.507812 202.199219 152.933594 199.832031 152.933594 Z M 219.511719 152.933594 C 217.144531 152.933594 215.574219 154.507812 215.574219 156.878906 L 215.574219 164.773438 C 215.574219 167.144531 217.144531 168.71875 219.511719 168.71875 C 221.878906 168.71875 223.445312 167.144531 223.445312 164.773438 L 223.445312 156.878906 C 223.445312 154.507812 221.878906 152.933594 219.511719 152.933594 Z M 219.511719 152.933594 " fill-opacity="1" fill-rule="nonzero"/></g><g clip-path="url(#02c64e2f41)"><g clip-path="url(#8088555cd8)"><path fill="#efefef" d="M 146.410156 61.597656 L 146.410156 125.339844 L 178.660156 125.339844 L 178.660156 61.597656 Z M 146.410156 61.597656 " fill-opacity="1" fill-rule="nonzero"/></g></g><g clip-path="url(#928462f966)"><g clip-path="url(#09675cfffd)"><path fill="#efefef" d="M 96.054688 61.597656 L 96.054688 125.339844 L 64.027344 125.339844 L 64.027344 61.597656 Z M 96.054688 61.597656 " fill-opacity="1" fill-rule="nonzero"/></g></g><path stroke-linecap="round" transform="matrix(0.000000000000000046, 0.7518, -0.75, 0.000000000000000046, 125.021523, 46.337956)" fill="none" stroke-linejoin="miter" d="M 5.000932 4.997448 L 118.707222 4.997448 " stroke="#efefef" stroke-width="10" stroke-opacity="1" stroke-miterlimit="4"/></svg>