<svg width="24" height="24" viewBox="0 0 24 24" fill="none" xmlns="http://www.w3.org/2000/svg">
<path d="M6.25 20.9999V12.1999C5.38333 11.9666 4.625 11.5249 3.975 10.8749C3.325 10.2249 3 9.43324 3 8.4999C3 7.61657 3.25417 6.83324 3.7625 6.1499C4.27083 5.46657 4.925 4.99157 5.725 4.7249C6.10833 3.9249 6.67917 3.2749 7.4375 2.7749C8.19583 2.2749 9.05 2.0249 10 2.0249C10.5833 2.0249 11.1292 2.1249 11.6375 2.3249C12.1458 2.5249 12.6083 2.79157 13.025 3.1249C13.1917 3.09157 13.35 3.0624 13.5 3.0374C13.65 3.0124 13.8167 2.9999 14 2.9999C15.1 2.9999 16.0417 3.39157 16.825 4.1749C17.6083 4.95824 18 5.8999 18 6.9999C18 7.36657 17.925 7.73324 17.775 8.0999C17.625 8.46657 17.4333 8.76657 17.2 8.9999H19.5C19.9167 8.9999 20.2708 9.14574 20.5625 9.4374C20.8542 9.72907 21 10.0832 21 10.4999V17.4999C21 17.9166 20.8542 18.2707 20.5625 18.5624C20.2708 18.8541 19.9167 18.9999 19.5 18.9999H16.75V20.9999H6.25ZM4.5 8.4999C4.5 9.13324 4.75833 9.66657 5.275 10.0999C5.79167 10.5332 6.36667 10.7499 7 10.7499C7.53333 10.7499 8.01667 10.6041 8.45 10.3124C8.88333 10.0207 9.325 9.5999 9.775 9.0499C10.1583 8.58324 10.6167 8.16657 11.15 7.7999C11.6833 7.43324 12.3 7.2499 13 7.2499H16.5C16.5 6.4999 16.2792 5.85407 15.8375 5.3124C15.3958 4.77074 14.7833 4.4999 14 4.4999C13.7 4.4999 13.4042 4.54574 13.1125 4.6374L12.675 4.7749L12.2 4.3749C11.9 4.10824 11.5583 3.8999 11.175 3.7499C10.7917 3.5999 10.4 3.5249 10 3.5249C9.41667 3.5249 8.85833 3.6749 8.325 3.9749C7.79167 4.2749 7.4 4.69157 7.15 5.2249L6.8 5.9749L6 6.2499C5.56667 6.3999 5.20833 6.69574 4.925 7.1374C4.64167 7.57907 4.5 8.03324 4.5 8.4999ZM16.75 17.4999H19.5V10.4999H16.75V17.4999Z" fill="url(#paint0_linear_312_205)"/>
<defs>
<linearGradient id="paint0_linear_312_205" x1="12" y1="2.0249" x2="12" y2="20.9999" gradientUnits="userSpaceOnUse">
<stop stop-color="#FFBF00"/>
<stop offset="1" stop-color="#F2A50C"/>
</linearGradient>
</defs>
</svg>
