<svg width="24" height="24" viewBox="0 0 24 24" fill="none" xmlns="http://www.w3.org/2000/svg">
<path d="M21.0248 11.05V19C21.0248 19.55 20.8292 20.021 20.4378 20.413C20.0458 20.8043 19.5748 21 19.0248 21H5.02485C4.47485 21 4.00418 20.8043 3.61285 20.413C3.22085 20.021 3.02485 19.55 3.02485 19V11.05C2.64151 10.7 2.34585 10.25 2.13785 9.7C1.92918 9.15 1.92485 8.55 2.12485 7.9L3.17485 4.5C3.30818 4.06667 3.54585 3.70833 3.88785 3.425C4.22918 3.14167 4.62485 3 5.07485 3H18.9748C19.4248 3 19.8165 3.13733 20.1498 3.412C20.4832 3.68733 20.7248 4.05 20.8748 4.5L21.9248 7.9C22.1248 8.55 22.1208 9.14167 21.9128 9.675C21.7042 10.2083 21.4082 10.6667 21.0248 11.05ZM14.2248 10C14.6748 10 15.0165 9.84567 15.2498 9.537C15.4832 9.229 15.5748 8.88333 15.5248 8.5L14.9748 5H13.0248V8.7C13.0248 9.05 13.1415 9.35433 13.3748 9.613C13.6082 9.871 13.8915 10 14.2248 10ZM9.72485 10C10.1082 10 10.4208 9.871 10.6628 9.613C10.9042 9.35433 11.0248 9.05 11.0248 8.7V5H9.07485L8.52485 8.5C8.45818 8.9 8.54585 9.25 8.78785 9.55C9.02918 9.85 9.34151 10 9.72485 10ZM5.27485 10C5.57485 10 5.83718 9.89167 6.06185 9.675C6.28718 9.45833 6.42485 9.18333 6.47485 8.85L7.02485 5H5.07485L4.07485 8.35C3.97485 8.68333 4.02885 9.04167 4.23685 9.425C4.44551 9.80833 4.79151 10 5.27485 10ZM18.7748 10C19.2582 10 19.6082 9.80833 19.8248 9.425C20.0415 9.04167 20.0915 8.68333 19.9748 8.35L18.9248 5H17.0248L17.5748 8.85C17.6248 9.18333 17.7625 9.45833 17.9878 9.675C18.2125 9.89167 18.4748 10 18.7748 10ZM5.02485 19H19.0248V11.95C18.9415 11.9833 18.8875 12 18.8628 12H18.7748C18.3248 12 17.9288 11.925 17.5868 11.775C17.2455 11.625 16.9082 11.3833 16.5748 11.05C16.2748 11.35 15.9332 11.5833 15.5498 11.75C15.1665 11.9167 14.7582 12 14.3248 12C13.8748 12 13.4538 11.9167 13.0618 11.75C12.6705 11.5833 12.3248 11.35 12.0248 11.05C11.7415 11.35 11.4125 11.5833 11.0378 11.75C10.6625 11.9167 10.2582 12 9.82485 12C9.34151 12 8.90385 11.9167 8.51185 11.75C8.12051 11.5833 7.77485 11.35 7.47485 11.05C7.12485 11.4 6.77918 11.6457 6.43785 11.787C6.09585 11.929 5.70818 12 5.27485 12H5.16285C5.12085 12 5.07485 11.9833 5.02485 11.95V19Z" fill="url(#paint0_linear_312_209)"/>
<defs>
<linearGradient id="paint0_linear_312_209" x1="12.025" y1="3" x2="12.025" y2="21" gradientUnits="userSpaceOnUse">
<stop stop-color="#FFBF00"/>
<stop offset="1" stop-color="#F2A50C"/>
</linearGradient>
</defs>
</svg>
