<?xml version="1.0" standalone="no"?>
<!DOCTYPE svg PUBLIC "-//W3C//DTD SVG 20010904//EN"
 "http://www.w3.org/TR/2001/REC-SVG-20010904/DTD/svg10.dtd">
<svg version="1.0" xmlns="http://www.w3.org/2000/svg"
 width="256.000000pt" height="256.000000pt" viewBox="0 0 256.000000 256.000000"
 preserveAspectRatio="xMidYMid meet">

<g transform="translate(0.000000,256.000000) scale(0.100000,-0.100000)"
fill="#000000" stroke="none">
<path d="M495 2466 c-56 -25 -95 -85 -95 -146 0 -45 -29 -71 -90 -81 -58 -9
-91 -29 -124 -73 -20 -26 -21 -41 -21 -265 l0 -238 29 -37 c16 -21 43 -44 61
-52 24 -9 37 -24 45 -48 13 -40 77 -102 115 -112 23 -6 25 -10 25 -70 l0 -64
-76 0 c-108 0 -150 -15 -209 -75 -61 -60 -75 -101 -75 -216 l0 -84 156 -190
156 -190 -66 -3 -66 -3 -50 -74 -50 -74 0 -134 c0 -90 4 -137 12 -145 17 -17
1239 -17 1256 0 8 8 12 55 12 145 l0 134 -50 74 -50 74 -66 3 -67 3 104 124
c57 68 127 151 156 185 l52 61 0 100 c1 85 -3 108 -23 150 -45 98 -113 135
-246 135 l-90 0 0 58 c0 58 0 58 39 76 48 20 100 77 108 117 3 17 14 31 27 35
31 9 76 54 92 91 20 46 20 440 0 486 -20 48 -68 84 -130 97 -66 13 -83 31 -96
98 -20 107 -73 142 -216 142 -75 0 -98 -4 -137 -24 l-47 -23 -47 23 c-39 20
-61 24 -137 24 -53 -1 -103 -6 -121 -14z m252 -108 c22 -21 45 -38 53 -38 8 0
31 17 53 38 37 36 41 37 120 40 72 3 85 1 109 -18 18 -13 29 -34 33 -58 14
-92 80 -162 153 -162 18 0 43 -10 59 -24 l28 -24 0 -211 c0 -233 0 -234 -68
-257 -31 -10 -39 -21 -71 -96 -8 -20 -24 -42 -36 -48 -20 -11 -20 -9 -20 245
l0 255 40 0 40 0 0 40 0 40 -202 0 c-247 0 -251 1 -317 109 -75 122 -96 121
-149 -5 -18 -43 -38 -84 -44 -91 -7 -9 -37 -13 -89 -13 l-79 0 0 -40 0 -40 40
0 40 0 0 -255 c0 -254 0 -256 -20 -245 -12 6 -28 28 -36 48 -32 76 -40 86 -73
97 -68 22 -71 34 -71 257 l0 200 29 29 c21 21 39 29 64 29 67 0 147 80 147
147 0 25 8 43 30 65 30 29 32 30 115 27 82 -4 85 -5 122 -41z m-64 -267 c56
-77 95 -91 261 -91 l138 0 -4 -217 -3 -218 -30 -53 c-55 -100 -132 -146 -245
-146 -113 0 -190 46 -245 146 l-30 53 -3 217 -4 216 24 7 c36 11 66 44 84 92
9 23 18 43 19 43 2 0 19 -22 38 -49z m-73 -756 c136 -86 321 -68 433 41 l37
36 0 -94 c0 -60 4 -98 12 -106 8 -8 48 -12 113 -12 85 0 108 -4 145 -22 61
-31 90 -88 90 -178 l0 -65 -171 -207 -170 -208 -299 0 -299 0 -170 208 -171
207 0 65 c0 90 29 147 90 178 37 18 60 22 145 22 65 0 105 4 113 12 8 8 12 46
12 106 l0 95 28 -28 c15 -15 43 -38 62 -50z m719 -943 c29 -45 31 -55 31 -140
l0 -92 -560 0 -560 0 0 92 c0 85 2 95 31 140 l31 48 498 0 498 0 31 -48z"/>
<path d="M610 1905 c-26 -32 13 -81 48 -59 34 22 22 74 -18 74 -10 0 -23 -7
-30 -15z"/>
<path d="M800 1852 c0 -75 -9 -92 -52 -92 -26 0 -28 -3 -28 -40 0 -39 1 -40
36 -40 84 0 124 53 124 164 l0 76 -40 0 -40 0 0 -68z"/>
<path d="M930 1905 c-26 -32 13 -81 48 -59 34 22 22 74 -18 74 -10 0 -23 -7
-30 -15z"/>
<path d="M643 1602 c-18 -9 -33 -21 -33 -27 0 -17 61 -72 93 -84 16 -6 62 -11
103 -11 l74 0 0 40 0 40 -66 0 c-68 0 -99 10 -124 40 -14 17 -17 17 -47 2z"/>
<path d="M915 1236 c-2 -6 -6 -24 -9 -39 -13 -56 -47 -136 -77 -176 l-30 -42
-30 31 c-55 55 -84 64 -211 68 l-118 4 0 -41 0 -41 93 0 c76 0 101 -4 137 -22
58 -29 90 -89 90 -165 l0 -53 40 0 40 0 0 53 c0 76 32 136 90 165 36 18 61 22
137 22 l93 0 0 40 0 40 -101 0 c-92 0 -101 2 -94 18 3 9 12 43 20 75 15 63 15
61 -38 70 -16 3 -30 0 -32 -7z"/>
<path d="M1280 2440 l0 -40 527 0 527 0 -59 -60 -59 -60 -388 0 -388 0 0 -40
0 -40 380 0 380 0 0 -401 0 -401 -47 35 c-154 111 -178 127 -193 127 -8 0 -78
-34 -154 -75 -77 -41 -145 -75 -150 -75 -6 0 -51 36 -101 79 l-89 79 -31 -30
-30 -29 35 -31 c19 -17 56 -50 82 -73 l46 -42 -54 -29 c-30 -16 -54 -33 -54
-37 0 -6 20 -41 37 -66 1 -2 102 50 225 114 123 65 228 118 233 118 6 0 63
-38 128 -84 l117 -84 0 -147 0 -148 -300 0 -300 0 0 -40 0 -40 308 0 308 0 59
-60 59 -60 -407 0 -407 0 0 -40 0 -40 468 0 c351 0 471 3 480 12 17 17 17
1719 0 1736 -9 9 -156 12 -600 12 l-588 0 0 -40z m1120 -842 l0 -732 -60 59
-60 59 0 615 0 615 57 58 c32 32 59 58 60 58 2 0 3 -329 3 -732z"/>
<path d="M1630 1978 c-99 -53 -138 -173 -88 -268 53 -99 173 -138 268 -88 99
53 138 173 88 268 -53 99 -173 138 -268 88z m160 -87 c14 -10 31 -36 39 -58
13 -36 12 -43 -5 -79 -27 -55 -81 -81 -134 -65 -72 21 -105 93 -73 159 33 68
112 88 173 43z"/>
</g>
</svg>
