<svg xmlns="http://www.w3.org/2000/svg" height="20" width="20"><path d="M9.667 4.354V1.875h.666v2.479Zm4.562 1.938-.541-.5 1.791-1.771.521.458Zm1.417 4.041v-.666h2.479v.666Zm-5.979 7.792v-2.458h.666v2.458ZM5.812 6.271 3.958 4.5l.563-.458 1.75 1.729Zm9.709 9.771-1.75-1.834.479-.458 1.771 1.729ZM1.875 10.333v-.666h2.479v.666Zm2.604 5.709-.458-.542 1.75-1.708L6 14l.208.25ZM10 14.167q-1.729 0-2.948-1.219Q5.833 11.729 5.833 10q0-1.729 1.219-2.948Q8.271 5.833 10 5.833q1.729 0 2.948 1.219Q14.167 8.271 14.167 10q0 1.729-1.219 2.948-1.219 1.219-2.948 1.219Z"/></svg>